<?xml version="1.0" standalone="no"?>
<!DOCTYPE svg PUBLIC "-//W3C//DTD SVG 1.1//EN" "http://www.w3.org/Graphics/SVG/1.1/DTD/svg11.dtd" >
<svg>
<metadata>
Created by FontForge 20120731 at Sun Jun 30 04:07:08 2019
 By www
Copyright 2006 House Industries/Brand Design Co., Inc. All Rights Reserved.
</metadata>
<defs>
<font id="BurbankBigRegular-Bold" horiz-adv-x="503" >
  <font-face 
    font-family="Burbank Big Rg Bd"
    font-weight="600"
    font-stretch="normal"
    units-per-em="1000"
    panose-1="0 0 0 0 0 0 0 0 0 0"
    ascent="750"
    descent="-250"
    x-height="506"
    cap-height="695"
    bbox="-72 -272 1017 949"
    underline-thickness="50"
    underline-position="-50"
    unicode-range="U+0020-FB04"
  />
<missing-glyph horiz-adv-x="217" 
 />
    <glyph glyph-name="fi" unicode="fi" horiz-adv-x="596" 
d="M353 332c0 0 -43 1 -109 1c-1 -157 2 -319 2 -319s-70 1 -158 -1c0 0 -3 156 -4 320h-69s1 39 -1 134c0 0 28 -2 71 -3v20c2 139 48 215 177 215c26 0 56 -3 89 -10c0 0 -5 -43 -8 -129c-10 1 -20 2 -28 2c-52 0 -69 -26 -69 -85v-16c34 -1 68 -1 109 -1
c0 0 -3 -51 -2 -128zM403 -18c0 0 1 145 -3 512c0 0 58 0 159 2c0 0 0 -241 4 -513c0 0 -68 1 -160 -1zM483 550c-65 0 -97 29 -97 87c0 51 30 84 97 84c63 0 93 -35 93 -84c0 -58 -34 -87 -93 -87z" />
    <glyph glyph-name="fl" unicode="fl" horiz-adv-x="600" 
d="M349 328c0 0 -36 1 -105 2c-1 -156 2 -314 2 -314s-70 0 -158 -1c0 0 -3 152 -4 315h-69s1 41 -1 136c0 0 27 -2 71 -3v7c2 138 47 215 182 215c28 0 59 -4 94 -11c0 0 -4 -43 -8 -129c-14 2 -26 3 -37 3c-54 0 -68 -25 -70 -87v-1c33 -1 66 -1 105 -1
c0 0 -3 -53 -2 -131zM562 -13c-99 3 -160 2 -160 2c4 483 1 721 1 721c110 -3 160 -2 160 -2c-4 -533 -1 -721 -1 -721z" />
    <glyph glyph-name="ff" unicode="ff" horiz-adv-x="722" 
d="M705 345c0 0 -46 1 -115 1c-1 -172 1 -367 1 -367s-69 0 -158 -1c0 0 -3 188 -3 368h-58s1 40 0 134c0 0 24 -1 59 -2v17c0 139 55 216 187 216c30 0 65 -4 104 -12c0 0 -4 -42 -8 -128c-17 3 -31 4 -44 4c-55 0 -78 -28 -78 -86v-13h116s-3 -54 -3 -131zM339 326
c0 0 -32 1 -94 2c-1 -156 1 -314 1 -314s-70 0 -158 -1c0 0 -3 152 -4 315h-69s1 38 -1 133c0 0 27 -1 71 -2v11c2 137 57 215 192 215c30 0 64 -3 102 -11c0 0 -5 -39 -8 -125c-16 2 -30 3 -42 3c-62 0 -80 -27 -82 -89v-7h94s-3 -52 -2 -130z" />
    <glyph glyph-name="ffi" unicode="ffi" horiz-adv-x="946" 
d="M703 342c0 0 -48 1 -119 1c-1 -172 2 -363 2 -363s-70 0 -158 -1c0 0 -3 186 -4 364h-59s1 39 0 133c0 0 24 -2 60 -3v21c2 141 56 217 188 217c27 0 57 -4 90 -11c0 0 -4 -42 -8 -129c-13 2 -24 3 -34 3c-52 0 -75 -27 -75 -84v-20c37 -1 74 -1 119 -1
c0 0 -3 -50 -2 -127zM334 324c0 0 -30 1 -90 2c-1 -154 1 -310 1 -310s-69 0 -157 -1c0 0 -3 149 -4 311h-69s1 37 -1 133c0 0 26 -2 71 -3v13c2 136 59 216 192 216c29 0 61 -3 97 -10c0 0 -5 -39 -8 -125c-14 2 -27 3 -38 3c-62 0 -82 -31 -82 -91v-9h90s-3 -51 -2 -129z
M753 2c0 0 1 120 -3 487c0 0 58 0 159 1c0 0 0 -215 4 -487c0 0 -68 1 -160 -1zM833 550c-65 0 -97 29 -97 87c0 50 30 83 96 83c64 0 93 -34 93 -83c0 -58 -33 -87 -92 -87z" />
    <glyph glyph-name="ffl" unicode="ffl" horiz-adv-x="949" 
d="M699 342c0 0 -45 1 -113 1c-1 -172 1 -367 1 -367s-69 1 -158 0c0 0 -3 187 -3 367h-59s1 40 0 134c0 0 24 -1 60 -2v22c0 135 51 217 182 217c30 0 64 -4 103 -12c0 0 -5 -42 -8 -129c-16 2 -30 3 -42 3c-56 0 -74 -27 -74 -85v-18h114s-3 -54 -3 -131zM334 326
c0 0 -30 1 -90 2c-1 -157 2 -317 2 -317s-70 0 -158 -1c0 0 -3 154 -4 318h-69s1 37 -1 133c0 0 27 -1 71 -2v11c2 139 58 217 197 217c29 0 61 -3 97 -10c0 0 -5 -41 -9 -127c-15 2 -29 3 -41 3c-61 0 -82 -30 -82 -90v-7c28 -1 56 -1 89 -1c0 0 -3 -51 -2 -129zM912 -3
c-100 3 -160 2 -160 2c4 482 1 706 1 706c109 -3 160 -3 160 -3c-4 -532 -1 -705 -1 -705z" />
    <glyph glyph-name=".notdef" horiz-adv-x="217" 
 />
    <glyph glyph-name="Lslash" unicode="&#x141;" horiz-adv-x="435" 
d="M5 263c0 0 3 49 2 143c0 0 15 3 39 9l-3 274s52 -2 163 0c0 0 -2 -62 0 -231l92 27s-2 -45 1 -136c0 0 -34 -9 -92 -25l3 -181c144 -4 220 -3 220 -3c-1 -88 -1 -141 -1 -141c-190 4 -380 4 -380 4s0 109 -1 273z" />
    <glyph glyph-name="lslash" unicode="&#x142;" horiz-adv-x="268" 
d="M6 278c0 55 -1 122 -1 126c17 4 34 9 50 14c0 169 -1 269 -1 269c110 -2 161 -2 161 -2c-1 -83 -2 -155 -2 -219c26 8 50 17 50 17c-3 -70 -2 -125 -2 -128l-49 -13c-1 -253 1 -334 1 -334c-100 2 -160 2 -160 2l2 285c-27 -8 -43 -15 -49 -17z" />
    <glyph glyph-name="Scaron" unicode="&#x160;" horiz-adv-x="530" 
d="M218 746c0 0 -34 37 -117 111c0 0 20 18 61 65c0 0 35 -35 104 -91c0 0 33 27 100 91c0 0 18 -20 62 -59c0 0 -41 -37 -112 -112c0 0 -28 1 -98 -5zM269 -18c-172 0 -257 94 -252 264c0 0 64 -1 170 1c-4 -92 29 -139 87 -139c42 0 67 21 67 73c0 45 -26 75 -134 114
c-130 48 -187 105 -187 219c0 130 93 198 237 198c167 0 251 -95 247 -262c0 0 -70 5 -165 6c7 88 -26 132 -82 132c-43 0 -64 -30 -64 -76s32 -77 121 -108c164 -56 204 -117 204 -215c0 -146 -104 -207 -249 -207z" />
    <glyph glyph-name="scaron" unicode="&#x161;" horiz-adv-x="460" 
d="M185 549c0 0 -34 37 -117 111c0 0 20 18 61 65c0 0 35 -35 104 -91c0 0 33 27 100 91c0 0 18 -20 62 -59c0 0 -41 -37 -112 -112c0 0 -28 1 -98 -5zM240 -21c-138 0 -225 63 -226 199l152 -3c1 -59 26 -86 74 -86c32 0 55 16 55 46c0 29 -18 47 -113 69
c-112 26 -162 77 -162 165c0 89 75 153 206 153c143 0 215 -82 217 -196c0 0 -54 1 -147 -2c-1 52 -24 86 -67 86c-38 0 -55 -21 -55 -44c0 -32 22 -51 106 -72c134 -33 170 -79 170 -155c0 -111 -91 -160 -210 -160z" />
    <glyph glyph-name="Yacute" unicode="&#xdd;" horiz-adv-x="543" 
d="M189 -12c-1 17 1 56 -4 161c0 0 -53 158 -183 526c0 0 43 0 179 6c0 0 27 -118 88 -335c0 0 38 135 99 359c0 0 49 -3 173 -3c0 0 -77 -211 -191 -551c0 0 -2 -24 2 -162c0 0 -41 1 -163 -1zM281 720c-50 36 -74 50 -74 50c78 103 109 153 109 153c62 -45 94 -65 94 -65
c-99 -102 -129 -138 -129 -138z" />
    <glyph glyph-name="yacute" unicode="&#xfd;" horiz-adv-x="486" 
d="M287 -231c-123 19 -161 23 -161 23c32 114 43 166 43 166c-102 337 -167 525 -167 525c112 2 172 9 172 9c41 -215 73 -346 73 -346c52 250 71 375 71 375c107 -7 167 -8 167 -8c-159 -588 -198 -744 -198 -744zM256 540c-50 36 -74 50 -74 50c78 103 109 153 109 153
c62 -45 94 -65 94 -65c-99 -102 -129 -138 -129 -138z" />
    <glyph glyph-name="Thorn" unicode="&#xde;" horiz-adv-x="526" 
d="M37 2c0 0 5 280 2 699c0 0 63 -5 158 -5c0 0 -1 -34 -1 -79c224 8 321 -89 321 -261c0 -183 -122 -269 -315 -265c0 -29 1 -58 2 -88c0 0 -68 2 -167 -1zM196 498c1 -83 1 -187 3 -298c98 -2 154 39 154 146c0 105 -38 158 -157 152z" />
    <glyph glyph-name="thorn" unicode="&#xfe;" horiz-adv-x="536" 
d="M33 -206c4 423 0 885 0 885c47 -2 160 1 160 1c-4 -69 -5 -168 -5 -234c33 46 85 71 141 71c123 0 184 -117 184 -268c1 -174 -78 -260 -189 -260c-55 0 -106 20 -134 61c5 -183 11 -255 11 -255c-75 2 -168 -1 -168 -1zM271 92c46 0 74 41 74 159c0 98 -23 159 -74 159
c-50 0 -76 -58 -76 -159c0 -114 25 -159 76 -159z" />
    <glyph glyph-name="Zcaron" unicode="&#x17d;" horiz-adv-x="470" 
d="M190 736c0 0 -34 37 -117 111c0 0 20 18 61 65c0 0 35 -35 104 -91c0 0 33 27 100 91c0 0 18 -20 62 -59c0 0 -41 -37 -112 -112c0 0 -28 1 -98 -5zM446 -3c-255 6 -425 6 -425 6c2 94 1 137 1 137c121 193 205 332 251 408c-154 -1 -246 -5 -246 -5c0 109 -1 150 -1 150
c273 2 417 6 417 6c3 -87 2 -145 2 -145c-118 -195 -203 -333 -249 -409c138 -3 252 -3 252 -3c-3 -113 -2 -145 -2 -145z" />
    <glyph glyph-name="zcaron" unicode="&#x17e;" horiz-adv-x="434" 
d="M172 538c0 0 -34 37 -117 111c0 0 20 18 61 65c0 0 35 -35 104 -91c0 0 33 27 100 91c0 0 18 -20 62 -59c0 0 -41 -37 -112 -112c0 0 -28 1 -98 -5zM412 -1c-299 10 -391 8 -391 8c3 74 1 106 1 106c152 192 201 260 201 260c-149 -2 -193 -7 -193 -7c0 99 -3 135 -3 135
c265 0 381 5 381 5c-1 -81 2 -112 2 -112c-144 -178 -201 -264 -201 -264c140 -3 205 0 205 0c-4 -100 -2 -131 -2 -131z" />
    <glyph glyph-name="onehalf" unicode="&#xbd;" horiz-adv-x="750" 
d="M100 303c0 150 0 237 -1 279c-35 -18 -63 -33 -63 -33c-18 55 -34 95 -34 95c75 38 133 70 133 70c37 -5 77 -7 77 -7c0 -207 4 -403 4 -403c-63 0 -116 -1 -116 -1zM187 -16c-26 5 -58 9 -91 12c270 441 417 702 417 702c56 -8 92 -10 92 -10
c-328 -549 -418 -704 -418 -704zM731 -4c-177 4 -301 3 -301 3c-3 52 -4 104 -4 104c114 44 197 108 197 181c0 36 -15 52 -39 52c-36 0 -52 -31 -46 -103c0 0 -50 0 -112 -1c-12 119 47 183 161 183c97 0 152 -49 152 -127c0 -89 -78 -161 -183 -204c99 1 175 6 175 6v-94z
" />
    <glyph glyph-name="onequarter" unicode="&#xbc;" horiz-adv-x="742" 
d="M100 303c0 150 0 237 -1 279c-35 -18 -63 -33 -63 -33c-18 55 -34 95 -34 95c75 38 133 70 133 70c37 -5 77 -7 77 -7c0 -207 4 -403 4 -403c-63 0 -116 -1 -116 -1zM187 -16c-26 5 -58 9 -91 12c270 441 417 702 417 702c56 -8 92 -10 92 -10
c-328 -549 -418 -704 -418 -704zM587 -4c0 26 0 52 1 77l-204 -3s0 23 -2 86c93 159 146 254 146 254c107 -5 167 -4 167 -4c-1 -109 -1 -186 -1 -252c13 0 37 1 37 1s-1 -29 -1 -82h-35c0 -50 1 -76 1 -76c-70 -1 -109 -1 -109 -1zM490 154h99v178
c-50 -86 -84 -149 -99 -178z" />
    <glyph glyph-name="onesuperior" unicode="&#xb9;" horiz-adv-x="255" 
d="M100 303c0 150 0 237 -1 279c-35 -18 -63 -33 -63 -33c-18 55 -34 95 -34 95c75 38 133 70 133 70c37 -5 77 -7 77 -7c0 -207 4 -403 4 -403c-63 0 -116 -1 -116 -1z" />
    <glyph glyph-name="threequarters" unicode="&#xbe;" horiz-adv-x="809" 
d="M182 290c-121 0 -178 56 -171 163c0 0 50 -3 118 -6c-2 -51 18 -77 52 -77c29 0 51 15 51 48c0 23 -11 40 -29 48c-20 8 -60 9 -89 7c0 0 0 26 -2 70c34 -3 70 0 89 8c18 7 28 21 28 44c0 32 -18 49 -47 49c-33 0 -53 -26 -50 -74l-117 -2c-8 107 61 156 170 156
c98 0 159 -48 160 -118c0 -53 -31 -85 -74 -94c50 -11 79 -50 79 -99c0 -80 -72 -123 -168 -123zM254 -16c-26 5 -58 9 -91 12c270 441 417 702 417 702c56 -8 92 -10 92 -10c-328 -549 -418 -704 -418 -704zM654 -4c0 26 0 52 1 77l-204 -3s0 23 -2 86
c93 159 146 254 146 254c107 -5 167 -4 167 -4c-1 -109 -1 -186 -1 -252c13 0 37 1 37 1s-1 -29 -1 -82h-35c0 -50 1 -76 1 -76c-70 -1 -109 -1 -109 -1zM557 154h99v178c-50 -86 -84 -149 -99 -178z" />
    <glyph glyph-name="threesuperior" unicode="&#xb3;" horiz-adv-x="362" 
d="M182 290c-121 0 -178 56 -171 163c0 0 50 -3 118 -6c-2 -51 18 -77 52 -77c29 0 51 15 51 48c0 23 -11 40 -29 48c-20 8 -60 9 -89 7c0 0 0 26 -2 70c34 -3 70 0 89 8c18 7 28 21 28 44c0 32 -18 49 -47 49c-33 0 -53 -26 -50 -74l-117 -2c-8 107 61 156 170 156
c98 0 159 -48 160 -118c0 -53 -31 -85 -74 -94c50 -11 79 -50 79 -99c0 -80 -72 -123 -168 -123z" />
    <glyph glyph-name="twosuperior" unicode="&#xb2;" horiz-adv-x="338" 
d="M319 304c-177 4 -301 3 -301 3c-3 52 -4 104 -4 104c114 44 197 108 197 181c0 36 -15 52 -39 52c-36 0 -52 -31 -46 -103c0 0 -50 0 -112 -1c-12 119 47 183 161 183c97 0 152 -49 152 -127c0 -89 -78 -161 -183 -204c99 1 175 6 175 6v-94z" />
    <glyph glyph-name="minus" unicode="&#x2212;" horiz-adv-x="364" 
d="M351 389c-1 -78 0 -125 0 -125c-182 4 -338 2 -338 2c3 76 2 123 2 123c203 -3 336 0 336 0z" />
    <glyph glyph-name="multiply" unicode="&#xd7;" horiz-adv-x="419" 
d="M97 124c0 0 -24 27 -80 79c0 0 50 51 117 122c-68 73 -118 126 -118 126c63 58 83 80 83 80c38 -43 76 -85 112 -124c36 39 74 81 112 124c0 0 31 -33 80 -77c0 0 -52 -53 -119 -125c69 -73 119 -124 119 -124c-61 -57 -84 -82 -84 -82c-36 41 -75 83 -112 124
c-37 -40 -74 -82 -110 -123z" />
    <glyph glyph-name="space" unicode=" " horiz-adv-x="217" 
 />
    <glyph glyph-name="exclam" unicode="!" horiz-adv-x="251" 
d="M129 -11c-67 0 -108 38 -108 99c0 55 36 96 106 96c69 0 104 -45 104 -99c0 -60 -46 -96 -102 -96zM57 223c0 0 -6 204 -23 478c0 0 90 -3 181 -1c0 0 -8 -198 -16 -476c0 0 -61 2 -142 -1z" />
    <glyph glyph-name="quotedbl" unicode="&#x22;" horiz-adv-x="311" 
d="M31 446c0 0 -5 100 -17 250c0 0 43 -1 121 3c0 0 -5 -81 -6 -248c0 0 -32 0 -98 -5zM180 442c0 0 1 71 -6 269c0 0 42 -4 123 -3c0 0 -11 -99 -20 -268c0 0 -39 3 -97 2z" />
    <glyph glyph-name="numbersign" unicode="#" horiz-adv-x="491" 
d="M289 155c0 0 1 49 1 109h-89c0 -33 2 -66 3 -97c0 0 -44 3 -114 2v93l-79 -1s3 42 -1 111c0 0 31 -1 81 -1c0 37 0 74 -1 117c-24 0 -48 -1 -75 -2c0 0 2 39 -1 111c0 0 37 -1 75 -1c0 30 -1 62 -2 94c0 0 45 -2 113 1c0 0 -1 -37 -1 -95l89 1l-2 106s45 -2 113 1
c0 0 -1 -52 -1 -105c26 0 52 1 80 2c0 0 -3 -42 -2 -109h-78l1 -120c27 0 54 1 82 2c0 0 -3 -40 -1 -110c0 0 -35 1 -79 1c0 -36 1 -72 2 -110c0 0 -40 2 -114 0zM199 490v-120c28 0 58 0 91 1c0 38 0 77 -1 120c-27 0 -57 0 -90 -1z" />
    <glyph glyph-name="dollar" unicode="$" horiz-adv-x="482" 
d="M317 -45c-92 3 -149 2 -149 2c3 42 5 75 5 96c-105 22 -164 97 -161 218c0 0 64 -4 160 -5c-5 -72 29 -106 77 -106c33 0 61 17 61 54c0 34 -22 56 -128 86c-108 30 -166 80 -166 180c0 90 60 147 157 164c-3 65 -6 104 -6 104c105 -1 153 1 153 1c-4 -47 -7 -84 -8 -109
c93 -22 151 -90 154 -216c0 0 -57 3 -158 2c3 66 -21 106 -70 106c-40 0 -59 -20 -59 -56c0 -37 25 -59 120 -81c138 -32 174 -92 174 -171c0 -103 -65 -156 -158 -173c0 -54 2 -96 2 -96z" />
    <glyph glyph-name="percent" unicode="%" horiz-adv-x="675" 
d="M168 343c-115 0 -160 81 -160 199c0 106 58 178 162 178c106 0 160 -69 160 -191c0 -138 -70 -186 -162 -186zM169 419c30 0 47 26 47 113c0 77 -15 109 -47 109s-47 -38 -47 -108c0 -81 16 -114 47 -114zM158 -15c-48 8 -73 9 -73 9c269 442 419 704 419 704
c46 -6 76 -7 76 -7c-328 -549 -422 -706 -422 -706zM503 -22c-110 0 -160 78 -160 194c0 105 56 185 162 185c110 0 162 -77 162 -189c0 -134 -70 -190 -164 -190zM505 55c30 0 46 29 46 110c0 79 -14 112 -47 112c-30 0 -46 -35 -46 -106c0 -84 15 -116 47 -116z" />
    <glyph glyph-name="ampersand" unicode="&#x26;" horiz-adv-x="620" 
d="M250 -31c-137 0 -238 75 -238 199c0 93 54 142 118 180c-42 58 -66 116 -66 174c0 122 83 194 214 194c117 0 196 -75 196 -175c0 -114 -82 -166 -160 -212c31 -31 68 -63 110 -97c13 35 24 77 31 126c80 -24 135 -36 135 -36c-11 -70 -29 -129 -52 -176l79 -55
s-26 -31 -77 -103l-76 56c-57 -52 -130 -75 -214 -75zM272 91c31 0 60 12 86 35c-55 44 -105 88 -147 130c-19 -20 -31 -44 -31 -74c0 -56 37 -91 92 -91zM211 517c0 -34 12 -69 35 -105c47 28 82 62 82 118c0 42 -21 67 -56 67c-36 0 -61 -31 -61 -80z" />
    <glyph glyph-name="quotesingle" unicode="'" horiz-adv-x="150" 
d="M22 447c0 0 1 64 -8 258c0 0 42 -3 122 -2c0 0 -9 -91 -16 -257c0 0 -40 2 -98 1z" />
    <glyph glyph-name="parenleft" unicode="(" horiz-adv-x="297" 
d="M149 -141c-83 141 -118 300 -118 444c0 171 41 341 127 458c82 -30 131 -46 131 -46c-64 -119 -94 -257 -94 -408c0 -122 27 -255 95 -404c-83 -22 -141 -44 -141 -44z" />
    <glyph glyph-name="parenright" unicode=")" horiz-adv-x="297" 
d="M149 -148c0 0 -59 22 -142 44c61 139 95 282 95 412c0 147 -30 291 -94 411c0 0 52 17 134 49c88 -123 125 -299 125 -458c0 -148 -38 -313 -118 -458z" />
    <glyph glyph-name="asterisk" unicode="*" horiz-adv-x="326" 
d="M123 363c-60 30 -96 45 -96 45c34 55 52 88 61 105c-56 8 -81 10 -81 10c13 57 17 97 17 97c42 -13 71 -21 89 -25c-6 72 -11 107 -11 107c65 0 116 4 116 4l-12 -111c60 14 94 26 94 26c9 -60 19 -100 19 -100l-79 -9c37 -67 62 -103 62 -103c-61 -22 -96 -40 -96 -40
c-17 46 -31 79 -41 101c-26 -65 -42 -107 -42 -107z" />
    <glyph glyph-name="plus" unicode="+" horiz-adv-x="393" 
d="M131 121c1 49 2 99 2 145c-71 0 -120 -1 -120 -1c2 77 -1 125 -1 125l122 -3c0 84 -1 145 -1 145c93 -3 127 -3 127 -3c-1 -53 -2 -99 -2 -142c71 0 123 1 123 1c-3 -89 -2 -123 -2 -123l-121 1c0 -91 2 -144 2 -144c-81 0 -129 -1 -129 -1z" />
    <glyph glyph-name="comma" unicode="," horiz-adv-x="224" 
d="M81 -126c-47 36 -69 52 -69 52c37 32 55 59 63 74c-36 11 -57 47 -57 83c0 54 38 93 95 93s92 -44 92 -107c0 -66 -43 -131 -124 -195z" />
    <glyph glyph-name="hyphen" unicode="-" horiz-adv-x="288" 
d="M12 261c1 97 -1 135 -1 135c193 -5 265 -3 265 -3c-4 -111 -2 -132 -2 -132c-164 2 -262 0 -262 0z" />
    <glyph glyph-name="period" unicode="." horiz-adv-x="222" 
d="M111 -9c-62 0 -94 42 -94 97c0 59 39 95 94 95c58 0 95 -40 94 -94c0 -66 -37 -98 -94 -98z" />
    <glyph glyph-name="slash" unicode="/" horiz-adv-x="385" 
d="M-2 -123c133 449 244 860 244 860c93 -2 145 0 145 0c-180 -615 -244 -860 -244 -860c-86 2 -145 0 -145 0z" />
    <glyph glyph-name="zero" unicode="0" horiz-adv-x="582" 
d="M291 -26c-165 0 -269 130 -269 370c0 239 102 359 268 359c176 0 270 -119 270 -354c0 -241 -94 -375 -269 -375zM292 110c56 0 92 57 92 241c0 145 -33 219 -93 219c-64 0 -95 -68 -95 -223c0 -165 32 -237 96 -237z" />
    <glyph glyph-name="one" unicode="1" horiz-adv-x="382" 
d="M147 -3c2 274 0 437 -1 498c-60 -30 -98 -53 -98 -53c-28 92 -47 144 -47 144c128 65 207 110 207 110c64 -8 100 -12 100 -12c0 -352 7 -686 7 -686c-103 -3 -168 -1 -168 -1z" />
    <glyph glyph-name="two" unicode="2" horiz-adv-x="517" 
d="M491 -2c-302 7 -466 6 -466 6c-4 88 -5 168 -5 168c192 90 307 192 307 319c0 56 -25 88 -66 88c-60 0 -84 -57 -73 -178c0 0 -61 1 -166 -2c-21 199 65 312 247 312c160 0 235 -86 235 -217c0 -152 -109 -275 -270 -350c166 -1 255 6 255 6c0 -103 2 -152 2 -152z" />
    <glyph glyph-name="three" unicode="3" horiz-adv-x="544" 
d="M273 -23c-187 0 -276 100 -259 275c0 0 83 -4 175 -9c-9 -94 22 -136 82 -136c51 0 86 25 86 87c0 43 -17 70 -50 85c-31 12 -71 16 -127 12c0 0 -1 41 -4 112c57 -4 105 0 134 14c25 12 43 39 43 79c0 59 -28 90 -78 90c-60 0 -87 -48 -81 -134c-103 -1 -172 -3 -172 -3
c-14 178 80 265 260 265c150 0 241 -88 241 -204c0 -81 -48 -134 -114 -156c72 -19 124 -79 124 -168c0 -143 -117 -209 -260 -209z" />
    <glyph glyph-name="four" unicode="4" horiz-adv-x="548" 
d="M314 -1c0 44 1 87 2 129l-307 -4s-2 35 -3 142c149 282 229 437 229 437c181 -6 240 -7 240 -7c-1 -184 -2 -321 -1 -432c21 0 43 0 66 1c0 0 -2 -46 -1 -136h-65c1 -86 2 -129 2 -129c-116 -4 -162 -1 -162 -1zM168 263h149c1 172 1 261 1 306
c-76 -147 -128 -259 -150 -306z" />
    <glyph glyph-name="five" unicode="5" horiz-adv-x="543" 
d="M275 -21c-178 0 -256 94 -255 259c104 -3 172 -3 172 -3c2 -92 31 -131 83 -131c44 0 80 32 80 128c0 82 -26 128 -77 128c-41 0 -67 -31 -81 -85c0 0 -74 6 -168 13c0 0 6 179 9 404c0 0 174 0 459 7c0 0 -2 -39 -2 -140c0 0 -121 1 -301 -4c-1 -34 -3 -80 -3 -141
c33 37 82 60 148 60c139 0 192 -105 192 -240c0 -176 -101 -255 -256 -255z" />
    <glyph glyph-name="six" unicode="6" horiz-adv-x="560" 
d="M291 -23c-180 0 -269 123 -269 361c0 227 82 372 274 372c159 0 236 -93 236 -243c-112 3 -175 0 -175 0c-3 70 -20 114 -63 114c-59 0 -92 -63 -95 -212c34 39 84 64 147 64c144 -1 203 -85 203 -204c0 -176 -114 -252 -258 -252zM299 318c-42 0 -76 -25 -97 -57
c11 -114 45 -154 96 -154c46 0 75 37 75 112c0 61 -23 99 -74 99z" />
    <glyph glyph-name="seven" unicode="7" horiz-adv-x="467" 
d="M112 -10c-10 240 62 436 186 556c-143 0 -291 -4 -291 -4c2 94 1 151 1 151c317 2 452 6 452 6c-1 -124 2 -169 2 -169c-132 -137 -181 -307 -173 -546c-120 5 -177 6 -177 6z" />
    <glyph glyph-name="eight" unicode="8" horiz-adv-x="561" 
d="M288 -22c-185 0 -278 73 -278 204c0 76 43 136 129 165c-68 35 -112 97 -112 174c0 111 83 191 257 191s256 -82 256 -190c0 -82 -44 -138 -119 -170c82 -32 130 -88 130 -168c1 -145 -119 -206 -263 -206zM282 98c51 0 89 30 89 84c0 55 -40 96 -98 114
c-56 -18 -86 -61 -86 -108c0 -55 35 -90 95 -90zM292 402c42 18 74 56 74 106c0 53 -30 84 -85 84c-58 0 -85 -33 -85 -81c0 -50 36 -88 96 -109z" />
    <glyph glyph-name="nine" unicode="9" horiz-adv-x="555" 
d="M270 -20c-167 0 -253 100 -252 263c109 -8 172 -6 172 -6c1 -86 28 -124 80 -124c60 0 87 48 90 202c-31 -33 -79 -51 -133 -51c-135 0 -213 80 -213 211c0 149 102 236 255 236c168 0 264 -111 264 -365c0 -266 -100 -366 -263 -366zM270 364c34 0 66 16 88 45
c-6 135 -37 176 -87 176c-52 0 -81 -40 -81 -112s26 -109 80 -109z" />
    <glyph glyph-name="colon" unicode=":" horiz-adv-x="228" 
d="M114 -15c-55 0 -90 39 -90 95c0 57 37 95 92 95c56 0 90 -37 90 -95c0 -64 -37 -95 -92 -95zM112 263c-56 0 -90 39 -90 97c0 57 38 92 91 92c58 0 90 -38 90 -92c0 -69 -40 -97 -91 -97z" />
    <glyph glyph-name="semicolon" unicode=";" horiz-adv-x="234" 
d="M87 -129c-40 33 -69 52 -69 52c32 31 50 59 59 76c-29 11 -50 42 -50 82c0 51 34 91 94 91s91 -46 91 -100c0 -80 -55 -144 -125 -201zM119 262c-56 0 -91 41 -91 95c0 55 39 95 93 95c51 0 90 -38 90 -95c0 -63 -38 -95 -92 -95z" />
    <glyph glyph-name="less" unicode="&#x3c;" horiz-adv-x="355" 
d="M336 87c0 0 -130 72 -324 168c0 0 3 46 2 138c0 0 117 57 322 170c0 -3 -4 -53 -3 -147c0 0 -85 -35 -206 -92c40 -19 117 -56 212 -96c0 0 -3 -55 -3 -141z" />
    <glyph glyph-name="equal" unicode="=" horiz-adv-x="367" 
d="M20 179c0 0 0 21 -3 115c0 0 139 -1 333 2c0 0 -2 -35 -1 -117c0 0 -142 2 -329 0zM350 359c-200 3 -333 2 -333 2c3 93 3 116 3 116c176 -3 329 0 329 0c-1 -87 1 -118 1 -118z" />
    <glyph glyph-name="greater" unicode="&#x3e;" horiz-adv-x="356" 
d="M18 86c2 82 -3 137 -2 141c98 41 180 80 214 97c-118 57 -208 93 -208 93c2 93 -3 142 -2 146c205 -114 322 -170 322 -170c-2 -91 2 -134 2 -134c-188 -97 -326 -173 -326 -173z" />
    <glyph glyph-name="question" unicode="?" horiz-adv-x="517" 
d="M149 211c1 98 -2 171 -2 171c139 -6 183 31 183 108c0 63 -26 96 -73 96c-59 0 -81 -53 -79 -141c0 0 -67 2 -167 1c-4 177 80 267 250 267c153 0 245 -82 245 -206c0 -136 -78 -199 -194 -216c-1 -39 0 -78 0 -78c-105 2 -163 -2 -163 -2zM235 -17
c-75 0 -109 42 -109 99c0 60 45 96 107 96c69 0 106 -39 106 -100c0 -58 -41 -95 -104 -95z" />
    <glyph glyph-name="at" unicode="@" horiz-adv-x="762" 
d="M489 -137c-274 -59 -471 59 -471 387c0 250 128 407 363 407c240 0 363 -145 363 -402c0 -206 -50 -268 -142 -268c-53 0 -91 27 -107 76c-34 -55 -98 -74 -162 -74c-114 0 -168 69 -168 150c0 97 76 160 270 159c0 0 0 20 -1 32c-4 55 -22 79 -56 79
c-39 0 -57 -29 -58 -86c0 0 -58 1 -141 -3c-3 117 68 201 209 201c132 0 193 -81 198 -186c3 -59 1 -144 -1 -183c-1 -49 11 -73 35 -73c28 0 45 30 45 172c0 214 -82 333 -283 333c-193 0 -285 -126 -285 -335c0 -247 116 -371 378 -311zM441 190c1 14 0 42 0 42
c-93 0 -135 -36 -135 -86c0 -35 24 -57 59 -57c40 0 72 23 76 101z" />
    <glyph glyph-name="A" unicode="A" horiz-adv-x="545" 
d="M2 17c0 0 61 274 146 681c129 5 241 4 241 4s71 -343 154 -719c0 0 -85 1 -172 -1c0 0 -9 48 -24 137c-36 1 -91 2 -165 2c-6 -35 -11 -70 -16 -106c0 0 -75 3 -164 2zM264 586c-10 -54 -35 -181 -62 -342h123c-16 91 -36 205 -61 342z" />
    <glyph glyph-name="B" unicode="B" horiz-adv-x="539" 
d="M45 0c0 0 -2 327 -9 693c75 12 140 19 196 19c191 0 277 -69 277 -197c0 -78 -43 -136 -116 -157c89 -24 137 -84 137 -170c0 -142 -108 -201 -304 -201c-54 0 -115 4 -181 13zM200 102c15 -2 30 -2 43 -2c75 0 121 27 121 97c0 68 -50 105 -167 94c1 -97 3 -189 3 -189z
M196 588c-2 -150 0 -184 0 -184c99 -6 155 18 155 94c0 59 -34 93 -111 93c-13 0 -28 -1 -44 -3z" />
    <glyph glyph-name="C" unicode="C" horiz-adv-x="566" 
d="M292 -17c-173 0 -270 110 -270 363c0 237 91 366 273 366c169 0 243 -121 249 -284c-119 -4 -175 -3 -175 -3c-5 109 -32 154 -81 154c-63 0 -91 -75 -90 -231c0 -163 30 -231 93 -231c49 0 82 38 84 174c106 0 178 -2 178 -2c-3 -219 -105 -307 -261 -306z" />
    <glyph glyph-name="D" unicode="D" horiz-adv-x="563" 
d="M203 117c8 -1 15 -1 23 -1c85 0 141 43 141 228c0 152 -44 228 -139 228c-10 0 -20 -1 -31 -2c1 -246 6 -453 6 -453zM37 -3c3 393 0 692 0 692c58 9 110 14 157 14c240 0 347 -126 347 -364c0 -249 -120 -352 -355 -352c-45 0 -95 3 -149 10z" />
    <glyph glyph-name="E" unicode="E" horiz-adv-x="459" 
d="M44 4c0 0 -1 286 -8 690c0 0 141 2 398 5c0 0 0 -53 2 -140c0 0 -101 -1 -238 -4c0 0 -1 -58 1 -154c26 0 89 -1 199 2c0 0 -1 -47 1 -131c0 0 -76 2 -198 0c1 -41 2 -86 4 -133c0 0 87 -4 235 -6c0 0 -2 -48 -1 -138c0 0 -183 7 -395 9z" />
    <glyph glyph-name="F" unicode="F" horiz-adv-x="441" 
d="M44 2c0 0 0 288 -8 692c0 0 186 2 391 5c0 0 0 -56 1 -149c0 0 -107 0 -229 -3c0 0 -1 -59 1 -182c26 0 76 -1 192 2c0 0 -1 -56 1 -145c0 0 -71 1 -191 0l4 -219c-90 0 -162 -1 -162 -1z" />
    <glyph glyph-name="G" unicode="G" horiz-adv-x="574" 
d="M294 -21c-165 0 -272 107 -272 370c0 229 92 362 271 362c156 0 243 -106 249 -273c0 0 -102 -2 -167 -5c-6 99 -34 147 -85 147c-65 0 -97 -78 -97 -231c0 -173 36 -241 111 -241c52 0 83 42 89 136l-121 -3s1 43 -1 124c0 0 126 -2 286 -1c10 -286 -97 -385 -263 -385z
" />
    <glyph glyph-name="H" unicode="H" horiz-adv-x="543" 
d="M344 -18c0 0 1 92 0 240c-19 0 -58 1 -144 -1l3 -204s-76 2 -163 -1c0 0 1 264 -4 662c0 0 59 -1 160 1c0 0 1 -129 3 -320c17 0 65 -2 144 -1c0 103 -1 223 -3 354c0 0 68 -1 164 1c0 0 0 -323 3 -732c0 0 -70 3 -163 1z" />
    <glyph glyph-name="I" unicode="I" horiz-adv-x="257" 
d="M48 -1c0 0 1 306 -4 695c0 0 58 0 164 1c0 0 1 -334 5 -696c0 0 -68 1 -165 0z" />
    <glyph glyph-name="J" unicode="J" horiz-adv-x="488" 
d="M231 -13c-147 0 -219 84 -221 235c0 39 5 86 15 125c0 0 41 -6 147 -14c-4 -28 -6 -58 -6 -83c0 -88 24 -119 65 -119c50 0 72 56 73 232c0 109 -11 211 -32 337c0 0 54 3 161 12c20 -114 33 -238 33 -355c0 -243 -70 -370 -235 -370z" />
    <glyph glyph-name="K" unicode="K" horiz-adv-x="551" 
d="M369 -24c-45 122 -80 208 -104 263l-67 -119c1 -70 2 -107 2 -107c-104 1 -164 -1 -164 -1c2 396 0 669 0 669c98 -3 162 -1 162 -1c-1 -135 -1 -247 -1 -343c114 247 172 375 172 375c114 -6 177 -6 177 -6c-81 -160 -137 -276 -165 -335c94 -232 166 -386 166 -386
c-109 -3 -178 -9 -178 -9z" />
    <glyph glyph-name="L" unicode="L" horiz-adv-x="428" 
d="M42 3c0 0 0 314 -6 686c0 0 51 -2 163 0c0 0 -2 -133 4 -546c144 -4 220 -3 220 -3c-2 -88 -1 -141 -1 -141c-190 4 -380 4 -380 4z" />
    <glyph glyph-name="M" unicode="M" horiz-adv-x="737" 
d="M27 16c0 0 15 278 25 661c0 0 112 -1 231 3c0 0 31 -186 80 -407c21 95 55 261 87 441l230 -8s7 -290 30 -720c0 0 -85 -3 -167 -5c0 0 4 249 -6 581c-23 -103 -61 -280 -91 -443c0 0 -81 -1 -165 2c0 0 -34 172 -88 420c-1 -109 -2 -322 1 -529c0 0 -90 2 -167 4z" />
    <glyph glyph-name="N" unicode="N" horiz-adv-x="559" 
d="M39 17c0 0 3 249 -3 655c0 0 71 4 158 7c0 0 74 -189 181 -430c-2 90 -7 256 -19 464c0 0 69 -2 154 -2c0 0 3 -273 13 -718c0 0 -63 -6 -157 -11c0 0 -72 166 -183 421c1 -85 5 -224 12 -388c0 0 -71 2 -156 2z" />
    <glyph glyph-name="O" unicode="O" horiz-adv-x="585" 
d="M293 -18c-178 0 -270 127 -271 362c-2 215 84 366 271 366c188 0 271 -143 270 -365c-1 -260 -105 -363 -270 -363zM293 110c57 0 94 55 94 238c0 165 -33 232 -95 232s-95 -71 -95 -232c0 -172 33 -238 96 -238z" />
    <glyph glyph-name="P" unicode="P" horiz-adv-x="520" 
d="M38 5c0 0 3 258 1 678c53 7 101 10 145 10c224 0 329 -90 329 -266c0 -185 -131 -266 -313 -259l4 -162s-84 1 -166 -1zM197 560c0 -83 -1 -136 1 -269c98 -6 153 28 153 136c0 85 -35 134 -128 134c-8 0 -17 0 -26 -1z" />
    <glyph glyph-name="Q" unicode="Q" horiz-adv-x="586" 
d="M418 -146l-70 134c-18 -4 -38 -6 -58 -6c-165 0 -268 120 -268 357c0 247 102 368 269 368c187 0 273 -114 273 -374c0 -133 -36 -226 -94 -283c53 -64 93 -107 93 -107c-101 -60 -145 -89 -145 -89zM293 107c56 0 95 47 95 232c0 182 -35 239 -96 239
c-63 0 -94 -74 -94 -240c0 -169 35 -231 95 -231z" />
    <glyph glyph-name="R" unicode="R" horiz-adv-x="534" 
d="M364 -22c0 0 -39 99 -107 256c-19 -2 -39 -3 -60 -3l4 -219s-82 1 -163 -1c0 0 4 256 1 677c68 14 130 21 184 21c192 0 297 -85 297 -240c0 -101 -44 -163 -116 -199c22 -49 64 -138 129 -274c0 0 -68 -7 -169 -18zM197 347c103 -6 160 28 160 115
c0 70 -33 116 -115 116c-14 0 -31 -1 -48 -4c1 -135 3 -227 3 -227z" />
    <glyph glyph-name="S" unicode="S" horiz-adv-x="530" 
d="M269 -18c-172 0 -257 94 -252 264c0 0 64 -1 170 1c-4 -92 29 -139 87 -139c42 0 67 21 67 73c0 45 -26 75 -134 114c-130 48 -187 105 -187 219c0 130 93 198 237 198c167 0 251 -95 247 -262c0 0 -70 5 -165 6c7 88 -26 132 -82 132c-43 0 -64 -30 -64 -76
s32 -77 121 -108c164 -56 204 -117 204 -215c0 -146 -104 -207 -249 -207z" />
    <glyph glyph-name="T" unicode="T" horiz-adv-x="468" 
d="M9 547c0 0 0 54 -1 148c0 0 227 0 452 3c0 0 -2 -67 -1 -151c0 0 -62 0 -144 1c0 -115 2 -303 5 -553c0 0 -67 1 -165 -1c0 0 1 217 -2 554z" />
    <glyph glyph-name="U" unicode="U" horiz-adv-x="541" 
d="M272 -14c-176 0 -250 134 -250 399c0 100 9 201 25 299c0 0 49 -8 159 -20c-14 -103 -22 -180 -22 -253c0 -202 32 -273 86 -273c56 0 82 52 82 234c0 98 -10 216 -27 332c0 0 57 2 164 11c19 -116 31 -232 31 -336c0 -263 -72 -393 -248 -393z" />
    <glyph glyph-name="V" unicode="V" horiz-adv-x="527" 
d="M139 -15c-78 411 -137 681 -137 681c100 0 170 2 170 2c33 -242 69 -449 87 -546c60 359 95 579 95 579c103 -2 171 -1 171 -1c-93 -464 -145 -718 -145 -718s-117 0 -241 3z" />
    <glyph glyph-name="W" unicode="W" horiz-adv-x="754" 
d="M440 -26c-31 253 -52 425 -65 523c-53 -330 -75 -481 -75 -481c-168 8 -225 9 -225 9c-30 317 -56 552 -65 654c86 1 165 3 165 3c13 -237 25 -421 33 -525c67 396 81 489 81 489c126 0 174 -2 174 -2c39 -256 67 -429 82 -522c33 461 37 587 37 587
c113 -4 163 -4 163 -4c-55 -519 -71 -723 -71 -723c-156 -8 -234 -8 -234 -8z" />
    <glyph glyph-name="X" unicode="X" horiz-adv-x="569" 
d="M197 12c-133 5 -194 6 -194 6c75 160 121 266 144 320c-20 56 -62 166 -130 337c58 1 120 3 183 6c0 0 23 -84 79 -254c62 187 88 286 88 286c125 -5 185 -5 185 -5l-138 -362c102 -250 151 -355 151 -355c-147 -5 -193 -9 -193 -9l-90 277c-54 -144 -85 -247 -85 -247z
" />
    <glyph glyph-name="Y" unicode="Y" horiz-adv-x="543" 
d="M189 -12c-1 17 1 56 -4 161c0 0 -53 158 -183 526c0 0 43 0 179 6c0 0 27 -118 88 -335c0 0 38 135 99 359c0 0 49 -3 173 -3c0 0 -77 -211 -191 -551c0 0 -2 -24 2 -162c0 0 -41 1 -163 -1z" />
    <glyph glyph-name="Z" unicode="Z" horiz-adv-x="470" 
d="M446 -3c-255 6 -425 6 -425 6c2 94 1 137 1 137c121 193 205 332 251 408c-154 -1 -246 -5 -246 -5c0 109 -1 150 -1 150c273 2 417 6 417 6c3 -87 2 -145 2 -145c-118 -195 -203 -333 -249 -409c138 -3 252 -3 252 -3c-3 -113 -2 -145 -2 -145z" />
    <glyph glyph-name="bracketleft" unicode="[" horiz-adv-x="309" 
d="M291 -127c0 0 -114 4 -242 3c0 0 2 278 -4 869c0 0 89 -1 241 2c0 0 -1 -50 2 -123c0 0 -36 0 -80 -2c0 0 -3 -354 1 -616c0 0 38 -2 86 -2c0 0 -3 -48 -4 -131z" />
    <glyph glyph-name="backslash" unicode="\" horiz-adv-x="385" 
d="M387 -122c0 0 -58 2 -145 0c0 0 -64 245 -244 860c0 0 52 -2 145 0c0 0 111 -411 244 -860z" />
    <glyph glyph-name="bracketright" unicode="]" horiz-adv-x="309" 
d="M20 -126c-1 80 -4 127 -4 130c43 0 79 2 86 2c3 216 0 578 -1 625c-37 2 -73 1 -81 1c2 68 1 120 1 124c142 -3 231 -2 242 -2c-6 -484 -4 -770 -3 -876c-94 1 -229 -4 -240 -4z" />
    <glyph glyph-name="asciicircum" unicode="^" horiz-adv-x="435" 
d="M425 287c0 0 -35 4 -132 3c0 0 -26 107 -76 278c-17 -55 -47 -159 -78 -286c0 0 -42 5 -130 6c0 0 52 140 135 399c0 0 44 -3 146 -1c0 0 43 -139 135 -399z" />
    <glyph glyph-name="underscore" unicode="_" horiz-adv-x="383" 
d="M6 -114c1 89 -1 124 -1 124c168 -3 341 -2 376 -1c-3 -97 -2 -120 -2 -123c-149 2 -345 1 -373 0z" />
    <glyph glyph-name="grave" unicode="`" horiz-adv-x="528" 
d="M290 535c0 0 -29 36 -128 138c0 0 31 20 94 65c0 0 31 -50 109 -153c0 0 -24 -14 -75 -50z" />
    <glyph glyph-name="a" unicode="a" horiz-adv-x="491" 
d="M180 -15c-100 0 -167 55 -167 143c0 112 91 180 287 173c0 0 0 13 -1 23c-3 56 -20 83 -57 83c-39 0 -58 -31 -61 -82c0 0 -58 1 -149 4c4 111 83 187 213 187c150 0 213 -76 216 -212c4 -166 1 -318 1 -318s-48 0 -130 -1c0 0 3 31 4 79c-30 -56 -92 -79 -156 -79z
M307 205v19c-99 3 -134 -34 -134 -80c0 -35 20 -56 57 -56c40 0 77 26 77 117z" />
    <glyph glyph-name="b" unicode="b" horiz-adv-x="530" 
d="M35 -16c0 0 1 218 -2 699c0 0 45 -2 163 -1c0 0 -4 -98 -6 -244c30 48 77 75 136 75c116 0 182 -99 182 -263c0 -169 -83 -258 -200 -258c-66 0 -115 24 -142 70c0 -23 2 -49 3 -77c0 0 -67 0 -134 -1zM264 89c49 0 76 57 76 165c0 89 -24 155 -76 155
c-48 0 -75 -60 -75 -155c0 -110 25 -165 75 -165z" />
    <glyph glyph-name="c" unicode="c" horiz-adv-x="501" 
d="M261 -16c-164 0 -239 101 -239 268c0 159 80 265 236 265c142 0 226 -92 227 -222c-73 2 -166 -2 -166 -2c-2 69 -24 110 -63 110c-46 0 -70 -55 -70 -154c0 -96 24 -144 71 -144c33 -1 60 29 61 105c0 0 49 -4 170 -4c-11 -161 -107 -222 -227 -222z" />
    <glyph glyph-name="d" unicode="d" horiz-adv-x="533" 
d="M497 -20c0 0 -77 2 -137 2c0 0 2 33 3 83c-30 -52 -82 -76 -140 -76c-123 0 -201 89 -201 264c0 157 67 262 194 262c54 0 97 -27 124 -65c-1 56 -3 133 -7 236c0 0 33 -1 165 1c0 0 -3 -318 -1 -707zM266 91c44 0 76 43 76 158c-1 101 -27 160 -77 160
c-47 0 -74 -59 -74 -158c0 -109 29 -160 75 -160z" />
    <glyph glyph-name="e" unicode="e" horiz-adv-x="519" 
d="M267 -16c-181 0 -245 114 -245 270c0 154 85 262 238 262c185 -1 246 -125 238 -304c0 0 -109 -1 -310 -5c6 -80 31 -117 77 -117c36 0 60 26 68 81c0 0 62 -2 166 -5c-29 -120 -115 -182 -232 -182zM263 413c-46 0 -70 -43 -75 -127c39 1 86 2 145 5
c-1 78 -25 122 -70 122z" />
    <glyph glyph-name="f" unicode="f" horiz-adv-x="380" 
d="M363 340c0 0 -49 1 -121 1c-1 -164 2 -339 2 -339s-68 1 -156 -1c0 0 -3 169 -4 340h-69s1 41 0 136c0 0 25 -2 70 -3v12c2 130 49 210 187 210c31 0 67 -4 108 -13c0 0 -5 -43 -9 -129c-21 3 -38 5 -53 5c-58 0 -74 -28 -74 -78v-10l121 -1s-3 -53 -2 -130z" />
    <glyph glyph-name="g" unicode="g" horiz-adv-x="479" 
d="M234 -272c-135 0 -225 42 -225 122c0 50 37 90 104 106c-42 16 -66 47 -66 80c0 37 27 67 72 88c-63 32 -101 93 -101 187c0 130 89 212 223 212c15 0 29 -1 43 -3c7 33 20 93 36 177c0 0 58 -23 155 -55c0 0 -40 -60 -95 -156c54 -36 85 -97 85 -177
c0 -148 -101 -211 -216 -211c-18 0 -35 1 -51 3c-7 -6 -10 -13 -10 -20c0 -15 17 -26 95 -33c151 -14 211 -61 211 -147c0 -117 -128 -173 -260 -173zM241 193c38 0 65 34 65 112c0 67 -22 110 -65 110s-66 -41 -66 -110c0 -76 25 -112 66 -112zM341 -129
c0 30 -29 47 -132 53c-28 -15 -42 -34 -42 -54c0 -32 34 -49 85 -48c54 0 89 19 89 49z" />
    <glyph glyph-name="h" unicode="h" horiz-adv-x="502" 
d="M34 17c0 0 4 290 0 661c0 0 54 0 158 1c0 0 -3 -108 -2 -243c28 48 76 80 142 80c90 0 137 -65 141 -169c5 -169 1 -365 1 -365s-62 2 -159 2c0 0 4 165 1 318c-2 49 -14 75 -50 75c-45 0 -69 -45 -70 -105c-2 -120 0 -254 0 -254s-63 1 -162 -1z" />
    <glyph glyph-name="i" unicode="i" horiz-adv-x="239" 
d="M42 1c0 0 1 133 -3 500c0 0 59 -1 160 1c0 0 -1 -228 3 -500c0 0 -68 1 -160 -1zM121 549c-67 0 -100 30 -100 87c0 52 34 84 100 84s97 -35 97 -84c0 -50 -30 -87 -97 -87z" />
    <glyph glyph-name="j" unicode="j" horiz-adv-x="239" 
d="M121 549c-73 0 -100 39 -100 87c0 50 31 85 99 85c64 0 98 -34 98 -84c0 -58 -37 -88 -97 -88zM-72 -220c0 0 3 42 4 131c12 -1 23 -2 33 -2c56 0 77 25 78 85c3 196 -1 505 -1 505c106 -1 155 1 155 1s7 -215 4 -524c-1 -134 -68 -201 -205 -201c-21 0 -44 2 -68 5z" />
    <glyph glyph-name="k" unicode="k" horiz-adv-x="499" 
d="M325 -21c-36 97 -63 166 -81 208c-22 -33 -39 -59 -50 -77c0 -66 1 -95 1 -95c-100 3 -161 1 -161 1c3 475 0 664 0 664c110 -3 161 -1 161 -1c-1 -177 -2 -304 -2 -403c76 153 113 243 113 243c114 -6 184 -7 184 -7c-66 -100 -108 -170 -132 -211
c86 -200 138 -316 138 -316c-123 -2 -171 -6 -171 -6z" />
    <glyph glyph-name="l" unicode="l" horiz-adv-x="235" 
d="M197 8c-100 2 -160 2 -160 2c4 482 1 677 1 677c110 -2 161 -2 161 -2c-5 -533 -2 -677 -2 -677z" />
    <glyph glyph-name="m" unicode="m" horiz-adv-x="774" 
d="M36 15c0 0 1 198 -3 478c0 0 55 -2 129 -1c0 0 -2 -36 -2 -83c30 62 89 106 160 106c76 0 116 -43 133 -104c30 53 85 87 150 87c105 0 138 -77 141 -169c4 -151 1 -346 1 -346s-60 2 -158 1c0 0 2 167 -2 304c-2 47 -15 75 -47 75c-43 0 -66 -44 -67 -103
c-2 -103 0 -231 0 -231s-73 1 -162 -1c0 0 6 151 2 274c-1 46 -15 74 -47 74c-39 0 -68 -46 -69 -110c-3 -108 1 -250 1 -250s-72 1 -160 -1z" />
    <glyph glyph-name="n" unicode="n" horiz-adv-x="501" 
d="M313 -19c0 0 3 169 1 322c0 46 -12 74 -48 74c-44 0 -69 -44 -71 -102c-2 -73 -1 -260 -1 -260s-87 2 -161 0c0 0 3 191 1 475c0 0 66 -2 127 1c0 0 -2 -40 -1 -80c27 60 87 105 164 104c95 -1 144 -63 147 -170c3 -72 3 -363 3 -363c-50 0 -161 -1 -161 -1z" />
    <glyph glyph-name="o" unicode="o" horiz-adv-x="528" 
d="M262 -13c-157 0 -240 99 -240 272c0 157 92 257 241 257c156 0 243 -103 242 -262c0 -187 -102 -267 -243 -267zM264 95c46 0 75 45 75 160c0 98 -23 153 -74 153c-48 0 -76 -50 -76 -149c0 -117 23 -164 75 -164z" />
    <glyph glyph-name="p" unicode="p" horiz-adv-x="535" 
d="M33 -207c3 347 0 703 0 703c46 -1 139 1 139 1c-1 -30 -2 -46 -2 -65c31 52 82 84 150 84c124 0 193 -118 193 -267c0 -174 -80 -261 -194 -261c-53 0 -101 20 -129 62c4 -183 10 -256 10 -256c-74 3 -167 -1 -167 -1zM271 90c48 0 73 47 73 160c0 103 -26 160 -74 160
c-50 0 -76 -56 -76 -160c0 -110 24 -160 77 -160z" />
    <glyph glyph-name="q" unicode="q" horiz-adv-x="536" 
d="M335 -213c5 123 8 211 9 265c-25 -43 -70 -65 -128 -65c-122 0 -194 97 -194 266c0 160 82 267 196 267c66 0 118 -34 145 -82c-1 48 -3 77 -3 77c109 -2 141 0 141 0c-4 -445 0 -727 0 -727c-110 1 -166 -1 -166 -1zM265 90c48 0 77 53 77 162c0 92 -26 158 -76 158
c-52 0 -76 -67 -76 -157c0 -102 24 -163 75 -163z" />
    <glyph glyph-name="r" unicode="r" horiz-adv-x="360" 
d="M34 -1c0 0 2 253 -1 495c0 0 41 -1 132 1c0 0 -2 -39 -2 -89c31 69 104 112 188 107c0 0 -3 -53 -5 -152c-112 -8 -149 -54 -152 -174c-2 -75 2 -187 2 -187s-54 0 -162 -1z" />
    <glyph glyph-name="s" unicode="s" horiz-adv-x="461" 
d="M240 -21c-138 0 -225 63 -226 199l152 -3c1 -59 26 -86 74 -86c32 0 55 16 55 46c0 29 -18 47 -113 69c-112 26 -162 77 -162 165c0 89 75 153 206 153c143 0 215 -82 217 -196c0 0 -54 1 -147 -2c-1 52 -24 86 -67 86c-38 0 -55 -21 -55 -44c0 -32 22 -51 106 -72
c134 -33 170 -79 170 -155c0 -111 -91 -160 -210 -160z" />
    <glyph glyph-name="t" unicode="t" horiz-adv-x="384" 
d="M369 16c-46 -12 -88 -19 -125 -19c-102 0 -169 52 -171 184c-1 67 -1 133 -1 195h-65c1 99 -1 130 -1 130c23 -1 46 -1 67 -1c1 77 2 129 2 129c96 -1 157 0 157 0s-2 -54 -3 -131h131c-3 -104 -1 -128 -1 -128c-47 1 -87 1 -130 1c0 -54 0 -109 2 -163
c1 -48 22 -70 69 -70c16 0 35 3 58 9c6 -84 11 -136 11 -136z" />
    <glyph glyph-name="u" unicode="u" 
d="M200 -4c-122 0 -172 83 -172 295c0 69 4 140 13 210c0 0 39 -6 151 -11c-6 -55 -8 -115 -8 -161c0 -160 19 -202 63 -202c32 0 60 33 62 104c4 140 -3 286 -3 286s41 -2 161 -2c0 0 -3 -218 1 -528c0 0 -43 2 -133 1c0 0 1 36 2 84c-31 -51 -82 -76 -137 -76z" />
    <glyph glyph-name="v" unicode="v" horiz-adv-x="473" 
d="M348 5c-141 1 -220 0 -220 0l-127 480c102 2 165 6 165 6c46 -268 69 -370 69 -370c61 297 76 399 76 399c112 -5 161 -4 161 -4c-86 -358 -124 -511 -124 -511z" />
    <glyph glyph-name="w" unicode="w" horiz-adv-x="708" 
d="M412 -8c-40 232 -63 347 -63 347c-46 -229 -59 -325 -59 -325c-151 2 -205 3 -205 3c-52 309 -82 473 -82 473c93 0 158 4 158 4c26 -260 41 -351 41 -351c47 234 71 360 71 360h152c56 -291 78 -371 78 -371l43 391c108 -4 159 -3 159 -3c-63 -350 -88 -526 -88 -526
c-133 1 -205 -2 -205 -2z" />
    <glyph glyph-name="x" unicode="x" horiz-adv-x="519" 
d="M5 10c68 126 109 206 127 243c-78 162 -119 239 -119 239c111 -2 174 2 174 2c31 -85 54 -142 69 -177c55 136 81 202 81 202c117 -6 169 -6 169 -6c-71 -137 -112 -223 -129 -260c88 -178 137 -268 137 -268c-116 2 -174 -2 -174 -2c-37 89 -66 156 -85 199
c-50 -113 -69 -172 -69 -172c-126 3 -181 0 -181 0z" />
    <glyph glyph-name="y" unicode="y" horiz-adv-x="486" 
d="M287 -231c-123 19 -161 23 -161 23c32 114 43 166 43 166c-102 337 -167 525 -167 525c112 2 172 9 172 9c41 -215 73 -346 73 -346c52 250 71 375 71 375c107 -7 167 -8 167 -8c-159 -588 -198 -744 -198 -744z" />
    <glyph glyph-name="z" unicode="z" horiz-adv-x="434" 
d="M412 -1c-299 10 -391 8 -391 8c3 74 1 106 1 106c152 192 201 260 201 260c-149 -2 -193 -7 -193 -7c0 99 -3 135 -3 135c265 0 381 5 381 5c-1 -81 2 -112 2 -112c-144 -178 -201 -264 -201 -264c140 -3 205 0 205 0c-4 -100 -2 -131 -2 -131z" />
    <glyph glyph-name="braceleft" unicode="{" horiz-adv-x="347" 
d="M330 -121c-33 -8 -67 -13 -97 -13c-102 0 -141 46 -141 152l6 138c0 68 -19 98 -90 95c0 0 2 60 2 139c67 -5 87 16 87 74c0 46 -9 110 -9 161c0 90 47 130 142 130c30 0 64 -5 95 -13c-1 -89 2 -121 2 -121c-63 7 -81 -6 -81 -55c0 -40 8 -95 8 -138
c0 -59 -20 -91 -77 -108c58 -20 74 -58 74 -122l-5 -127c0 -60 16 -75 83 -68c-1 -88 1 -124 1 -124z" />
    <glyph glyph-name="bar" unicode="|" horiz-adv-x="249" 
d="M54 -123c0 0 2 441 -3 863c0 0 48 -4 146 -3c0 0 -4 -364 -1 -859c0 0 -48 2 -142 -1z" />
    <glyph glyph-name="braceright" unicode="}" horiz-adv-x="346" 
d="M16 -126c0 4 3 36 1 121c65 -8 87 6 87 61c-1 42 -8 101 -8 148c0 62 22 99 79 115c-57 15 -82 46 -82 113c0 47 8 96 8 135c0 48 -22 60 -82 55c0 3 4 38 3 124c28 6 58 10 86 10c110 0 150 -44 150 -131c0 -52 -10 -110 -10 -156c0 -61 20 -83 89 -79
c-1 -75 1 -132 1 -136c-68 4 -90 -20 -90 -87l9 -165c0 -96 -41 -142 -143 -141c-30 0 -64 4 -98 13z" />
    <glyph glyph-name="asciitilde" unicode="~" horiz-adv-x="420" 
d="M104 519c0 0 -39 3 -91 8c-6 126 43 185 118 185c72 0 115 -77 152 -77c21 0 33 15 35 75c0 0 33 -4 90 -6c4 -127 -39 -185 -112 -185c-71 0 -119 73 -158 73c-23 0 -34 -15 -34 -73z" />
    <glyph glyph-name="Adieresis" unicode="&#xc4;" horiz-adv-x="545" 
d="M2 17c0 0 61 274 146 681c129 5 241 4 241 4s71 -343 154 -719c0 0 -85 1 -172 -1c0 0 -9 48 -24 137c-36 1 -91 2 -165 2c-6 -35 -11 -70 -16 -106c0 0 -75 3 -164 2zM264 586c-10 -54 -35 -181 -62 -342h123c-16 91 -36 205 -61 342zM176 757c-48 0 -70 33 -70 70
c0 40 30 67 70 67c45 0 70 -29 70 -68c0 -49 -34 -69 -70 -69zM355 760c-40 0 -67 27 -67 70c0 37 24 65 69 65c44 0 65 -31 65 -67c0 -45 -29 -68 -67 -68z" />
    <glyph glyph-name="Aring" unicode="&#xc5;" horiz-adv-x="545" 
d="M2 17c0 0 61 274 146 681c129 5 241 4 241 4s71 -343 154 -719c0 0 -85 1 -172 -1c0 0 -9 48 -24 137c-36 1 -91 2 -165 2c-6 -35 -11 -70 -16 -106c0 0 -75 3 -164 2zM264 586c-10 -54 -35 -181 -62 -342h123c-16 91 -36 205 -61 342zM268 744c-73 0 -110 45 -110 101
c0 61 47 97 111 97c74 0 112 -45 112 -97c0 -73 -53 -101 -113 -101zM271 798c26 0 42 19 42 47c0 23 -13 47 -42 47c-28 0 -44 -20 -44 -47s15 -47 44 -47z" />
    <glyph glyph-name="Ccedilla" unicode="&#xc7;" horiz-adv-x="566" 
d="M553 289c-3 -203 -90 -292 -227 -304v-34c70 -1 107 -32 107 -75c0 -54 -53 -89 -142 -89c-30 0 -68 7 -97 20c0 0 6 26 11 62c27 -13 56 -20 81 -20c27 0 46 9 46 26c0 18 -22 30 -87 24c0 0 8 34 16 86c-154 12 -239 123 -239 361c0 237 91 366 273 366
c169 0 243 -121 249 -284c-119 -4 -175 -3 -175 -3c-5 109 -32 154 -81 154c-63 0 -91 -75 -90 -231c0 -163 30 -231 93 -231c49 0 82 38 84 174c106 0 178 -2 178 -2z" />
    <glyph glyph-name="Eacute" unicode="&#xc9;" horiz-adv-x="459" 
d="M251 738c-50 36 -74 50 -74 50c78 103 109 153 109 153c62 -45 94 -65 94 -65c-99 -102 -129 -138 -129 -138zM44 4c0 0 -1 286 -8 690c0 0 141 2 398 5c0 0 0 -53 2 -140c0 0 -101 -1 -238 -4c0 0 -1 -58 1 -154c26 0 89 -1 199 2c0 0 -1 -47 1 -131c0 0 -76 2 -198 0
c1 -41 2 -86 4 -133c0 0 87 -4 235 -6c0 0 -2 -48 -1 -138c0 0 -183 7 -395 9z" />
    <glyph glyph-name="Ntilde" unicode="&#xd1;" horiz-adv-x="559" 
d="M39 17c0 0 3 249 -3 655c0 0 71 4 158 7c0 0 74 -189 181 -430c-2 90 -7 256 -19 464c0 0 69 -2 154 -2c0 0 3 -273 13 -718c0 0 -63 -6 -157 -11c0 0 -72 166 -183 421c1 -85 5 -224 12 -388c0 0 -71 2 -156 2zM201 758c0 0 -28 1 -84 -2c-5 89 30 151 93 151
c57 0 93 -53 126 -53c18 0 25 16 21 50c0 0 23 -1 79 5c15 -95 -17 -151 -84 -151c-57 0 -93 48 -126 48c-19 0 -27 -15 -25 -48z" />
    <glyph glyph-name="Odieresis" unicode="&#xd6;" horiz-adv-x="585" 
d="M204 756c-48 0 -70 33 -70 70c0 40 30 67 70 67c45 0 70 -29 70 -68c0 -49 -34 -69 -70 -69zM383 759c-40 0 -67 27 -67 70c0 37 24 65 69 65c44 0 65 -31 65 -67c0 -45 -29 -68 -67 -68zM293 -18c-178 0 -270 127 -271 362c-2 215 84 366 271 366
c188 0 271 -143 270 -365c-1 -260 -105 -363 -270 -363zM293 110c57 0 94 55 94 238c0 165 -33 232 -95 232s-95 -71 -95 -232c0 -172 33 -238 96 -238z" />
    <glyph glyph-name="Udieresis" unicode="&#xdc;" horiz-adv-x="541" 
d="M182 754c-48 0 -70 33 -70 70c0 40 30 67 70 67c45 0 70 -29 70 -68c0 -49 -34 -69 -70 -69zM361 757c-40 0 -67 27 -67 70c0 37 24 65 69 65c44 0 65 -31 65 -67c0 -45 -29 -68 -67 -68zM272 -14c-176 0 -250 134 -250 399c0 100 9 201 25 299c0 0 49 -8 159 -20
c-14 -103 -22 -180 -22 -253c0 -202 32 -273 86 -273c56 0 82 52 82 234c0 98 -10 216 -27 332c0 0 57 2 164 11c19 -116 31 -232 31 -336c0 -263 -72 -393 -248 -393z" />
    <glyph glyph-name="aacute" unicode="&#xe1;" horiz-adv-x="491" 
d="M180 -15c-100 0 -167 55 -167 143c0 112 91 180 287 173c0 0 0 13 -1 23c-3 56 -20 83 -57 83c-39 0 -58 -31 -61 -82c0 0 -58 1 -149 4c4 111 83 187 213 187c150 0 213 -76 216 -212c4 -166 1 -318 1 -318s-48 0 -130 -1c0 0 3 31 4 79c-30 -56 -92 -79 -156 -79z
M307 205v19c-99 3 -134 -34 -134 -80c0 -35 20 -56 57 -56c40 0 77 26 77 117zM257 541c-50 36 -74 50 -74 50c78 103 109 153 109 153c62 -45 94 -65 94 -65c-99 -102 -129 -138 -129 -138z" />
    <glyph glyph-name="agrave" unicode="&#xe0;" horiz-adv-x="491" 
d="M180 -15c-100 0 -167 55 -167 143c0 112 91 180 287 173c0 0 0 13 -1 23c-3 56 -20 83 -57 83c-39 0 -58 -31 -61 -82c0 0 -58 1 -149 4c4 111 83 187 213 187c150 0 213 -76 216 -212c4 -166 1 -318 1 -318s-48 0 -130 -1c0 0 3 31 4 79c-30 -56 -92 -79 -156 -79z
M307 205v19c-99 3 -134 -34 -134 -80c0 -35 20 -56 57 -56c40 0 77 26 77 117zM242 541c0 0 -29 36 -128 138c0 0 31 20 94 65c0 0 31 -50 109 -153c0 0 -24 -14 -75 -50z" />
    <glyph glyph-name="acircumflex" unicode="&#xe2;" horiz-adv-x="491" 
d="M180 -15c-100 0 -167 55 -167 143c0 112 91 180 287 173c0 0 0 13 -1 23c-3 56 -20 83 -57 83c-39 0 -58 -31 -61 -82c0 0 -58 1 -149 4c4 111 83 187 213 187c150 0 213 -76 216 -212c4 -166 1 -318 1 -318s-48 0 -130 -1c0 0 3 31 4 79c-30 -56 -92 -79 -156 -79z
M307 205v19c-99 3 -134 -34 -134 -80c0 -35 20 -56 57 -56c40 0 77 26 77 117zM144 538c0 0 -19 20 -62 60c0 0 41 37 112 111c0 0 28 0 97 6c0 0 35 -38 118 -111c0 0 -20 -18 -62 -65c0 0 -34 35 -104 90c0 0 -33 -26 -99 -91z" />
    <glyph glyph-name="adieresis" unicode="&#xe4;" horiz-adv-x="491" 
d="M180 -15c-100 0 -167 55 -167 143c0 112 91 180 287 173c0 0 0 13 -1 23c-3 56 -20 83 -57 83c-39 0 -58 -31 -61 -82c0 0 -58 1 -149 4c4 111 83 187 213 187c150 0 213 -76 216 -212c4 -166 1 -318 1 -318s-48 0 -130 -1c0 0 3 31 4 79c-30 -56 -92 -79 -156 -79z
M307 205v19c-99 3 -134 -34 -134 -80c0 -35 20 -56 57 -56c40 0 77 26 77 117zM157 558c-48 0 -70 33 -70 70c0 40 30 67 70 67c45 0 70 -29 70 -68c0 -49 -34 -69 -70 -69zM336 561c-40 0 -67 27 -67 70c0 37 24 65 69 65c44 0 65 -31 65 -67c0 -45 -29 -68 -67 -68z" />
    <glyph glyph-name="atilde" unicode="&#xe3;" horiz-adv-x="491" 
d="M180 -15c-100 0 -167 55 -167 143c0 112 91 180 287 173c0 0 0 13 -1 23c-3 56 -20 83 -57 83c-39 0 -58 -31 -61 -82c0 0 -58 1 -149 4c4 111 83 187 213 187c150 0 213 -76 216 -212c4 -166 1 -318 1 -318s-48 0 -130 -1c0 0 3 31 4 79c-30 -56 -92 -79 -156 -79z
M307 205v19c-99 3 -134 -34 -134 -80c0 -35 20 -56 57 -56c40 0 77 26 77 117zM168 556c0 0 -28 1 -84 -2c-5 89 30 151 93 151c57 0 93 -53 126 -53c18 0 25 16 21 50c0 0 23 -1 79 5c15 -95 -17 -151 -84 -151c-57 0 -93 48 -126 48c-19 0 -27 -15 -25 -48z" />
    <glyph glyph-name="aring" unicode="&#xe5;" horiz-adv-x="491" 
d="M180 -15c-100 0 -167 55 -167 143c0 112 91 180 287 173c0 0 0 13 -1 23c-3 56 -20 83 -57 83c-39 0 -58 -31 -61 -82c0 0 -58 1 -149 4c4 111 83 187 213 187c150 0 213 -76 216 -212c4 -166 1 -318 1 -318s-48 0 -130 -1c0 0 3 31 4 79c-30 -56 -92 -79 -156 -79z
M307 205v19c-99 3 -134 -34 -134 -80c0 -35 20 -56 57 -56c40 0 77 26 77 117zM246 548c-73 0 -110 45 -110 101c0 61 47 97 111 97c74 0 112 -45 112 -97c0 -73 -53 -101 -113 -101zM249 602c26 0 42 19 42 47c0 23 -13 47 -42 47c-28 0 -44 -20 -44 -47s15 -47 44 -47z
" />
    <glyph glyph-name="ccedilla" unicode="&#xe7;" horiz-adv-x="501" 
d="M488 206c-10 -148 -92 -211 -199 -221v-34c70 -1 107 -32 107 -75c0 -54 -53 -89 -142 -89c-30 0 -68 7 -97 20c0 0 6 26 11 62c27 -13 56 -20 81 -20c27 0 46 9 46 26c0 18 -22 30 -87 24c0 0 8 35 16 87c-138 14 -202 112 -202 266c0 159 80 265 236 265
c142 0 226 -92 227 -222c-73 2 -166 -2 -166 -2c-2 69 -24 110 -63 110c-46 0 -70 -55 -70 -154c0 -96 24 -144 71 -144c33 -1 60 29 61 105c0 0 49 -4 170 -4z" />
    <glyph glyph-name="eacute" unicode="&#xe9;" horiz-adv-x="519" 
d="M273 545c-50 36 -74 50 -74 50c78 103 109 153 109 153c62 -45 94 -65 94 -65c-99 -102 -129 -138 -129 -138zM267 -16c-181 0 -245 114 -245 270c0 154 85 262 238 262c185 -1 246 -125 238 -304c0 0 -109 -1 -310 -5c6 -80 31 -117 77 -117c36 0 60 26 68 81
c0 0 62 -2 166 -5c-29 -120 -115 -182 -232 -182zM263 413c-46 0 -70 -43 -75 -127c39 1 86 2 145 5c-1 78 -25 122 -70 122z" />
    <glyph glyph-name="egrave" unicode="&#xe8;" horiz-adv-x="519" 
d="M267 -16c-181 0 -245 114 -245 270c0 154 85 262 238 262c185 -1 246 -125 238 -304c0 0 -109 -1 -310 -5c6 -80 31 -117 77 -117c36 0 60 26 68 81c0 0 62 -2 166 -5c-29 -120 -115 -182 -232 -182zM263 413c-46 0 -70 -43 -75 -127c39 1 86 2 145 5
c-1 78 -25 122 -70 122zM258 545c0 0 -29 36 -128 138c0 0 31 20 94 65c0 0 31 -50 109 -153c0 0 -24 -14 -75 -50z" />
    <glyph glyph-name="ecircumflex" unicode="&#xea;" horiz-adv-x="519" 
d="M160 538c0 0 -19 20 -62 60c0 0 41 37 112 111c0 0 28 0 97 6c0 0 35 -38 118 -111c0 0 -20 -18 -62 -65c0 0 -34 35 -104 90c0 0 -33 -26 -99 -91zM267 -16c-181 0 -245 114 -245 270c0 154 85 262 238 262c185 -1 246 -125 238 -304c0 0 -109 -1 -310 -5
c6 -80 31 -117 77 -117c36 0 60 26 68 81c0 0 62 -2 166 -5c-29 -120 -115 -182 -232 -182zM263 413c-46 0 -70 -43 -75 -127c39 1 86 2 145 5c-1 78 -25 122 -70 122z" />
    <glyph glyph-name="edieresis" unicode="&#xeb;" horiz-adv-x="519" 
d="M173 559c-48 0 -70 33 -70 70c0 40 30 67 70 67c45 0 70 -29 70 -68c0 -49 -34 -69 -70 -69zM352 562c-40 0 -67 27 -67 70c0 37 24 65 69 65c44 0 65 -31 65 -67c0 -45 -29 -68 -67 -68zM267 -16c-181 0 -245 114 -245 270c0 154 85 262 238 262
c185 -1 246 -125 238 -304c0 0 -109 -1 -310 -5c6 -80 31 -117 77 -117c36 0 60 26 68 81c0 0 62 -2 166 -5c-29 -120 -115 -182 -232 -182zM263 413c-46 0 -70 -43 -75 -127c39 1 86 2 145 5c-1 78 -25 122 -70 122z" />
    <glyph glyph-name="iacute" unicode="&#xed;" horiz-adv-x="239" 
d="M134 544c-50 36 -74 50 -74 50c78 103 109 153 109 153c62 -45 94 -65 94 -65c-99 -102 -129 -138 -129 -138zM42 1c0 0 1 133 -3 500c0 0 59 -1 160 1c0 0 -1 -228 3 -500c0 0 -68 1 -160 -1z" />
    <glyph glyph-name="igrave" unicode="&#xec;" horiz-adv-x="239" 
d="M42 1c0 0 1 133 -3 500c0 0 59 -1 160 1c0 0 -1 -228 3 -500c0 0 -68 1 -160 -1zM118 544c0 0 -29 36 -128 138c0 0 31 20 94 65c0 0 31 -50 109 -153c0 0 -24 -14 -75 -50z" />
    <glyph glyph-name="icircumflex" unicode="&#xee;" horiz-adv-x="239" 
d="M20 541c0 0 -19 20 -62 60c0 0 41 37 112 111c0 0 28 0 97 6c0 0 35 -38 118 -111c0 0 -20 -18 -62 -65c0 0 -34 35 -104 90c0 0 -33 -26 -99 -91zM42 1c0 0 1 133 -3 500c0 0 59 -1 160 1c0 0 -1 -228 3 -500c0 0 -68 1 -160 -1z" />
    <glyph glyph-name="idieresis" unicode="&#xef;" horiz-adv-x="239" 
d="M33 565c-48 0 -70 33 -70 70c0 40 30 67 70 67c45 0 70 -29 70 -68c0 -49 -34 -69 -70 -69zM212 568c-40 0 -67 27 -67 70c0 37 24 65 69 65c44 0 65 -31 65 -67c0 -45 -29 -68 -67 -68zM42 1c0 0 1 133 -3 500c0 0 59 -1 160 1c0 0 -1 -228 3 -500c0 0 -68 1 -160 -1z
" />
    <glyph glyph-name="ntilde" unicode="&#xf1;" horiz-adv-x="501" 
d="M313 -19c0 0 3 169 1 322c0 46 -12 74 -48 74c-44 0 -69 -44 -71 -102c-2 -73 -1 -260 -1 -260s-87 2 -161 0c0 0 3 191 1 475c0 0 66 -2 127 1c0 0 -2 -40 -1 -80c27 60 87 105 164 104c95 -1 144 -63 147 -170c3 -72 3 -363 3 -363c-50 0 -161 -1 -161 -1zM182 554
c0 0 -28 1 -84 -2c-5 89 30 151 93 151c57 0 93 -53 126 -53c18 0 25 16 21 50c0 0 23 -1 79 5c15 -95 -17 -151 -84 -151c-57 0 -93 48 -126 48c-19 0 -27 -15 -25 -48z" />
    <glyph glyph-name="oacute" unicode="&#xf3;" horiz-adv-x="528" 
d="M276 542c-50 36 -74 50 -74 50c78 103 109 153 109 153c62 -45 94 -65 94 -65c-99 -102 -129 -138 -129 -138zM262 -13c-157 0 -240 99 -240 272c0 157 92 257 241 257c156 0 243 -103 242 -262c0 -187 -102 -267 -243 -267zM264 95c46 0 75 45 75 160
c0 98 -23 153 -74 153c-48 0 -76 -50 -76 -149c0 -117 23 -164 75 -164z" />
    <glyph glyph-name="ograve" unicode="&#xf2;" horiz-adv-x="528" 
d="M262 -13c-157 0 -240 99 -240 272c0 157 92 257 241 257c156 0 243 -103 242 -262c0 -187 -102 -267 -243 -267zM264 95c46 0 75 45 75 160c0 98 -23 153 -74 153c-48 0 -76 -50 -76 -149c0 -117 23 -164 75 -164zM261 542c0 0 -29 36 -128 138c0 0 31 20 94 65
c0 0 31 -50 109 -153c0 0 -24 -14 -75 -50z" />
    <glyph glyph-name="ocircumflex" unicode="&#xf4;" horiz-adv-x="528" 
d="M163 538c0 0 -19 20 -62 60c0 0 41 37 112 111c0 0 28 0 97 6c0 0 35 -38 118 -111c0 0 -20 -18 -62 -65c0 0 -34 35 -104 90c0 0 -33 -26 -99 -91zM262 -13c-157 0 -240 99 -240 272c0 157 92 257 241 257c156 0 243 -103 242 -262c0 -187 -102 -267 -243 -267zM264 95
c46 0 75 45 75 160c0 98 -23 153 -74 153c-48 0 -76 -50 -76 -149c0 -117 23 -164 75 -164z" />
    <glyph glyph-name="odieresis" unicode="&#xf6;" horiz-adv-x="528" 
d="M176 560c-48 0 -70 33 -70 70c0 40 30 67 70 67c45 0 70 -29 70 -68c0 -49 -34 -69 -70 -69zM355 563c-40 0 -67 27 -67 70c0 37 24 65 69 65c44 0 65 -31 65 -67c0 -45 -29 -68 -67 -68zM262 -13c-157 0 -240 99 -240 272c0 157 92 257 241 257c156 0 243 -103 242 -262
c0 -187 -102 -267 -243 -267zM264 95c46 0 75 45 75 160c0 98 -23 153 -74 153c-48 0 -76 -50 -76 -149c0 -117 23 -164 75 -164z" />
    <glyph glyph-name="otilde" unicode="&#xf5;" horiz-adv-x="528" 
d="M262 -13c-157 0 -240 99 -240 272c0 157 92 257 241 257c156 0 243 -103 242 -262c0 -187 -102 -267 -243 -267zM264 95c46 0 75 45 75 160c0 98 -23 153 -74 153c-48 0 -76 -50 -76 -149c0 -117 23 -164 75 -164zM187 556c0 0 -28 1 -84 -2c-5 89 30 151 93 151
c57 0 93 -53 126 -53c18 0 25 16 21 50c0 0 23 -1 79 5c15 -95 -17 -151 -84 -151c-57 0 -93 48 -126 48c-19 0 -27 -15 -25 -48z" />
    <glyph glyph-name="uacute" unicode="&#xfa;" 
d="M260 541c-50 36 -74 50 -74 50c78 103 109 153 109 153c62 -45 94 -65 94 -65c-99 -102 -129 -138 -129 -138zM200 -4c-122 0 -172 83 -172 295c0 69 4 140 13 210c0 0 39 -6 151 -11c-6 -55 -8 -115 -8 -161c0 -160 19 -202 63 -202c32 0 60 33 62 104
c4 140 -3 286 -3 286s41 -2 161 -2c0 0 -3 -218 1 -528c0 0 -43 2 -133 1c0 0 1 36 2 84c-31 -51 -82 -76 -137 -76z" />
    <glyph glyph-name="ugrave" unicode="&#xf9;" 
d="M200 -4c-122 0 -172 83 -172 295c0 69 4 140 13 210c0 0 39 -6 151 -11c-6 -55 -8 -115 -8 -161c0 -160 19 -202 63 -202c32 0 60 33 62 104c4 140 -3 286 -3 286s41 -2 161 -2c0 0 -3 -218 1 -528c0 0 -43 2 -133 1c0 0 1 36 2 84c-31 -51 -82 -76 -137 -76zM245 541
c0 0 -29 36 -128 138c0 0 31 20 94 65c0 0 31 -50 109 -153c0 0 -24 -14 -75 -50z" />
    <glyph glyph-name="ucircumflex" unicode="&#xfb;" 
d="M147 538c0 0 -19 20 -62 60c0 0 41 37 112 111c0 0 28 0 97 6c0 0 35 -38 118 -111c0 0 -20 -18 -62 -65c0 0 -34 35 -104 90c0 0 -33 -26 -99 -91zM200 -4c-122 0 -172 83 -172 295c0 69 4 140 13 210c0 0 39 -6 151 -11c-6 -55 -8 -115 -8 -161c0 -160 19 -202 63 -202
c32 0 60 33 62 104c4 140 -3 286 -3 286s41 -2 161 -2c0 0 -3 -218 1 -528c0 0 -43 2 -133 1c0 0 1 36 2 84c-31 -51 -82 -76 -137 -76z" />
    <glyph glyph-name="udieresis" unicode="&#xfc;" 
d="M160 561c-48 0 -70 33 -70 70c0 40 30 67 70 67c45 0 70 -29 70 -68c0 -49 -34 -69 -70 -69zM339 564c-40 0 -67 27 -67 70c0 37 24 65 69 65c44 0 65 -31 65 -67c0 -45 -29 -68 -67 -68zM200 -4c-122 0 -172 83 -172 295c0 69 4 140 13 210c0 0 39 -6 151 -11
c-6 -55 -8 -115 -8 -161c0 -160 19 -202 63 -202c32 0 60 33 62 104c4 140 -3 286 -3 286s41 -2 161 -2c0 0 -3 -218 1 -528c0 0 -43 2 -133 1c0 0 1 36 2 84c-31 -51 -82 -76 -137 -76z" />
    <glyph glyph-name="dagger" unicode="&#x2020;" horiz-adv-x="311" 
d="M12 500c0 0 2 28 1 104c0 0 30 -1 88 -2v101s28 -1 109 2c0 0 -1 -48 -1 -104h89s-1 -34 1 -104c0 0 -33 1 -90 2c0 -73 1 -154 3 -248c0 0 -36 3 -114 2c0 0 2 98 3 247h-89z" />
    <glyph glyph-name="degree" unicode="&#xb0;" horiz-adv-x="303" 
d="M154 418c-79 0 -145 49 -145 151c0 78 49 141 141 141c95 0 145 -57 145 -141c0 -92 -52 -151 -141 -151zM153 489c36 0 58 28 58 77c0 41 -19 75 -59 75c-39 0 -59 -36 -59 -75c0 -45 22 -77 60 -77z" />
    <glyph glyph-name="cent" unicode="&#xa2;" horiz-adv-x="498" 
d="M181 -44c4 45 5 81 6 102c-107 27 -172 124 -172 293c0 160 55 264 172 290c-2 59 -7 107 -7 107c88 -1 153 2 153 2l-8 -111c104 -28 157 -115 156 -235c-111 1 -165 -3 -165 -3c-3 81 -23 126 -66 126c-52 0 -71 -61 -71 -168c0 -138 27 -183 75 -183
c39 0 64 36 63 127c0 0 57 -3 167 -3c-6 -148 -64 -220 -158 -242c2 -62 5 -102 5 -102c-92 2 -150 0 -150 0z" />
    <glyph glyph-name="sterling" unicode="&#xa3;" horiz-adv-x="539" 
d="M22 246c2 73 -1 126 -1 126c17 0 50 -1 50 -1c-15 43 -32 86 -32 138c0 123 87 205 242 205c179 0 254 -122 244 -286c0 0 -62 0 -171 -2c5 107 -22 153 -70 153c-46 0 -71 -31 -71 -93c0 -45 14 -80 26 -115c121 0 194 2 194 2c-1 -77 2 -131 2 -131
c-64 1 -123 3 -176 3c-6 -41 -23 -76 -47 -103c45 -1 142 -3 306 1c0 0 -4 -45 -3 -149c0 0 -173 6 -490 7c0 0 2 62 1 128c37 27 62 68 67 117h-71z" />
    <glyph glyph-name="section" unicode="&#xa7;" horiz-adv-x="526" 
d="M273 -174c-159 0 -259 80 -258 244c110 -6 169 -5 169 -5c-3 -73 27 -114 87 -114c45 0 74 24 74 66c0 129 -333 25 -333 236c0 57 41 101 99 117c-60 30 -90 88 -90 153c0 115 89 190 233 190c157 0 245 -85 244 -243c-120 9 -162 6 -162 6c4 73 -25 109 -76 109
c-47 0 -71 -27 -71 -66c0 -130 326 -40 326 -237c0 -54 -36 -100 -83 -125c51 -24 82 -69 83 -133c0 -121 -99 -198 -242 -198zM182 275c0 -41 29 -61 134 -77c19 15 30 36 30 57c0 43 -32 65 -119 78c-29 -13 -45 -35 -45 -58z" />
    <glyph glyph-name="bullet" unicode="&#x2022;" horiz-adv-x="268" 
d="M136 218c-77 0 -119 53 -119 130c0 78 47 127 117 127c74 0 118 -57 118 -126c0 -83 -45 -131 -116 -131z" />
    <glyph glyph-name="paragraph" unicode="&#xb6;" horiz-adv-x="526" 
d="M333 568c-17 -1 -33 -3 -48 -6c-2 -102 -4 -307 -3 -507c-160 10 -268 119 -268 321c0 212 122 323 353 323c36 0 75 -3 116 -9c0 0 -3 -314 7 -846c0 0 -46 4 -162 4c0 0 4 483 5 720z" />
    <glyph glyph-name="germandbls" unicode="&#xdf;" horiz-adv-x="531" 
d="M39 18c-9 148 -9 299 3 436c16 165 88 247 250 247c135 0 221 -76 221 -196c0 -82 -48 -138 -116 -161c80 -23 118 -87 118 -164c0 -138 -89 -194 -221 -194c-18 0 -36 1 -55 3c0 0 2 32 4 112c60 -3 105 19 105 89c0 59 -35 91 -104 93c0 0 2 32 -1 116
c68 0 105 26 105 94c0 56 -22 87 -65 87c-52 0 -75 -42 -82 -119c-12 -123 -12 -262 0 -445c-108 -1 -162 2 -162 2z" />
    <glyph glyph-name="registered" unicode="&#xae;" horiz-adv-x="392" 
d="M199 275c-138 0 -189 81 -189 220c0 129 51 219 183 219c143 0 189 -98 189 -224c0 -148 -67 -215 -183 -215zM200 314c89 0 139 49 139 171c0 123 -39 190 -149 190c-96 0 -138 -60 -138 -183c0 -117 33 -178 148 -178zM224 357c0 0 -8 34 -26 89c0 0 -12 -1 -22 -1
c0 -16 0 -42 3 -83c0 0 -26 1 -75 0c0 0 2 100 2 269c26 5 50 7 72 7c80 0 123 -32 123 -98c0 -36 -15 -61 -40 -76c5 -15 15 -43 36 -94c0 0 -29 -4 -73 -13zM177 492c29 -2 45 11 45 44s-14 48 -46 45c-1 -57 1 -89 1 -89z" />
    <glyph glyph-name="copyright" unicode="&#xa9;" horiz-adv-x="647" 
d="M323 91c-122 0 -188 70 -188 251c0 168 73 251 194 251c116 0 178 -79 174 -201c-65 3 -127 2 -127 2c-1 71 -17 104 -51 104c-41 0 -59 -44 -59 -158c0 -117 20 -153 58 -153c33 0 53 26 53 115c72 -1 127 1 127 1c3 -169 -92 -212 -181 -212zM316 -21
c-192 0 -294 118 -294 372c0 221 100 359 310 359c197 0 293 -138 293 -363c0 -291 -137 -368 -309 -368zM321 30c127 0 248 56 248 315c0 196 -70 313 -240 313c-173 0 -251 -117 -251 -314c0 -209 80 -314 243 -314z" />
    <glyph glyph-name="trademark" unicode="&#x2122;" horiz-adv-x="569" 
d="M219 395c0 0 7 104 11 276c0 0 53 -2 123 2c0 0 12 -76 31 -169c7 43 17 111 28 191c0 0 61 -4 124 -4c0 0 3 -119 17 -315c0 0 -42 0 -87 -3c0 0 -2 104 -8 248c-8 -42 -19 -108 -29 -185c0 0 -52 0 -87 2c0 0 -10 62 -36 179c0 -44 0 -131 3 -224c0 0 -36 2 -90 2z
M6 613c0 0 1 26 1 79c0 0 73 -1 205 3c0 0 -2 -35 -1 -82c0 0 -23 0 -56 1c0 -49 0 -114 3 -237c0 0 -36 2 -90 0c0 0 2 94 1 237z" />
    <glyph glyph-name="acute" unicode="&#xb4;" horiz-adv-x="528" 
d="M237 535c-50 36 -74 50 -74 50c78 103 109 153 109 153c62 -45 94 -65 94 -65c-99 -102 -129 -138 -129 -138z" />
    <glyph glyph-name="dieresis" unicode="&#xa8;" horiz-adv-x="528" 
d="M176 556c-48 0 -70 33 -70 70c0 40 30 67 70 67c45 0 70 -29 70 -68c0 -49 -34 -69 -70 -69zM355 559c-40 0 -67 27 -67 70c0 37 24 65 69 65c44 0 65 -31 65 -67c0 -45 -29 -68 -67 -68z" />
    <glyph glyph-name="AE" unicode="&#xc6;" horiz-adv-x="746" 
d="M695 276c0 0 -82 3 -201 1l20 -148s76 -1 212 4c0 0 -1 -48 -1 -137c0 0 -118 0 -351 -8c0 0 -6 50 -17 131c-33 1 -92 2 -168 2l-21 -107s-73 3 -166 2c0 0 72 270 159 680c363 -3 565 5 565 5s-1 -56 2 -142c0 0 -109 2 -268 -1c0 0 7 -59 19 -154c28 0 103 -1 215 2
c0 0 -1 -53 1 -130zM287 594c-12 -51 -37 -165 -74 -350c31 -1 75 -1 127 -1c-14 99 -32 220 -53 351z" />
    <glyph glyph-name="Oslash" unicode="&#xd8;" horiz-adv-x="592" 
d="M179 -118c0 0 -52 30 -133 68c0 0 24 33 65 98c-58 62 -89 163 -89 299c0 231 97 358 270 358c29 0 56 -4 81 -10c9 22 21 53 36 98c0 0 51 -27 142 -66c0 0 -27 -37 -67 -101c51 -59 79 -152 79 -280c0 -238 -89 -369 -272 -369c-25 0 -48 3 -70 8
c-10 -23 -23 -55 -42 -103zM291 106c61 0 96 63 96 245c0 149 -30 225 -95 225c-66 0 -96 -73 -96 -230c0 -170 33 -240 95 -240z" />
    <glyph glyph-name="yen" unicode="&#xa5;" horiz-adv-x="543" 
d="M45 199c0 0 1 33 -3 100h103c-28 79 -76 205 -143 376c0 0 46 -1 177 6c0 0 36 -133 91 -334c0 0 43 148 100 358c0 0 59 -5 171 -4c0 0 -64 -157 -148 -398l102 3s-2 -35 -1 -99c0 0 -50 0 -144 -1c0 -5 -1 -25 -1 -42c45 0 94 1 148 3c0 0 -1 -29 1 -96
c0 0 -52 0 -148 -1l3 -84s-52 2 -162 0c0 0 1 34 1 82l-152 -3s1 34 1 97c0 0 52 -1 149 0c0 13 0 26 -1 41z" />
    <glyph glyph-name="ordfeminine" unicode="&#xaa;" horiz-adv-x="382" 
d="M137 318c-74 0 -127 39 -127 110c0 83 76 127 224 121v14c-1 41 -12 60 -40 60c-27 0 -44 -19 -47 -59c0 0 -52 5 -124 6c6 89 75 136 174 136c113 0 160 -62 165 -160c6 -102 0 -219 0 -219s-38 -1 -105 0c0 0 2 22 4 53c-22 -42 -67 -62 -124 -62zM183 393
c32 0 54 25 55 77v25c-70 0 -97 -24 -97 -57c0 -29 18 -45 42 -45z" />
    <glyph glyph-name="ordmasculine" unicode="&#xba;" horiz-adv-x="393" 
d="M196 311c-121 0 -184 70 -184 207c0 120 73 191 186 191c123 0 184 -75 184 -197c0 -141 -78 -201 -186 -201zM198 398c33 0 51 33 51 114c0 73 -17 112 -51 112c-36 0 -54 -37 -54 -106c0 -85 17 -120 54 -120z" />
    <glyph glyph-name="ae" unicode="&#xe6;" horiz-adv-x="815" 
d="M565 -19c-79 0 -155 29 -190 88c-34 -58 -101 -86 -179 -86c-112 0 -183 54 -183 147c0 103 80 166 287 163v16c0 65 -18 97 -58 97c-38 0 -59 -29 -61 -85c0 0 -53 3 -149 4c5 113 80 189 209 189c73 0 125 -26 155 -72c34 44 90 73 168 73c169 0 239 -116 229 -295
c0 0 -108 1 -310 -3c5 -91 33 -130 77 -130c33 0 61 24 69 83c0 0 81 -4 165 -6c-28 -120 -109 -183 -229 -183zM229 86c46 0 78 33 78 122v13c-100 -1 -134 -30 -134 -80c0 -32 18 -55 56 -55zM559 412c-44 0 -70 -35 -76 -119c40 1 89 1 145 3c-1 73 -24 116 -69 116z" />
    <glyph glyph-name="oslash" unicode="&#xf8;" horiz-adv-x="538" 
d="M267 -11c-20 0 -38 1 -55 4c-9 -20 -21 -50 -39 -96c0 0 -50 28 -126 64c0 0 21 30 56 81c-53 47 -77 123 -77 215c0 165 85 261 244 261c18 0 35 -2 51 -4c8 20 20 50 37 97c0 0 54 -29 130 -63c0 0 -22 -32 -56 -86c53 -47 79 -121 79 -210c0 -162 -89 -263 -244 -263z
M268 96c51 0 75 47 75 156c0 113 -26 157 -75 157s-75 -48 -75 -154c0 -113 23 -159 75 -159z" />
    <glyph glyph-name="questiondown" unicode="&#xbf;" horiz-adv-x="517" 
d="M256 -123c-153 0 -245 81 -245 206c0 135 77 199 194 216c1 39 0 75 0 75c104 -1 162 2 162 2c0 -97 3 -167 3 -167c-136 6 -184 -29 -184 -110c0 -63 29 -99 76 -99c62 0 79 58 77 145c0 0 67 -2 167 -1c3 -174 -80 -267 -250 -267zM285 410c-71 0 -108 39 -108 101
c0 59 42 96 105 96c75 0 111 -42 111 -100c0 -60 -45 -97 -108 -97z" />
    <glyph glyph-name="exclamdown" unicode="&#xa1;" horiz-adv-x="251" 
d="M36 -105c0 0 9 200 17 477c0 0 60 -2 142 1c0 0 5 -205 22 -479c0 0 -90 3 -181 1zM124 410c-68 0 -103 45 -103 99c0 60 45 96 102 96c67 0 107 -37 107 -99c0 -55 -35 -96 -106 -96z" />
    <glyph glyph-name="florin" unicode="&#x192;" horiz-adv-x="509" 
d="M446 302c-39 1 -74 2 -105 2c-16 -90 -32 -188 -50 -268c-33 -140 -99 -192 -214 -192c-21 0 -43 2 -67 5c0 0 3 36 6 129c10 -1 19 -2 27 -2c57 0 81 28 97 94c18 77 32 157 46 237h-74c3 111 2 126 2 126c33 -1 64 -2 92 -2l15 77c25 128 82 187 188 187
c27 0 57 -3 91 -9c-10 -84 -12 -128 -12 -128c-13 3 -25 4 -35 4c-41 0 -66 -26 -78 -78l-12 -56c54 0 81 1 81 1c0 -99 2 -127 2 -127z" />
    <glyph glyph-name="guillemotleft" unicode="&#xab;" horiz-adv-x="382" 
d="M97 133c0 0 -32 80 -91 210c0 0 42 73 102 195c0 0 33 -3 112 -4c0 0 -45 -80 -102 -196c0 0 29 -73 88 -197c0 0 -33 -1 -109 -8zM258 135c0 0 -29 73 -90 204c0 0 34 62 91 179c0 0 37 -3 109 -4c0 0 -42 -76 -91 -181c0 0 30 -69 92 -195c0 0 -38 1 -111 -3z" />
    <glyph glyph-name="guillemotright" unicode="&#xbb;" horiz-adv-x="385" 
d="M122 136c0 0 -40 4 -109 6c0 0 36 63 95 186c0 0 -32 79 -87 196c0 0 33 0 108 7c0 0 26 -70 88 -208c0 0 -41 -74 -95 -187zM284 138c0 0 -29 4 -111 5c0 0 36 64 95 188c0 0 -29 71 -88 196c0 0 37 -1 112 4c0 0 30 -78 87 -205c0 0 -39 -70 -95 -188z" />
    <glyph glyph-name="ellipsis" unicode="&#x2026;" horiz-adv-x="652" 
d="M109 -1c-60 0 -92 41 -92 99c0 57 37 95 92 95c56 0 92 -41 91 -95c0 -65 -36 -99 -91 -99zM325 -21c-57 0 -91 41 -91 99s37 96 91 96c58 0 92 -41 91 -95c-1 -66 -36 -100 -91 -100zM543 -7c-60 0 -93 40 -93 98c0 57 37 95 93 95c58 0 93 -41 92 -95
c-1 -65 -36 -98 -92 -98z" />
    <glyph glyph-name="Agrave" unicode="&#xc0;" horiz-adv-x="545" 
d="M2 17c0 0 61 274 146 681c129 5 241 4 241 4s71 -343 154 -719c0 0 -85 1 -172 -1c0 0 -9 48 -24 137c-36 1 -91 2 -165 2c-6 -35 -11 -70 -16 -106c0 0 -75 3 -164 2zM264 586c-10 -54 -35 -181 -62 -342h123c-16 91 -36 205 -61 342zM262 739c0 0 -29 36 -128 138
c0 0 31 20 94 65c0 0 31 -50 109 -153c0 0 -24 -14 -75 -50z" />
    <glyph glyph-name="Atilde" unicode="&#xc3;" horiz-adv-x="545" 
d="M2 17c0 0 61 274 146 681c129 5 241 4 241 4s71 -343 154 -719c0 0 -85 1 -172 -1c0 0 -9 48 -24 137c-36 1 -91 2 -165 2c-6 -35 -11 -70 -16 -106c0 0 -75 3 -164 2zM264 586c-10 -54 -35 -181 -62 -342h123c-16 91 -36 205 -61 342zM187 754c0 0 -28 1 -84 -2
c-5 89 30 151 93 151c57 0 93 -53 126 -53c18 0 25 16 21 50c0 0 23 -1 79 5c15 -95 -17 -151 -84 -151c-57 0 -93 48 -126 48c-19 0 -27 -15 -25 -48z" />
    <glyph glyph-name="Otilde" unicode="&#xd5;" horiz-adv-x="585" 
d="M293 -18c-178 0 -270 127 -271 362c-2 215 84 366 271 366c188 0 271 -143 270 -365c-1 -260 -105 -363 -270 -363zM293 110c57 0 94 55 94 238c0 165 -33 232 -95 232s-95 -71 -95 -232c0 -172 33 -238 96 -238zM214 750c0 0 -28 1 -84 -2c-5 89 30 151 93 151
c57 0 93 -53 126 -53c18 0 25 16 21 50c0 0 23 -1 79 5c15 -95 -17 -151 -84 -151c-57 0 -93 48 -126 48c-19 0 -27 -15 -25 -48z" />
    <glyph glyph-name="OE" unicode="&#x152;" horiz-adv-x="813" 
d="M752 275c0 0 -92 2 -200 1l3 -136s94 -5 239 -6c0 0 -2 -56 -2 -139c0 0 -95 8 -374 13c0 0 0 16 1 49c-27 -49 -86 -76 -152 -76c-151 0 -245 126 -245 363c0 217 81 366 245 366c65 0 118 -26 149 -66c0 12 -1 44 -1 44s77 0 374 10c0 0 0 -62 3 -140
c0 0 -111 0 -239 -4c0 0 -1 -61 -1 -152c31 0 101 0 199 2c0 0 -1 -55 1 -129zM293 109c56 0 94 53 94 239c0 162 -31 231 -96 231c-64 0 -94 -74 -94 -232c0 -172 35 -238 96 -238z" />
    <glyph glyph-name="oe" unicode="&#x153;" horiz-adv-x="840" 
d="M595 -20c-83 0 -144 29 -179 83c-35 -47 -91 -75 -162 -75c-150 0 -232 99 -232 272c0 163 89 257 230 257c80 0 137 -33 171 -81c35 47 92 76 168 76c157 0 238 -101 227 -303c0 0 -92 1 -309 -5c7 -81 33 -118 77 -118c37 0 61 26 67 83c0 0 81 -5 166 -8
c-23 -111 -99 -181 -224 -181zM265 93c44 0 73 39 73 161c0 100 -22 158 -73 158c-49 0 -77 -49 -77 -153c0 -123 26 -166 77 -166zM583 409c-45 0 -70 -41 -75 -128c37 1 85 3 146 6c-1 81 -26 122 -71 122z" />
    <glyph glyph-name="endash" unicode="&#x2013;" horiz-adv-x="350" 
d="M338 263c-114 2 -262 2 -327 1c3 60 3 82 2 132c99 -1 246 -1 325 1c0 -53 -1 -89 0 -134z" />
    <glyph glyph-name="emdash" unicode="&#x2014;" horiz-adv-x="421" 
d="M13 263c1 51 1 73 -2 132c65 0 285 0 399 2c-1 -44 -1 -82 -1 -135c-79 2 -297 2 -396 1z" />
    <glyph glyph-name="quotedblleft" unicode="&#x201c;" horiz-adv-x="398" 
d="M102 450c-53 0 -84 42 -84 98c0 59 39 120 115 174c38 -30 63 -46 63 -46c-33 -29 -49 -53 -57 -66c30 -11 49 -41 49 -75c0 -51 -34 -85 -86 -85zM292 428c-49 0 -85 41 -85 99c0 57 39 120 111 170l63 -46c-33 -27 -50 -53 -57 -67c33 -9 51 -40 51 -71
c0 -52 -35 -85 -83 -85z" />
    <glyph glyph-name="quotedblright" unicode="&#x201d;" horiz-adv-x="396" 
d="M265 447c-38 30 -62 46 -62 46c33 31 49 58 56 71c-30 11 -50 41 -50 77c0 50 34 84 85 84c53 0 83 -43 83 -98c0 -64 -40 -125 -112 -180zM77 444c-40 31 -60 46 -60 46c33 28 49 54 55 67c-32 10 -50 41 -50 73c0 49 36 82 83 82c52 0 84 -40 84 -97
c0 -59 -40 -120 -112 -171z" />
    <glyph glyph-name="quoteleft" unicode="&#x2018;" horiz-adv-x="207" 
d="M103 449c-52 0 -85 40 -85 98s40 119 113 170c40 -31 60 -46 60 -46c-34 -28 -50 -54 -56 -68c33 -10 51 -40 51 -72c0 -50 -36 -82 -83 -82z" />
    <glyph glyph-name="quoteright" unicode="&#x2019;" horiz-adv-x="214" 
d="M81 440c-38 30 -64 46 -64 46c34 28 51 54 58 68c-30 11 -48 41 -48 75c0 49 33 85 84 85s84 -42 84 -97c0 -66 -45 -131 -114 -177z" />
    <glyph glyph-name="divide" unicode="&#xf7;" horiz-adv-x="372" 
d="M12 389c164 -4 331 -1 348 -1c-2 -74 -2 -121 -1 -124c-186 4 -329 1 -347 0c1 73 0 120 0 125zM185 581c45 0 73 -33 73 -76c0 -47 -31 -76 -75 -76s-73 28 -73 76c0 50 29 76 75 76zM186 226c47 0 73 -28 73 -78c0 -45 -31 -73 -74 -73c-46 0 -73 29 -73 73
c0 51 29 78 74 78z" />
    <glyph glyph-name="ydieresis" unicode="&#xff;" horiz-adv-x="486" 
d="M287 -231c-123 19 -161 23 -161 23c32 114 43 166 43 166c-102 337 -167 525 -167 525c112 2 172 9 172 9c41 -215 73 -346 73 -346c52 250 71 375 71 375c107 -7 167 -8 167 -8c-159 -588 -198 -744 -198 -744zM156 561c-48 0 -70 33 -70 70c0 40 30 67 70 67
c45 0 70 -29 70 -68c0 -49 -34 -69 -70 -69zM335 564c-40 0 -67 27 -67 70c0 37 24 65 69 65c44 0 65 -31 65 -67c0 -45 -29 -68 -67 -68z" />
    <glyph glyph-name="Ydieresis" unicode="&#x178;" horiz-adv-x="543" 
d="M189 -12c-1 17 1 56 -4 161c0 0 -53 158 -183 526c0 0 43 0 179 6c0 0 27 -118 88 -335c0 0 38 135 99 359c0 0 49 -3 173 -3c0 0 -77 -211 -191 -551c0 0 -2 -24 2 -162c0 0 -41 1 -163 -1zM183 750c-48 0 -70 33 -70 70c0 40 30 67 70 67c45 0 70 -29 70 -68
c0 -49 -34 -69 -70 -69zM362 753c-40 0 -67 27 -67 70c0 37 24 65 69 65c44 0 65 -31 65 -67c0 -45 -29 -68 -67 -68z" />
    <glyph glyph-name="fraction" unicode="&#x2044;" horiz-adv-x="462" 
d="M67 -16c-26 5 -58 9 -91 12c270 441 417 702 417 702c56 -8 92 -10 92 -10c-328 -549 -418 -704 -418 -704z" />
    <glyph glyph-name="Euro" unicode="&#x20ac;" horiz-adv-x="608" 
d="M1 357c0 0 1 19 0 72h70c21 182 115 288 268 288c149 0 233 -103 249 -247c-88 0 -179 -3 -179 -3c-6 81 -33 115 -72 115c-51 0 -82 -43 -91 -150l237 5s-2 -24 -2 -73c0 0 -77 0 -238 -2c0 0 -1 -17 0 -35c67 1 148 2 246 5c0 0 -2 -22 0 -72c0 0 -77 0 -243 -2
c9 -104 38 -145 90 -145c47 0 71 27 81 118c102 -4 178 -6 178 -6c-21 -161 -109 -246 -261 -245c-152 0 -241 91 -262 274c-24 0 -70 -1 -70 -1s1 15 1 73h64s-1 14 0 32c-23 0 -66 -1 -66 -1z" />
    <glyph glyph-name="guilsinglleft" unicode="&#x2039;" horiz-adv-x="225" 
d="M94 133c0 0 -27 71 -88 205c0 0 39 71 96 191c0 0 29 -4 111 -5c0 0 -35 -63 -96 -190c0 0 29 -70 88 -196c0 0 -36 1 -111 -5z" />
    <glyph glyph-name="guilsinglright" unicode="&#x203a;" horiz-adv-x="221" 
d="M124 137c0 0 -39 3 -111 4c0 0 37 69 92 185c0 0 -28 66 -90 198c0 0 39 -1 111 3c0 0 26 -66 89 -207c0 0 -35 -65 -91 -183z" />
    <glyph glyph-name="daggerdbl" unicode="&#x2021;" horiz-adv-x="311" 
d="M13 532c0 63 -1 88 -1 91h87l-1 81c38 0 73 -1 114 0c-1 -19 -1 -47 -2 -81c48 1 78 2 88 2c-1 -55 -1 -88 -1 -91h-87c-1 -33 -1 -70 -1 -106h90c-1 -27 -2 -47 -2 -90h-88c0 -29 0 -57 1 -86c-39 1 -67 2 -109 0v87c-46 1 -88 0 -88 0c0 21 0 54 -1 90c51 -1 89 0 89 0
l-1 104c-45 0 -72 -1 -87 -1z" />
    <glyph glyph-name="periodcentered" unicode="&#xb7;" horiz-adv-x="229" 
d="M113 251c-55 0 -90 39 -90 95c0 58 37 95 92 95c56 0 90 -37 90 -95c0 -64 -37 -95 -92 -95z" />
    <glyph glyph-name="quotesinglbase" unicode="&#x201a;" horiz-adv-x="212" 
d="M82 -118c-39 30 -65 46 -65 46c32 29 49 54 57 68c-30 11 -48 41 -48 74c0 50 33 85 84 85s84 -43 84 -97c0 -65 -44 -128 -112 -176z" />
    <glyph glyph-name="quotedblbase" unicode="&#x201e;" horiz-adv-x="396" 
d="M265 -114c-38 31 -62 47 -62 47c33 31 49 57 56 70c-30 11 -50 41 -50 78c0 50 35 84 85 84c53 0 84 -43 84 -98c0 -64 -40 -127 -113 -181zM78 -117c-41 30 -61 46 -61 46c33 29 49 54 55 68c-33 9 -51 40 -51 72c0 49 36 81 84 81c52 0 83 -40 83 -96
c0 -60 -39 -119 -110 -171z" />
    <glyph glyph-name="perthousand" unicode="&#x2030;" horiz-adv-x="1025" 
d="M169 419c30 0 47 25 47 113c0 77 -15 109 -47 109c-31 0 -47 -36 -47 -108c0 -81 16 -114 47 -114zM168 343c-115 0 -160 81 -160 199c0 107 60 178 162 178c107 0 160 -70 160 -191c0 -137 -70 -186 -162 -186zM158 -15c-48 8 -73 9 -73 9c269 442 419 704 419 704
c46 -6 76 -7 76 -7c-328 -549 -422 -706 -422 -706zM505 55c29 0 46 28 46 110c0 78 -14 111 -47 111c-30 0 -46 -34 -46 -105c0 -85 16 -116 47 -116zM503 -22c-109 0 -160 77 -160 194c0 104 55 185 162 185c109 0 162 -77 162 -189c0 -133 -69 -190 -164 -190zM855 65
c32 0 48 31 48 115c0 70 -16 107 -47 107c-30 0 -47 -31 -47 -110c0 -85 17 -112 46 -112zM857 -11c-93 0 -162 53 -162 186c0 114 56 191 161 191c106 0 161 -73 161 -178c0 -125 -54 -199 -160 -199z" />
    <glyph glyph-name="Acircumflex" unicode="&#xc2;" horiz-adv-x="545" 
d="M2 17c0 0 61 274 146 681c129 5 241 4 241 4s71 -343 154 -719c0 0 -85 1 -172 -1c0 0 -9 48 -24 137c-36 1 -91 2 -165 2c-6 -35 -11 -70 -16 -106c0 0 -75 3 -164 2zM264 586c-10 -54 -35 -181 -62 -342h123c-16 91 -36 205 -61 342zM163 733c0 0 -19 20 -62 60
c0 0 41 37 112 111c0 0 28 0 97 6c0 0 35 -38 118 -111c0 0 -20 -18 -62 -65c0 0 -34 35 -104 90c0 0 -33 -26 -99 -91z" />
    <glyph glyph-name="Ecircumflex" unicode="&#xca;" horiz-adv-x="459" 
d="M138 735c0 0 -19 20 -62 60c0 0 41 37 112 111c0 0 28 0 97 6c0 0 35 -38 118 -111c0 0 -20 -18 -62 -65c0 0 -34 35 -104 90c0 0 -33 -26 -99 -91zM44 4c0 0 -1 286 -8 690c0 0 141 2 398 5c0 0 0 -53 2 -140c0 0 -101 -1 -238 -4c0 0 -1 -58 1 -154c26 0 89 -1 199 2
c0 0 -1 -47 1 -131c0 0 -76 2 -198 0c1 -41 2 -86 4 -133c0 0 87 -4 235 -6c0 0 -2 -48 -1 -138c0 0 -183 7 -395 9z" />
    <glyph glyph-name="Aacute" unicode="&#xc1;" horiz-adv-x="545" 
d="M2 17c0 0 61 274 146 681c129 5 241 4 241 4s71 -343 154 -719c0 0 -85 1 -172 -1c0 0 -9 48 -24 137c-36 1 -91 2 -165 2c-6 -35 -11 -70 -16 -106c0 0 -75 3 -164 2zM264 586c-10 -54 -35 -181 -62 -342h123c-16 91 -36 205 -61 342zM277 739c-50 36 -74 50 -74 50
c78 103 109 153 109 153c62 -45 94 -65 94 -65c-99 -102 -129 -138 -129 -138z" />
    <glyph glyph-name="Edieresis" unicode="&#xcb;" horiz-adv-x="459" 
d="M152 757c-48 0 -70 33 -70 70c0 40 30 67 70 67c45 0 70 -29 70 -68c0 -49 -34 -69 -70 -69zM331 760c-40 0 -67 27 -67 70c0 37 24 65 69 65c44 0 65 -31 65 -67c0 -45 -29 -68 -67 -68zM44 4c0 0 -1 286 -8 690c0 0 141 2 398 5c0 0 0 -53 2 -140c0 0 -101 -1 -238 -4
c0 0 -1 -58 1 -154c26 0 89 -1 199 2c0 0 -1 -47 1 -131c0 0 -76 2 -198 0c1 -41 2 -86 4 -133c0 0 87 -4 235 -6c0 0 -2 -48 -1 -138c0 0 -183 7 -395 9z" />
    <glyph glyph-name="Egrave" unicode="&#xc8;" horiz-adv-x="459" 
d="M44 4c0 0 -1 286 -8 690c0 0 141 2 398 5c0 0 0 -53 2 -140c0 0 -101 -1 -238 -4c0 0 -1 -58 1 -154c26 0 89 -1 199 2c0 0 -1 -47 1 -131c0 0 -76 2 -198 0c1 -41 2 -86 4 -133c0 0 87 -4 235 -6c0 0 -2 -48 -1 -138c0 0 -183 7 -395 9zM237 738c0 0 -29 36 -128 138
c0 0 31 20 94 65c0 0 31 -50 109 -153c0 0 -24 -14 -75 -50z" />
    <glyph glyph-name="Iacute" unicode="&#xcd;" horiz-adv-x="257" 
d="M48 -1c0 0 1 306 -4 695c0 0 58 0 164 1c0 0 1 -334 5 -696c0 0 -68 1 -165 0zM142 736c-50 36 -74 50 -74 50c78 103 109 153 109 153c62 -45 94 -65 94 -65c-99 -102 -129 -138 -129 -138z" />
    <glyph glyph-name="Icircumflex" unicode="&#xce;" horiz-adv-x="257" 
d="M48 -1c0 0 1 306 -4 695c0 0 58 0 164 1c0 0 1 -334 5 -696c0 0 -68 1 -165 0zM28 733c0 0 -19 20 -62 60c0 0 41 37 112 111c0 0 28 0 97 6c0 0 35 -38 118 -111c0 0 -20 -18 -62 -65c0 0 -34 35 -104 90c0 0 -33 -26 -99 -91z" />
    <glyph glyph-name="Idieresis" unicode="&#xcf;" horiz-adv-x="257" 
d="M48 -1c0 0 1 306 -4 695c0 0 58 0 164 1c0 0 1 -334 5 -696c0 0 -68 1 -165 0zM41 757c-48 0 -70 33 -70 70c0 40 30 67 70 67c45 0 70 -29 70 -68c0 -49 -34 -69 -70 -69zM220 760c-40 0 -67 27 -67 70c0 37 24 65 69 65c44 0 65 -31 65 -67c0 -45 -29 -68 -67 -68z" />
    <glyph glyph-name="Igrave" unicode="&#xcc;" horiz-adv-x="257" 
d="M48 -1c0 0 1 306 -4 695c0 0 58 0 164 1c0 0 1 -334 5 -696c0 0 -68 1 -165 0zM126 736c0 0 -29 36 -128 138c0 0 31 20 94 65c0 0 31 -50 109 -153c0 0 -24 -14 -75 -50z" />
    <glyph glyph-name="Oacute" unicode="&#xd3;" horiz-adv-x="585" 
d="M305 736c-50 36 -74 50 -74 50c78 103 109 153 109 153c62 -45 94 -65 94 -65c-99 -102 -129 -138 -129 -138zM293 -18c-178 0 -270 127 -271 362c-2 215 84 366 271 366c188 0 271 -143 270 -365c-1 -260 -105 -363 -270 -363zM293 110c57 0 94 55 94 238
c0 165 -33 232 -95 232s-95 -71 -95 -232c0 -172 33 -238 96 -238z" />
    <glyph glyph-name="Ocircumflex" unicode="&#xd4;" horiz-adv-x="585" 
d="M191 731c0 0 -19 20 -62 60c0 0 41 37 112 111c0 0 28 0 97 6c0 0 35 -38 118 -111c0 0 -20 -18 -62 -65c0 0 -34 35 -104 90c0 0 -33 -26 -99 -91zM293 -18c-178 0 -270 127 -271 362c-2 215 84 366 271 366c188 0 271 -143 270 -365c-1 -260 -105 -363 -270 -363z
M293 110c57 0 94 55 94 238c0 165 -33 232 -95 232s-95 -71 -95 -232c0 -172 33 -238 96 -238z" />
    <glyph glyph-name="Ograve" unicode="&#xd2;" horiz-adv-x="585" 
d="M293 -18c-178 0 -270 127 -271 362c-2 215 84 366 271 366c188 0 271 -143 270 -365c-1 -260 -105 -363 -270 -363zM293 110c57 0 94 55 94 238c0 165 -33 232 -95 232s-95 -71 -95 -232c0 -172 33 -238 96 -238zM290 736c0 0 -29 36 -128 138c0 0 31 20 94 65
c0 0 31 -50 109 -153c0 0 -24 -14 -75 -50z" />
    <glyph glyph-name="Uacute" unicode="&#xda;" horiz-adv-x="541" 
d="M283 732c-50 36 -74 50 -74 50c78 103 109 153 109 153c62 -45 94 -65 94 -65c-99 -102 -129 -138 -129 -138zM272 -14c-176 0 -250 134 -250 399c0 100 9 201 25 299c0 0 49 -8 159 -20c-14 -103 -22 -180 -22 -253c0 -202 32 -273 86 -273c56 0 82 52 82 234
c0 98 -10 216 -27 332c0 0 57 2 164 11c19 -116 31 -232 31 -336c0 -263 -72 -393 -248 -393z" />
    <glyph glyph-name="Ucircumflex" unicode="&#xdb;" horiz-adv-x="541" 
d="M169 733c0 0 -19 20 -62 60c0 0 41 37 112 111c0 0 28 0 97 6c0 0 35 -38 118 -111c0 0 -20 -18 -62 -65c0 0 -34 35 -104 90c0 0 -33 -26 -99 -91zM272 -14c-176 0 -250 134 -250 399c0 100 9 201 25 299c0 0 49 -8 159 -20c-14 -103 -22 -180 -22 -253
c0 -202 32 -273 86 -273c56 0 82 52 82 234c0 98 -10 216 -27 332c0 0 57 2 164 11c19 -116 31 -232 31 -336c0 -263 -72 -393 -248 -393z" />
    <glyph glyph-name="Ugrave" unicode="&#xd9;" horiz-adv-x="541" 
d="M272 -14c-176 0 -250 134 -250 399c0 100 9 201 25 299c0 0 49 -8 159 -20c-14 -103 -22 -180 -22 -253c0 -202 32 -273 86 -273c56 0 82 52 82 234c0 98 -10 216 -27 332c0 0 57 2 164 11c19 -116 31 -232 31 -336c0 -263 -72 -393 -248 -393zM268 728
c0 0 -29 36 -128 138c0 0 31 20 94 65c0 0 31 -50 109 -153c0 0 -24 -14 -75 -50z" />
    <glyph glyph-name="dotlessi" unicode="&#x131;" horiz-adv-x="239" 
d="M42 1c0 0 1 133 -3 500c0 0 59 -1 160 1c0 0 -1 -228 3 -500c0 0 -68 1 -160 -1z" />
    <glyph glyph-name="circumflex" unicode="&#x2c6;" horiz-adv-x="528" 
d="M163 532c0 0 -19 20 -62 60c0 0 41 37 112 111c0 0 28 0 97 6c0 0 35 -38 118 -111c0 0 -20 -18 -62 -65c0 0 -34 35 -104 90c0 0 -33 -26 -99 -91z" />
    <glyph glyph-name="tilde" unicode="&#x2dc;" horiz-adv-x="528" 
d="M187 550c0 0 -28 1 -84 -2c-5 89 30 151 93 151c57 0 93 -53 126 -53c18 0 25 16 21 50c0 0 23 -1 79 5c15 -95 -17 -151 -84 -151c-57 0 -93 48 -126 48c-19 0 -27 -15 -25 -48z" />
    <glyph glyph-name="macron" unicode="&#xaf;" horiz-adv-x="528" 
d="M130 574c0 0 1 28 -2 93c0 0 72 -1 272 2c0 0 -2 -26 -2 -94c0 0 -79 2 -268 -1z" />
    <glyph glyph-name="breve" unicode="&#x2d8;" horiz-adv-x="528" 
d="M263 549c-107 0 -151 61 -147 133c0 0 35 0 98 4c-1 -33 16 -57 50 -57c29 0 52 19 47 67c0 0 31 -1 100 1c8 -105 -62 -148 -148 -148z" />
    <glyph glyph-name="dotaccent" unicode="&#x2d9;" horiz-adv-x="528" 
d="M264 553c-57 0 -84 40 -84 82s30 78 84 78c57 0 85 -41 85 -79c0 -53 -36 -81 -85 -81z" />
    <glyph glyph-name="ring" unicode="&#x2da;" horiz-adv-x="379" 
d="M188 542c-73 0 -110 45 -110 101c0 61 47 97 111 97c74 0 112 -45 112 -97c0 -73 -53 -101 -113 -101zM191 596c26 0 42 19 42 47c0 23 -13 47 -42 47c-28 0 -44 -20 -44 -47s15 -47 44 -47z" />
    <glyph glyph-name="cedilla" unicode="&#xb8;" horiz-adv-x="528" 
d="M216 7l64 1s-2 -23 -2 -53c70 -1 107 -32 107 -75c0 -54 -53 -89 -142 -89c-30 0 -68 7 -97 20c0 0 6 26 11 62c27 -13 56 -20 81 -20c27 0 46 9 46 26c0 18 -22 30 -87 24c0 0 10 42 19 104z" />
    <glyph glyph-name="hungarumlaut" unicode="&#x2dd;" horiz-adv-x="528" 
d="M316 541c-52 32 -74 42 -74 42c70 107 98 160 98 160c65 -39 92 -52 92 -52c-89 -111 -116 -150 -116 -150zM170 546c-52 31 -74 40 -74 40c68 111 93 161 93 161c63 -39 92 -52 92 -52c-86 -111 -111 -149 -111 -149z" />
    <glyph glyph-name="ogonek" unicode="&#x2db;" horiz-adv-x="528" 
d="M334 -200c-103 -11 -159 28 -159 94c-1 45 32 90 91 118l69 -3c-46 -25 -67 -54 -67 -78c0 -28 22 -45 72 -43c0 0 -4 -27 -6 -88z" />
    <glyph glyph-name="caron" unicode="&#x2c7;" horiz-adv-x="528" 
d="M218 535c0 0 -34 37 -117 111c0 0 20 18 61 65c0 0 35 -35 104 -91c0 0 33 27 100 91c0 0 18 -20 62 -59c0 0 -41 -37 -112 -112c0 0 -28 1 -98 -5z" />
    <glyph glyph-name="commaaccent" horiz-adv-x="528" 
d="M333 -100c0 -47 -34 -94 -96 -136c-26 27 -40 38 -40 38c23 20 36 39 41 49c-25 7 -41 28 -41 55c0 34 28 61 69 61c42 0 67 -27 67 -67z" />
    <glyph glyph-name="uni0237" unicode="&#x237;" horiz-adv-x="239" 
d="M-72 -220c0 0 3 42 4 131c11 -1 22 -2 31 -2c59 0 79 25 80 85c3 196 -1 505 -1 505c106 -1 155 1 155 1s7 -215 4 -524c-1 -134 -68 -201 -205 -201c-21 0 -44 2 -68 5z" />
    <glyph glyph-name="Dcroat" unicode="&#x110;" horiz-adv-x="588" 
d="M61 -5l2 278s-38 -1 -59 -1c0 0 4 48 2 142c0 0 19 -2 57 -3c0 161 -1 277 -1 277c57 10 110 14 157 14c236 0 347 -121 347 -364c0 -254 -121 -353 -365 -353c-43 0 -90 4 -140 10zM228 111c9 -1 17 -1 25 -1c91 0 139 57 139 232c0 154 -48 231 -142 231
c-9 0 -18 0 -28 -1c0 -57 0 -112 1 -164h69s-2 -40 1 -131c0 0 -26 0 -68 -1c1 -98 3 -165 3 -165z" />
    <glyph glyph-name="dcroat" unicode="&#x111;" horiz-adv-x="546" 
d="M572 510l-75 3c-1 -129 -2 -320 0 -533c0 0 -51 2 -137 2c0 0 2 33 3 84c-30 -53 -85 -77 -143 -77c-120 0 -198 89 -198 267c0 143 61 260 190 260c55 0 100 -26 128 -64c-1 55 -4 132 -8 235c0 0 28 -2 167 1c0 0 -1 -23 -1 -61c47 1 78 3 78 3c-5 -74 -4 -120 -4 -120
zM266 91c45 0 76 44 76 160c-1 100 -27 158 -77 158c-44 0 -73 -54 -73 -159c0 -106 27 -159 74 -159z" />
    <glyph glyph-name="Abreve" unicode="&#x102;" horiz-adv-x="545" 
d="M2 17c0 0 61 274 146 681c129 5 241 4 241 4s71 -343 154 -719c0 0 -85 1 -172 -1c0 0 -9 48 -24 137c-36 1 -91 2 -165 2c-6 -35 -11 -70 -16 -106c0 0 -75 3 -164 2zM264 586c-10 -54 -35 -181 -62 -342h123c-16 91 -36 205 -61 342zM263 749c-107 0 -151 61 -147 133
c0 0 35 0 98 4c-1 -33 16 -57 50 -57c29 0 52 19 47 67c0 0 31 -1 100 1c8 -105 -62 -148 -148 -148z" />
    <glyph glyph-name="Amacron" unicode="&#x100;" horiz-adv-x="545" 
d="M2 17c0 0 61 274 146 681c129 5 241 4 241 4s71 -343 154 -719c0 0 -85 1 -172 -1c0 0 -9 48 -24 137c-36 1 -91 2 -165 2c-6 -35 -11 -70 -16 -106c0 0 -75 3 -164 2zM264 586c-10 -54 -35 -181 -62 -342h123c-16 91 -36 205 -61 342zM131 772c0 0 1 28 -2 93
c0 0 72 -1 272 2c0 0 -2 -26 -2 -94c0 0 -79 2 -268 -1z" />
    <glyph glyph-name="Aogonek" unicode="&#x104;" horiz-adv-x="545" 
d="M453 -206c-103 -11 -159 28 -159 94c-1 41 25 81 74 109c-4 20 -11 60 -21 122c-36 1 -91 2 -165 2c-6 -35 -11 -70 -16 -106c0 0 -75 3 -164 2c0 0 61 274 146 681c129 5 241 4 241 4s71 -343 154 -719c0 0 -55 1 -120 0c-25 -19 -36 -40 -36 -58c0 -28 22 -45 72 -43
c0 0 -4 -27 -6 -88zM264 586c-10 -54 -35 -181 -62 -342h123c-16 91 -36 205 -61 342z" />
    <glyph glyph-name="Cacute" unicode="&#x106;" horiz-adv-x="566" 
d="M300 744c-50 36 -74 50 -74 50c78 103 109 153 109 153c62 -45 94 -65 94 -65c-99 -102 -129 -138 -129 -138zM292 -17c-173 0 -270 110 -270 363c0 237 91 366 273 366c169 0 243 -121 249 -284c-119 -4 -175 -3 -175 -3c-5 109 -32 154 -81 154c-63 0 -91 -75 -90 -231
c0 -163 30 -231 93 -231c49 0 82 38 84 174c106 0 178 -2 178 -2c-3 -219 -105 -307 -261 -306z" />
    <glyph glyph-name="Ccaron" unicode="&#x10c;" horiz-adv-x="566" 
d="M241 744c0 0 -34 37 -117 111c0 0 20 18 61 65c0 0 35 -35 104 -91c0 0 33 27 100 91c0 0 18 -20 62 -59c0 0 -41 -37 -112 -112c0 0 -28 1 -98 -5zM292 -17c-173 0 -270 110 -270 363c0 237 91 366 273 366c169 0 243 -121 249 -284c-119 -4 -175 -3 -175 -3
c-5 109 -32 154 -81 154c-63 0 -91 -75 -90 -231c0 -163 30 -231 93 -231c49 0 82 38 84 174c106 0 178 -2 178 -2c-3 -219 -105 -307 -261 -306z" />
    <glyph glyph-name="Ccircumflex" unicode="&#x108;" horiz-adv-x="566" 
d="M186 737c0 0 -19 20 -62 60c0 0 41 37 112 111c0 0 28 0 97 6c0 0 35 -38 118 -111c0 0 -20 -18 -62 -65c0 0 -34 35 -104 90c0 0 -33 -26 -99 -91zM292 -17c-173 0 -270 110 -270 363c0 237 91 366 273 366c169 0 243 -121 249 -284c-119 -4 -175 -3 -175 -3
c-5 109 -32 154 -81 154c-63 0 -91 -75 -90 -231c0 -163 30 -231 93 -231c49 0 82 38 84 174c106 0 178 -2 178 -2c-3 -219 -105 -307 -261 -306z" />
    <glyph glyph-name="Dcaron" unicode="&#x10e;" horiz-adv-x="563" 
d="M197 743c0 0 -34 37 -117 111c0 0 20 18 61 65c0 0 35 -35 104 -91c0 0 33 27 100 91c0 0 18 -20 62 -59c0 0 -41 -37 -112 -112c0 0 -28 1 -98 -5zM203 117c8 -1 15 -1 23 -1c85 0 141 43 141 228c0 152 -44 228 -139 228c-10 0 -20 -1 -31 -2c1 -246 6 -453 6 -453z
M37 -3c3 393 0 692 0 692c58 9 110 14 157 14c240 0 347 -126 347 -364c0 -249 -120 -352 -355 -352c-45 0 -95 3 -149 10z" />
    <glyph glyph-name="Ecaron" unicode="&#x11a;" horiz-adv-x="459" 
d="M193 736c0 0 -34 37 -117 111c0 0 20 18 61 65c0 0 35 -35 104 -91c0 0 33 27 100 91c0 0 18 -20 62 -59c0 0 -41 -37 -112 -112c0 0 -28 1 -98 -5zM44 4c0 0 -1 286 -8 690c0 0 141 2 398 5c0 0 0 -53 2 -140c0 0 -101 -1 -238 -4c0 0 -1 -58 1 -154c26 0 89 -1 199 2
c0 0 -1 -47 1 -131c0 0 -76 2 -198 0c1 -41 2 -86 4 -133c0 0 87 -4 235 -6c0 0 -2 -48 -1 -138c0 0 -183 7 -395 9z" />
    <glyph glyph-name="Edotaccent" unicode="&#x116;" horiz-adv-x="459" 
d="M44 4c0 0 -1 286 -8 690c0 0 141 2 398 5c0 0 0 -53 2 -140c0 0 -101 -1 -238 -4c0 0 -1 -58 1 -154c26 0 89 -1 199 2c0 0 -1 -47 1 -131c0 0 -76 2 -198 0c1 -41 2 -86 4 -133c0 0 87 -4 235 -6c0 0 -2 -48 -1 -138c0 0 -183 7 -395 9zM240 756c-57 0 -84 40 -84 82
s30 78 84 78c57 0 85 -41 85 -79c0 -53 -36 -81 -85 -81z" />
    <glyph glyph-name="Emacron" unicode="&#x112;" horiz-adv-x="459" 
d="M44 4c0 0 -1 286 -8 690c0 0 141 2 398 5c0 0 0 -53 2 -140c0 0 -101 -1 -238 -4c0 0 -1 -58 1 -154c26 0 89 -1 199 2c0 0 -1 -47 1 -131c0 0 -76 2 -198 0c1 -41 2 -86 4 -133c0 0 87 -4 235 -6c0 0 -2 -48 -1 -138c0 0 -183 7 -395 9zM106 775c0 0 1 28 -2 93
c0 0 72 -1 272 2c0 0 -2 -26 -2 -94c0 0 -79 2 -268 -1z" />
    <glyph glyph-name="Eogonek" unicode="&#x118;" horiz-adv-x="459" 
d="M437 -206c-101 -11 -159 29 -159 94c0 42 28 85 85 111c-66 1 -204 4 -319 5c0 0 -1 286 -8 690c0 0 141 2 398 5c0 0 0 -53 2 -140c0 0 -101 -1 -238 -4c0 0 -1 -57 1 -153c12 0 67 -1 199 1c0 0 -1 -47 0 -131c0 0 -76 1 -197 1c1 -42 2 -86 4 -134c0 0 87 -4 235 -6
c0 0 -2 -46 -2 -136c-48 -22 -67 -48 -67 -72c0 -28 23 -46 73 -43c0 0 -4 -27 -7 -88z" />
    <glyph glyph-name="Gbreve" unicode="&#x11e;" horiz-adv-x="575" 
d="M294 -21c-165 0 -272 107 -272 370c0 229 92 362 271 362c156 0 243 -106 249 -273c0 0 -102 -2 -167 -5c-6 99 -34 147 -85 147c-65 0 -97 -78 -97 -231c0 -173 36 -241 111 -241c52 0 83 42 89 136l-121 -3s1 43 -1 124c0 0 126 -2 286 -1c10 -286 -97 -385 -263 -385z
M289 748c-107 0 -151 61 -147 133c0 0 35 0 98 4c-1 -33 16 -57 50 -57c29 0 52 19 47 67c0 0 31 -1 100 1c8 -105 -62 -148 -148 -148z" />
    <glyph glyph-name="Gcircumflex" unicode="&#x11c;" horiz-adv-x="575" 
d="M188 733c0 0 -19 20 -62 60c0 0 41 37 112 111c0 0 28 0 97 6c0 0 35 -38 118 -111c0 0 -20 -18 -62 -65c0 0 -34 35 -104 90c0 0 -33 -26 -99 -91zM294 -21c-165 0 -272 107 -272 370c0 229 92 362 271 362c156 0 243 -106 249 -273c0 0 -102 -2 -167 -5
c-6 99 -34 147 -85 147c-65 0 -97 -78 -97 -231c0 -173 36 -241 111 -241c52 0 83 42 89 136l-121 -3s1 43 -1 124c0 0 126 -2 286 -1c10 -286 -97 -385 -263 -385z" />
    <glyph glyph-name="Gcommaaccent" unicode="&#x122;" horiz-adv-x="575" 
d="M359 -117c0 -47 -34 -94 -96 -136c-26 27 -40 38 -40 38c23 20 36 39 41 49c-25 7 -41 28 -41 55c0 34 28 61 69 61c42 0 67 -27 67 -67zM294 -21c-165 0 -272 107 -272 370c0 229 92 362 271 362c156 0 243 -106 249 -273c0 0 -102 -2 -167 -5c-6 99 -34 147 -85 147
c-65 0 -97 -78 -97 -231c0 -173 36 -241 111 -241c52 0 83 42 89 136l-121 -3s1 43 -1 124c0 0 126 -2 286 -1c10 -286 -97 -385 -263 -385z" />
    <glyph glyph-name="Hcircumflex" unicode="&#x124;" horiz-adv-x="543" 
d="M170 742c0 0 -19 20 -62 60c0 0 41 37 112 111c0 0 28 0 97 6c0 0 35 -38 118 -111c0 0 -20 -18 -62 -65c0 0 -34 35 -104 90c0 0 -33 -26 -99 -91zM344 -18c0 0 1 92 0 240c-19 0 -58 1 -144 -1l3 -204s-76 2 -163 -1c0 0 1 264 -4 662c0 0 59 -1 160 1
c0 0 1 -129 3 -320c17 0 65 -2 144 -1c0 103 -1 223 -3 354c0 0 68 -1 164 1c0 0 0 -323 3 -732c0 0 -70 3 -163 1z" />
    <glyph glyph-name="Idotaccent" unicode="&#x130;" horiz-adv-x="257" 
d="M48 -1c0 0 1 306 -4 695c0 0 58 0 164 1c0 0 1 -334 5 -696c0 0 -68 1 -165 0zM129 754c-57 0 -84 40 -84 82s30 78 84 78c57 0 85 -41 85 -79c0 -53 -36 -81 -85 -81z" />
    <glyph glyph-name="Imacron" unicode="&#x12a;" horiz-adv-x="257" 
d="M48 -1c0 0 1 306 -4 695c0 0 58 0 164 1c0 0 1 -334 5 -696c0 0 -68 1 -165 0zM-5 775c0 0 1 28 -2 93c0 0 72 -1 272 2c0 0 -2 -26 -2 -94c0 0 -79 2 -268 -1z" />
    <glyph glyph-name="Iogonek" unicode="&#x12e;" horiz-adv-x="257" 
d="M179 -202c-103 -12 -159 27 -159 93c0 41 25 81 73 109l-45 -1s1 306 -4 695c0 0 58 0 164 1c0 0 1 -334 5 -696c0 0 -20 1 -43 1c-39 -22 -57 -49 -57 -72c0 -27 23 -45 73 -42c0 0 -4 -27 -7 -88z" />
    <glyph glyph-name="Jcircumflex" unicode="&#x134;" horiz-adv-x="488" 
d="M251 732c0 0 -19 20 -62 60c0 0 41 37 112 111c0 0 28 0 97 6c0 0 35 -38 118 -111c0 0 -20 -18 -62 -65c0 0 -34 35 -104 90c0 0 -33 -26 -99 -91zM231 -13c-147 0 -219 84 -221 235c0 39 5 86 15 125c0 0 41 -6 147 -14c-4 -28 -6 -58 -6 -83c0 -88 24 -119 65 -119
c50 0 72 56 73 232c0 109 -11 211 -32 337c0 0 54 3 161 12c20 -114 33 -238 33 -355c0 -243 -70 -370 -235 -370z" />
    <glyph glyph-name="Kcommaaccent" unicode="&#x136;" horiz-adv-x="551" 
d="M347 -111c0 -47 -34 -94 -96 -136c-26 27 -40 38 -40 38c23 20 36 39 41 49c-25 7 -41 28 -41 55c0 34 28 61 69 61c42 0 67 -27 67 -67zM369 -24c-45 122 -80 208 -104 263l-67 -119c1 -70 2 -107 2 -107c-104 1 -164 -1 -164 -1c2 396 0 669 0 669c98 -3 162 -1 162 -1
c-1 -135 -1 -247 -1 -343c114 247 172 375 172 375c114 -6 177 -6 177 -6c-81 -160 -137 -276 -165 -335c94 -232 166 -386 166 -386c-109 -3 -178 -9 -178 -9z" />
    <glyph glyph-name="Lacute" unicode="&#x139;" horiz-adv-x="428" 
d="M142 726c-50 36 -74 50 -74 50c78 103 109 153 109 153c62 -45 94 -65 94 -65c-99 -102 -129 -138 -129 -138zM42 3c0 0 0 314 -6 686c0 0 51 -2 163 0c0 0 -2 -133 4 -546c144 -4 220 -3 220 -3c-2 -88 -1 -141 -1 -141c-190 4 -380 4 -380 4z" />
    <glyph glyph-name="Lcaron" unicode="&#x13d;" horiz-adv-x="428" 
d="M395 668c0 -47 -34 -94 -96 -136c-26 27 -40 38 -40 38c23 20 36 39 41 49c-25 7 -41 28 -41 55c0 34 28 61 69 61c42 0 67 -27 67 -67zM42 3c0 0 0 314 -6 686c0 0 51 -2 163 0c0 0 -2 -133 4 -546c144 -4 220 -3 220 -3c-2 -88 -1 -141 -1 -141c-190 4 -380 4 -380 4z
" />
    <glyph glyph-name="Lcommaaccent" unicode="&#x13b;" horiz-adv-x="428" 
d="M299 -100c0 -47 -34 -94 -96 -136c-26 27 -40 38 -40 38c23 20 36 39 41 49c-25 7 -41 28 -41 55c0 34 28 61 69 61c42 0 67 -27 67 -67zM42 3c0 0 0 314 -6 686c0 0 51 -2 163 0c0 0 -2 -133 4 -546c144 -4 220 -3 220 -3c-2 -88 -1 -141 -1 -141c-190 4 -380 4 -380 4z
" />
    <glyph glyph-name="Nacute" unicode="&#x143;" horiz-adv-x="559" 
d="M288 732c-50 36 -74 50 -74 50c78 103 109 153 109 153c62 -45 94 -65 94 -65c-99 -102 -129 -138 -129 -138zM39 17c0 0 3 249 -3 655c0 0 71 4 158 7c0 0 74 -189 181 -430c-2 90 -7 256 -19 464c0 0 69 -2 154 -2c0 0 3 -273 13 -718c0 0 -63 -6 -157 -11
c0 0 -72 166 -183 421c1 -85 5 -224 12 -388c0 0 -71 2 -156 2z" />
    <glyph glyph-name="Ncaron" unicode="&#x147;" horiz-adv-x="559" 
d="M233 741c0 0 -34 37 -117 111c0 0 20 18 61 65c0 0 35 -35 104 -91c0 0 33 27 100 91c0 0 18 -20 62 -59c0 0 -41 -37 -112 -112c0 0 -28 1 -98 -5zM39 17c0 0 3 249 -3 655c0 0 71 4 158 7c0 0 74 -189 181 -430c-2 90 -7 256 -19 464c0 0 69 -2 154 -2
c0 0 3 -273 13 -718c0 0 -63 -6 -157 -11c0 0 -72 166 -183 421c1 -85 5 -224 12 -388c0 0 -71 2 -156 2z" />
    <glyph glyph-name="Ncommaaccent" unicode="&#x145;" horiz-adv-x="559" 
d="M347 -100c0 -47 -34 -94 -96 -136c-26 27 -40 38 -40 38c23 20 36 39 41 49c-25 7 -41 28 -41 55c0 34 28 61 69 61c42 0 67 -27 67 -67zM39 17c0 0 3 249 -3 655c0 0 71 4 158 7c0 0 74 -189 181 -430c-2 90 -7 256 -19 464c0 0 69 -2 154 -2c0 0 3 -273 13 -718
c0 0 -63 -6 -157 -11c0 0 -72 166 -183 421c1 -85 5 -224 12 -388c0 0 -71 2 -156 2z" />
    <glyph glyph-name="Ohungarumlaut" unicode="&#x150;" horiz-adv-x="585" 
d="M369 734c-52 32 -74 42 -74 42c70 107 98 160 98 160c65 -39 92 -52 92 -52c-89 -111 -116 -150 -116 -150zM223 739c-52 31 -74 40 -74 40c68 111 93 161 93 161c63 -39 92 -52 92 -52c-86 -111 -111 -149 -111 -149zM293 -18c-178 0 -270 127 -271 362
c-2 215 84 366 271 366c188 0 271 -143 270 -365c-1 -260 -105 -363 -270 -363zM293 110c57 0 94 55 94 238c0 165 -33 232 -95 232s-95 -71 -95 -232c0 -172 33 -238 96 -238z" />
    <glyph glyph-name="Omacron" unicode="&#x14c;" horiz-adv-x="585" 
d="M158 768c0 0 1 28 -2 93c0 0 72 -1 272 2c0 0 -2 -26 -2 -94c0 0 -79 2 -268 -1zM293 -18c-178 0 -270 127 -271 362c-2 215 84 366 271 366c188 0 271 -143 270 -365c-1 -260 -105 -363 -270 -363zM293 110c57 0 94 55 94 238c0 165 -33 232 -95 232s-95 -71 -95 -232
c0 -172 33 -238 96 -238z" />
    <glyph glyph-name="Racute" unicode="&#x154;" horiz-adv-x="534" 
d="M268 746c-50 36 -74 50 -74 50c78 103 109 153 109 153c62 -45 94 -65 94 -65c-99 -102 -129 -138 -129 -138zM364 -22c0 0 -39 99 -107 256c-19 -2 -39 -3 -60 -3l4 -219s-82 1 -163 -1c0 0 4 256 1 677c68 14 130 21 184 21c192 0 297 -85 297 -240
c0 -101 -44 -163 -116 -199c22 -49 64 -138 129 -274c0 0 -68 -7 -169 -18zM197 347c103 -6 160 28 160 115c0 70 -33 116 -115 116c-14 0 -31 -1 -48 -4c1 -135 3 -227 3 -227z" />
    <glyph glyph-name="Rcaron" unicode="&#x158;" horiz-adv-x="534" 
d="M210 746c0 0 -34 37 -117 111c0 0 20 18 61 65c0 0 35 -35 104 -91c0 0 33 27 100 91c0 0 18 -20 62 -59c0 0 -41 -37 -112 -112c0 0 -28 1 -98 -5zM364 -22c0 0 -39 99 -107 256c-19 -2 -39 -3 -60 -3l4 -219s-82 1 -163 -1c0 0 4 256 1 677c68 14 130 21 184 21
c192 0 297 -85 297 -240c0 -101 -44 -163 -116 -199c22 -49 64 -138 129 -274c0 0 -68 -7 -169 -18zM197 347c103 -6 160 28 160 115c0 70 -33 116 -115 116c-14 0 -31 -1 -48 -4c1 -135 3 -227 3 -227z" />
    <glyph glyph-name="Rcommaaccent" unicode="&#x156;" horiz-adv-x="534" 
d="M328 -100c0 -47 -34 -94 -96 -136c-26 27 -40 38 -40 38c23 20 36 39 41 49c-25 7 -41 28 -41 55c0 34 28 61 69 61c42 0 67 -27 67 -67zM364 -22c0 0 -39 99 -107 256c-19 -2 -39 -3 -60 -3l4 -219s-82 1 -163 -1c0 0 4 256 1 677c68 14 130 21 184 21
c192 0 297 -85 297 -240c0 -101 -44 -163 -116 -199c22 -49 64 -138 129 -274c0 0 -68 -7 -169 -18zM197 347c103 -6 160 28 160 115c0 70 -33 116 -115 116c-14 0 -31 -1 -48 -4c1 -135 3 -227 3 -227z" />
    <glyph glyph-name="Sacute" unicode="&#x15a;" horiz-adv-x="530" 
d="M277 746c-50 36 -74 50 -74 50c78 103 109 153 109 153c62 -45 94 -65 94 -65c-99 -102 -129 -138 -129 -138zM269 -18c-172 0 -257 94 -252 264c0 0 64 -1 170 1c-4 -92 29 -139 87 -139c42 0 67 21 67 73c0 45 -26 75 -134 114c-130 48 -187 105 -187 219
c0 130 93 198 237 198c167 0 251 -95 247 -262c0 0 -70 5 -165 6c7 88 -26 132 -82 132c-43 0 -64 -30 -64 -76s32 -77 121 -108c164 -56 204 -117 204 -215c0 -146 -104 -207 -249 -207z" />
    <glyph glyph-name="Scedilla" unicode="&#x15e;" horiz-adv-x="530" 
d="M341 181c0 45 -26 75 -134 114c-130 48 -187 105 -187 219c0 130 93 198 237 198c167 0 251 -95 247 -262c0 0 -70 5 -165 6c7 88 -26 132 -82 132c-43 0 -64 -30 -64 -76s32 -77 121 -108c164 -56 204 -117 204 -215c0 -134 -88 -196 -215 -205v-34
c70 -1 107 -32 107 -75c0 -54 -53 -89 -142 -89c-30 0 -68 7 -97 20c0 0 6 26 11 62c27 -13 56 -20 81 -20c27 0 46 9 46 26c0 18 -22 30 -87 24c0 0 8 34 16 85c-151 11 -226 103 -221 263c0 0 64 -1 170 1c-4 -92 29 -139 87 -139c42 0 67 21 67 73z" />
    <glyph glyph-name="Scircumflex" unicode="&#x15c;" horiz-adv-x="530" 
d="M163 737c0 0 -19 20 -62 60c0 0 41 37 112 111c0 0 28 0 97 6c0 0 35 -38 118 -111c0 0 -20 -18 -62 -65c0 0 -34 35 -104 90c0 0 -33 -26 -99 -91zM269 -18c-172 0 -257 94 -252 264c0 0 64 -1 170 1c-4 -92 29 -139 87 -139c42 0 67 21 67 73c0 45 -26 75 -134 114
c-130 48 -187 105 -187 219c0 130 93 198 237 198c167 0 251 -95 247 -262c0 0 -70 5 -165 6c7 88 -26 132 -82 132c-43 0 -64 -30 -64 -76s32 -77 121 -108c164 -56 204 -117 204 -215c0 -146 -104 -207 -249 -207z" />
    <glyph glyph-name="Scommaaccent" unicode="&#x218;" horiz-adv-x="530" 
d="M334 -109c0 -47 -34 -94 -96 -136c-26 27 -40 38 -40 38c23 20 36 39 41 49c-25 7 -41 28 -41 55c0 34 28 61 69 61c42 0 67 -27 67 -67zM269 -18c-172 0 -257 94 -252 264c0 0 64 -1 170 1c-4 -92 29 -139 87 -139c42 0 67 21 67 73c0 45 -26 75 -134 114
c-130 48 -187 105 -187 219c0 130 93 198 237 198c167 0 251 -95 247 -262c0 0 -70 5 -165 6c7 88 -26 132 -82 132c-43 0 -64 -30 -64 -76s32 -77 121 -108c164 -56 204 -117 204 -215c0 -146 -104 -207 -249 -207z" />
    <glyph glyph-name="Tcaron" unicode="&#x164;" horiz-adv-x="468" 
d="M189 736c0 0 -34 37 -117 111c0 0 20 18 61 65c0 0 35 -35 104 -91c0 0 33 27 100 91c0 0 18 -20 62 -59c0 0 -41 -37 -112 -112c0 0 -28 1 -98 -5zM9 547c0 0 0 54 -1 148c0 0 227 0 452 3c0 0 -2 -67 -1 -151c0 0 -62 0 -144 1c0 -115 2 -303 5 -553c0 0 -67 1 -165 -1
c0 0 1 217 -2 554z" />
    <glyph glyph-name="Tcommaaccent" unicode="&#x162;" horiz-adv-x="468" 
d="M303 -100c0 -47 -34 -94 -96 -136c-26 27 -40 38 -40 38c23 20 36 39 41 49c-25 7 -41 28 -41 55c0 34 28 61 69 61c42 0 67 -27 67 -67zM9 547c0 0 0 54 -1 148c0 0 227 0 452 3c0 0 -2 -67 -1 -151c0 0 -62 0 -144 1c0 -115 2 -303 5 -553c0 0 -67 1 -165 -1
c0 0 1 217 -2 554z" />
    <glyph glyph-name="Ubreve" unicode="&#x16c;" horiz-adv-x="541" 
d="M272 -14c-176 0 -250 134 -250 399c0 100 9 201 25 299c0 0 49 -8 159 -20c-14 -103 -22 -180 -22 -253c0 -202 32 -273 86 -273c56 0 82 52 82 234c0 98 -10 216 -27 332c0 0 57 2 164 11c19 -116 31 -232 31 -336c0 -263 -72 -393 -248 -393zM269 741
c-107 0 -151 61 -147 133c0 0 35 0 98 4c-1 -33 16 -57 50 -57c29 0 52 19 47 67c0 0 31 -1 100 1c8 -105 -62 -148 -148 -148z" />
    <glyph glyph-name="Uhungarumlaut" unicode="&#x170;" horiz-adv-x="541" 
d="M272 -14c-176 0 -250 134 -250 399c0 100 9 201 25 299c0 0 49 -8 159 -20c-14 -103 -22 -180 -22 -253c0 -202 32 -273 86 -273c56 0 82 52 82 234c0 98 -10 216 -27 332c0 0 57 2 164 11c19 -116 31 -232 31 -336c0 -263 -72 -393 -248 -393zM347 737
c-52 32 -74 42 -74 42c70 107 98 160 98 160c65 -39 92 -52 92 -52c-89 -111 -116 -150 -116 -150zM201 742c-52 31 -74 40 -74 40c68 111 93 161 93 161c63 -39 92 -52 92 -52c-86 -111 -111 -149 -111 -149z" />
    <glyph glyph-name="Umacron" unicode="&#x16a;" horiz-adv-x="541" 
d="M272 -14c-176 0 -250 134 -250 399c0 100 9 201 25 299c0 0 49 -8 159 -20c-14 -103 -22 -180 -22 -253c0 -202 32 -273 86 -273c56 0 82 52 82 234c0 98 -10 216 -27 332c0 0 57 2 164 11c19 -116 31 -232 31 -336c0 -263 -72 -393 -248 -393zM136 773c0 0 1 28 -2 93
c0 0 72 -1 272 2c0 0 -2 -26 -2 -94c0 0 -79 2 -268 -1z" />
    <glyph glyph-name="Uogonek" unicode="&#x172;" horiz-adv-x="541" 
d="M347 -200c-103 -11 -159 28 -159 94c-1 34 17 68 51 94c-152 16 -217 149 -217 397c0 100 9 201 25 299c0 0 49 -8 159 -20c-14 -103 -22 -180 -22 -253c0 -202 32 -273 86 -273c56 0 82 52 82 234c0 98 -10 216 -27 332c0 0 57 2 164 11c19 -116 31 -232 31 -336
c0 -239 -60 -368 -202 -389c-26 -20 -37 -41 -37 -59c0 -28 22 -45 72 -43c0 0 -4 -27 -6 -88z" />
    <glyph glyph-name="Uring" unicode="&#x16e;" horiz-adv-x="541" 
d="M271 737c-73 0 -110 45 -110 101c0 61 47 97 111 97c74 0 112 -45 112 -97c0 -73 -53 -101 -113 -101zM274 791c26 0 42 19 42 47c0 23 -13 47 -42 47c-28 0 -44 -20 -44 -47s15 -47 44 -47zM272 -14c-176 0 -250 134 -250 399c0 100 9 201 25 299c0 0 49 -8 159 -20
c-14 -103 -22 -180 -22 -253c0 -202 32 -273 86 -273c56 0 82 52 82 234c0 98 -10 216 -27 332c0 0 57 2 164 11c19 -116 31 -232 31 -336c0 -263 -72 -393 -248 -393z" />
    <glyph glyph-name="Zacute" unicode="&#x179;" horiz-adv-x="470" 
d="M247 731c-50 36 -74 50 -74 50c78 103 109 153 109 153c62 -45 94 -65 94 -65c-99 -102 -129 -138 -129 -138zM446 -3c-255 6 -425 6 -425 6c2 94 1 137 1 137c121 193 205 332 251 408c-154 -1 -246 -5 -246 -5c0 109 -1 150 -1 150c273 2 417 6 417 6
c3 -87 2 -145 2 -145c-118 -195 -203 -333 -249 -409c138 -3 252 -3 252 -3c-3 -113 -2 -145 -2 -145z" />
    <glyph glyph-name="Zdotaccent" unicode="&#x17b;" horiz-adv-x="470" 
d="M446 -3c-255 6 -425 6 -425 6c2 94 1 137 1 137c121 193 205 332 251 408c-154 -1 -246 -5 -246 -5c0 109 -1 150 -1 150c273 2 417 6 417 6c3 -87 2 -145 2 -145c-118 -195 -203 -333 -249 -409c138 -3 252 -3 252 -3c-3 -113 -2 -145 -2 -145zM236 749
c-57 0 -84 40 -84 82s30 78 84 78c57 0 85 -41 85 -79c0 -53 -36 -81 -85 -81z" />
    <glyph glyph-name="abreve" unicode="&#x103;" horiz-adv-x="491" 
d="M180 -15c-100 0 -167 55 -167 143c0 112 91 180 287 173c0 0 0 13 -1 23c-3 56 -20 83 -57 83c-39 0 -58 -31 -61 -82c0 0 -58 1 -149 4c4 111 83 187 213 187c150 0 213 -76 216 -212c4 -166 1 -318 1 -318s-48 0 -130 -1c0 0 3 31 4 79c-30 -56 -92 -79 -156 -79z
M307 205v19c-99 3 -134 -34 -134 -80c0 -35 20 -56 57 -56c40 0 77 26 77 117zM245 554c-107 0 -151 61 -147 133c0 0 35 0 98 4c-1 -33 16 -57 50 -57c29 0 52 19 47 67c0 0 31 -1 100 1c8 -105 -62 -148 -148 -148z" />
    <glyph glyph-name="amacron" unicode="&#x101;" horiz-adv-x="491" 
d="M180 -15c-100 0 -167 55 -167 143c0 112 91 180 287 173c0 0 0 13 -1 23c-3 56 -20 83 -57 83c-39 0 -58 -31 -61 -82c0 0 -58 1 -149 4c4 111 83 187 213 187c150 0 213 -76 216 -212c4 -166 1 -318 1 -318s-48 0 -130 -1c0 0 3 31 4 79c-30 -56 -92 -79 -156 -79z
M307 205v19c-99 3 -134 -34 -134 -80c0 -35 20 -56 57 -56c40 0 77 26 77 117zM111 575c0 0 1 28 -2 93c0 0 72 -1 272 2c0 0 -2 -26 -2 -94c0 0 -79 2 -268 -1z" />
    <glyph glyph-name="aogonek" unicode="&#x105;" horiz-adv-x="491" 
d="M180 -15c-100 0 -167 55 -167 143c0 112 91 180 287 173c0 0 0 13 -1 23c-3 56 -20 83 -57 83c-39 0 -58 -31 -61 -82c0 0 -58 1 -149 4c4 111 83 187 213 187c150 0 213 -76 216 -212c4 -166 1 -318 1 -318s-26 1 -67 0c-28 -19 -42 -42 -42 -61c0 -28 23 -46 73 -43
c0 0 -4 -27 -7 -88c-102 -12 -158 28 -159 94c0 39 24 79 73 107l3 69c-30 -56 -92 -79 -156 -79zM307 205v19c-99 3 -134 -34 -134 -80c0 -35 20 -56 57 -56c40 0 77 26 77 117z" />
    <glyph glyph-name="cacute" unicode="&#x107;" horiz-adv-x="501" 
d="M267 545c-50 36 -74 50 -74 50c78 103 109 153 109 153c62 -45 94 -65 94 -65c-99 -102 -129 -138 -129 -138zM261 -16c-164 0 -239 101 -239 268c0 159 80 265 236 265c142 0 226 -92 227 -222c-73 2 -166 -2 -166 -2c-2 69 -24 110 -63 110c-46 0 -70 -55 -70 -154
c0 -96 24 -144 71 -144c33 -1 60 29 61 105c0 0 49 -4 170 -4c-11 -161 -107 -222 -227 -222z" />
    <glyph glyph-name="ccaron" unicode="&#x10d;" horiz-adv-x="501" 
d="M210 547c0 0 -34 37 -117 111c0 0 20 18 61 65c0 0 35 -35 104 -91c0 0 33 27 100 91c0 0 18 -20 62 -59c0 0 -41 -37 -112 -112c0 0 -28 1 -98 -5zM261 -16c-164 0 -239 101 -239 268c0 159 80 265 236 265c142 0 226 -92 227 -222c-73 2 -166 -2 -166 -2
c-2 69 -24 110 -63 110c-46 0 -70 -55 -70 -154c0 -96 24 -144 71 -144c33 -1 60 29 61 105c0 0 49 -4 170 -4c-11 -161 -107 -222 -227 -222z" />
    <glyph glyph-name="ccircumflex" unicode="&#x109;" horiz-adv-x="501" 
d="M155 537c0 0 -19 20 -62 60c0 0 41 37 112 111c0 0 28 0 97 6c0 0 35 -38 118 -111c0 0 -20 -18 -62 -65c0 0 -34 35 -104 90c0 0 -33 -26 -99 -91zM261 -16c-164 0 -239 101 -239 268c0 159 80 265 236 265c142 0 226 -92 227 -222c-73 2 -166 -2 -166 -2
c-2 69 -24 110 -63 110c-46 0 -70 -55 -70 -154c0 -96 24 -144 71 -144c33 -1 60 29 61 105c0 0 49 -4 170 -4c-11 -161 -107 -222 -227 -222z" />
    <glyph glyph-name="dcaron" unicode="&#x10f;" horiz-adv-x="533" 
d="M669 621c0 -47 -34 -94 -96 -136c-26 27 -40 38 -40 38c23 20 36 39 41 49c-25 7 -41 28 -41 55c0 34 28 61 69 61c42 0 67 -27 67 -67zM497 -20c0 0 -77 2 -137 2c0 0 2 33 3 83c-30 -52 -82 -76 -140 -76c-123 0 -201 89 -201 264c0 157 67 262 194 262
c54 0 97 -27 124 -65c-1 56 -3 133 -7 236c0 0 33 -1 165 1c0 0 -3 -318 -1 -707zM266 91c44 0 76 43 76 158c-1 101 -27 160 -77 160c-47 0 -74 -59 -74 -158c0 -109 29 -160 75 -160z" />
    <glyph glyph-name="ecaron" unicode="&#x11b;" horiz-adv-x="519" 
d="M215 546c0 0 -34 37 -117 111c0 0 20 18 61 65c0 0 35 -35 104 -91c0 0 33 27 100 91c0 0 18 -20 62 -59c0 0 -41 -37 -112 -112c0 0 -28 1 -98 -5zM267 -16c-181 0 -245 114 -245 270c0 154 85 262 238 262c185 -1 246 -125 238 -304c0 0 -109 -1 -310 -5
c6 -80 31 -117 77 -117c36 0 60 26 68 81c0 0 62 -2 166 -5c-29 -120 -115 -182 -232 -182zM263 413c-46 0 -70 -43 -75 -127c39 1 86 2 145 5c-1 78 -25 122 -70 122z" />
    <glyph glyph-name="edotaccent" unicode="&#x117;" horiz-adv-x="519" 
d="M267 -16c-181 0 -245 114 -245 270c0 154 85 262 238 262c185 -1 246 -125 238 -304c0 0 -109 -1 -310 -5c6 -80 31 -117 77 -117c36 0 60 26 68 81c0 0 62 -2 166 -5c-29 -120 -115 -182 -232 -182zM263 413c-46 0 -70 -43 -75 -127c39 1 86 2 145 5
c-1 78 -25 122 -70 122zM261 559c-57 0 -84 40 -84 82s30 78 84 78c57 0 85 -41 85 -79c0 -53 -36 -81 -85 -81z" />
    <glyph glyph-name="emacron" unicode="&#x113;" horiz-adv-x="519" 
d="M267 -16c-181 0 -245 114 -245 270c0 154 85 262 238 262c185 -1 246 -125 238 -304c0 0 -109 -1 -310 -5c6 -80 31 -117 77 -117c36 0 60 26 68 81c0 0 62 -2 166 -5c-29 -120 -115 -182 -232 -182zM263 413c-46 0 -70 -43 -75 -127c39 1 86 2 145 5
c-1 78 -25 122 -70 122zM127 578c0 0 1 28 -2 93c0 0 72 -1 272 2c0 0 -2 -26 -2 -94c0 0 -79 2 -268 -1z" />
    <glyph glyph-name="eogonek" unicode="&#x119;" horiz-adv-x="519" 
d="M337 -200c-103 -11 -159 28 -159 94c-1 33 17 66 49 92c-151 15 -205 124 -205 268c0 154 85 262 238 262c185 -1 246 -125 238 -304c0 0 -109 -1 -310 -5c6 -80 31 -117 77 -117c36 0 60 26 68 81c0 0 62 -2 166 -5c-26 -107 -97 -167 -195 -179
c-23 -19 -33 -39 -33 -56c0 -28 22 -45 72 -43c0 0 -4 -27 -6 -88zM263 413c-46 0 -70 -43 -75 -127c39 1 86 2 145 5c-1 78 -25 122 -70 122z" />
    <glyph glyph-name="gbreve" unicode="&#x11f;" horiz-adv-x="479" 
d="M241 193c38 0 65 34 65 112c0 67 -22 110 -65 110s-66 -41 -66 -110c0 -76 25 -112 66 -112zM341 -129c0 30 -29 47 -132 53c-28 -15 -42 -34 -42 -54c0 -32 34 -49 85 -48c54 0 89 19 89 49zM494 -99c0 -117 -128 -173 -260 -173c-135 0 -225 42 -225 122
c0 50 37 90 104 106c-42 16 -66 47 -66 80c0 37 27 67 72 88c-63 32 -101 93 -101 187c0 130 89 212 223 212c140 0 224 -80 224 -214c0 -148 -101 -211 -216 -211c-18 0 -35 1 -51 3c-7 -6 -10 -13 -10 -20c0 -15 17 -26 95 -33c151 -14 211 -61 211 -147zM247 564
c-107 0 -151 61 -147 133c0 0 35 0 98 4c-1 -33 16 -57 50 -57c29 0 52 19 47 67c0 0 31 -1 100 1c8 -105 -62 -148 -148 -148z" />
    <glyph glyph-name="gcircumflex" unicode="&#x11d;" horiz-adv-x="479" 
d="M241 193c38 0 65 34 65 112c0 67 -22 110 -65 110s-66 -41 -66 -110c0 -76 25 -112 66 -112zM341 -129c0 30 -29 47 -132 53c-28 -15 -42 -34 -42 -54c0 -32 34 -49 85 -48c54 0 89 19 89 49zM494 -99c0 -117 -128 -173 -260 -173c-135 0 -225 42 -225 122
c0 50 37 90 104 106c-42 16 -66 47 -66 80c0 37 27 67 72 88c-63 32 -101 93 -101 187c0 130 89 212 223 212c140 0 224 -80 224 -214c0 -148 -101 -211 -216 -211c-18 0 -35 1 -51 3c-7 -6 -10 -13 -10 -20c0 -15 17 -26 95 -33c151 -14 211 -61 211 -147zM146 548
c0 0 -19 20 -62 60c0 0 41 37 112 111c0 0 28 0 97 6c0 0 35 -38 118 -111c0 0 -20 -18 -62 -65c0 0 -34 35 -104 90c0 0 -33 -26 -99 -91z" />
    <glyph glyph-name="gcommaaccent" unicode="&#x123;" horiz-adv-x="479" 
d="M241 193c38 0 65 34 65 112c0 67 -22 110 -65 110s-66 -41 -66 -110c0 -76 25 -112 66 -112zM341 -129c0 30 -29 47 -132 53c-28 -15 -42 -34 -42 -54c0 -32 34 -49 85 -48c54 0 89 19 89 49zM494 -99c0 -117 -128 -173 -260 -173c-135 0 -225 42 -225 122
c0 50 37 90 104 106c-42 16 -66 47 -66 80c0 37 27 67 72 88c-63 32 -101 93 -101 187c0 130 89 212 223 212c140 0 224 -80 224 -214c0 -148 -101 -211 -216 -211c-18 0 -35 1 -51 3c-7 -6 -10 -13 -10 -20c0 -15 17 -26 95 -33c151 -14 211 -61 211 -147zM178 626
c0 47 34 94 96 136c26 -27 40 -38 40 -38c-23 -20 -36 -39 -41 -49c25 -7 41 -28 41 -55c0 -34 -28 -61 -69 -61c-42 0 -67 27 -67 67z" />
    <glyph glyph-name="hcircumflex" unicode="&#x125;" horiz-adv-x="502" 
d="M11 698c0 0 -19 20 -62 60c0 0 41 37 112 111c0 0 28 0 97 6c0 0 35 -38 118 -111c0 0 -20 -18 -62 -65c0 0 -34 35 -104 90c0 0 -33 -26 -99 -91zM34 17c0 0 4 290 0 661c0 0 54 0 158 1c0 0 -3 -108 -2 -243c28 48 76 80 142 80c90 0 137 -65 141 -169
c5 -169 1 -365 1 -365s-62 2 -159 2c0 0 4 165 1 318c-2 49 -14 75 -50 75c-45 0 -69 -45 -70 -105c-2 -120 0 -254 0 -254s-63 1 -162 -1z" />
    <glyph glyph-name="imacron" unicode="&#x12b;" horiz-adv-x="239" 
d="M42 1c0 0 1 133 -3 500c0 0 59 -1 160 1c0 0 -1 -228 3 -500c0 0 -68 1 -160 -1zM-13 583c0 0 1 28 -2 93c0 0 72 -1 272 2c0 0 -2 -26 -2 -94c0 0 -79 2 -268 -1z" />
    <glyph glyph-name="iogonek" unicode="&#x12f;" horiz-adv-x="239" 
d="M42 1c0 0 1 133 -3 500c0 0 59 -1 160 1c0 0 -1 -228 3 -500h-40c-38 -22 -54 -48 -54 -70c0 -28 23 -45 73 -43c0 0 -5 -27 -7 -88c-103 -12 -159 28 -159 94c-1 40 24 79 71 107zM121 549c-67 0 -100 30 -100 87c0 52 34 84 100 84s97 -35 97 -84
c0 -50 -30 -87 -97 -87z" />
    <glyph glyph-name="jcircumflex" unicode="&#x135;" horiz-adv-x="239" 
d="M21 545c0 0 -19 20 -62 60c0 0 41 37 112 111c0 0 28 0 97 6c0 0 35 -38 118 -111c0 0 -20 -18 -62 -65c0 0 -34 35 -104 90c0 0 -33 -26 -99 -91zM-72 -220c0 0 3 42 4 131c11 -1 22 -2 31 -2c59 0 79 25 80 85c3 196 -1 505 -1 505c106 -1 155 1 155 1s7 -215 4 -524
c-1 -134 -68 -201 -205 -201c-21 0 -44 2 -68 5z" />
    <glyph glyph-name="kcommaaccent" unicode="&#x137;" horiz-adv-x="499" 
d="M321 -103c0 -47 -34 -94 -96 -136c-26 27 -40 38 -40 38c23 20 36 39 41 49c-25 7 -41 28 -41 55c0 34 28 61 69 61c42 0 67 -27 67 -67zM325 -21c-36 97 -63 166 -81 208c-22 -33 -39 -59 -50 -77c0 -66 1 -95 1 -95c-100 3 -161 1 -161 1c3 475 0 664 0 664
c110 -3 161 -1 161 -1c-1 -177 -2 -304 -2 -403c76 153 113 243 113 243c114 -6 184 -7 184 -7c-66 -100 -108 -170 -132 -211c86 -200 138 -316 138 -316c-123 -2 -171 -6 -171 -6z" />
    <glyph glyph-name="lacute" unicode="&#x13a;" horiz-adv-x="235" 
d="M136 715c-50 36 -74 50 -74 50c78 103 109 153 109 153c62 -45 94 -65 94 -65c-99 -102 -129 -138 -129 -138zM197 8c-100 2 -160 2 -160 2c4 482 1 677 1 677c110 -2 161 -2 161 -2c-5 -533 -2 -677 -2 -677z" />
    <glyph glyph-name="lcaron" unicode="&#x13e;" horiz-adv-x="235" 
d="M370 621c0 -47 -34 -94 -96 -136c-26 27 -40 38 -40 38c23 20 36 39 41 49c-25 7 -41 28 -41 55c0 34 28 61 69 61c42 0 67 -27 67 -67zM197 8c-100 2 -160 2 -160 2c4 482 1 677 1 677c110 -2 161 -2 161 -2c-5 -533 -2 -677 -2 -677z" />
    <glyph glyph-name="lcommaaccent" unicode="&#x13c;" horiz-adv-x="235" 
d="M186 -100c0 -47 -34 -94 -96 -136c-26 27 -40 38 -40 38c23 20 36 39 41 49c-25 7 -41 28 -41 55c0 34 28 61 69 61c42 0 67 -27 67 -67zM197 8c-100 2 -160 2 -160 2c4 482 1 677 1 677c110 -2 161 -2 161 -2c-5 -533 -2 -677 -2 -677z" />
    <glyph glyph-name="nacute" unicode="&#x144;" horiz-adv-x="501" 
d="M271 539c-50 36 -74 50 -74 50c78 103 109 153 109 153c62 -45 94 -65 94 -65c-99 -102 -129 -138 -129 -138zM313 -19c0 0 3 169 1 322c0 46 -12 74 -48 74c-44 0 -69 -44 -71 -102c-2 -73 -1 -260 -1 -260s-87 2 -161 0c0 0 3 191 1 475c0 0 66 -2 127 1
c0 0 -2 -40 -1 -80c27 60 87 105 164 104c95 -1 144 -63 147 -170c3 -72 3 -363 3 -363c-50 0 -161 -1 -161 -1z" />
    <glyph glyph-name="ncaron" unicode="&#x148;" horiz-adv-x="501" 
d="M213 544c0 0 -34 37 -117 111c0 0 20 18 61 65c0 0 35 -35 104 -91c0 0 33 27 100 91c0 0 18 -20 62 -59c0 0 -41 -37 -112 -112c0 0 -28 1 -98 -5zM313 -19c0 0 3 169 1 322c0 46 -12 74 -48 74c-44 0 -69 -44 -71 -102c-2 -73 -1 -260 -1 -260s-87 2 -161 0
c0 0 3 191 1 475c0 0 66 -2 127 1c0 0 -2 -40 -1 -80c27 60 87 105 164 104c95 -1 144 -63 147 -170c3 -72 3 -363 3 -363c-50 0 -161 -1 -161 -1z" />
    <glyph glyph-name="ncommaaccent" unicode="&#x146;" horiz-adv-x="501" 
d="M326 -105c0 -47 -34 -94 -96 -136c-26 27 -40 38 -40 38c23 20 36 39 41 49c-25 7 -41 28 -41 55c0 34 28 61 69 61c42 0 67 -27 67 -67zM313 -19c0 0 3 169 1 322c0 46 -12 74 -48 74c-44 0 -69 -44 -71 -102c-2 -73 -1 -260 -1 -260s-87 2 -161 0c0 0 3 191 1 475
c0 0 66 -2 127 1c0 0 -2 -40 -1 -80c27 60 87 105 164 104c95 -1 144 -63 147 -170c3 -72 3 -363 3 -363c-50 0 -161 -1 -161 -1z" />
    <glyph glyph-name="ohungarumlaut" unicode="&#x151;" horiz-adv-x="528" 
d="M340 543c-52 32 -74 42 -74 42c70 107 98 160 98 160c65 -39 92 -52 92 -52c-89 -111 -116 -150 -116 -150zM194 548c-52 31 -74 40 -74 40c68 111 93 161 93 161c63 -39 92 -52 92 -52c-86 -111 -111 -149 -111 -149zM262 -13c-157 0 -240 99 -240 272
c0 157 92 257 241 257c156 0 243 -103 242 -262c0 -187 -102 -267 -243 -267zM264 95c46 0 75 45 75 160c0 98 -23 153 -74 153c-48 0 -76 -50 -76 -149c0 -117 23 -164 75 -164z" />
    <glyph glyph-name="omacron" unicode="&#x14d;" horiz-adv-x="528" 
d="M130 577c0 0 1 28 -2 93c0 0 72 -1 272 2c0 0 -2 -26 -2 -94c0 0 -79 2 -268 -1zM262 -13c-157 0 -240 99 -240 272c0 157 92 257 241 257c156 0 243 -103 242 -262c0 -187 -102 -267 -243 -267zM264 95c46 0 75 45 75 160c0 98 -23 153 -74 153c-48 0 -76 -50 -76 -149
c0 -117 23 -164 75 -164z" />
    <glyph glyph-name="racute" unicode="&#x155;" horiz-adv-x="359" 
d="M218 535c-50 36 -74 50 -74 50c78 103 109 153 109 153c62 -45 94 -65 94 -65c-99 -102 -129 -138 -129 -138zM34 -1c0 0 2 253 -1 495c0 0 41 -1 132 1c0 0 -2 -39 -2 -89c31 69 104 112 188 107c0 0 -3 -53 -5 -152c-112 -8 -149 -54 -152 -174c-2 -75 2 -187 2 -187
s-54 0 -162 -1z" />
    <glyph glyph-name="rcaron" unicode="&#x159;" horiz-adv-x="359" 
d="M159 542c0 0 -34 37 -117 111c0 0 20 18 61 65c0 0 35 -35 104 -91c0 0 33 27 100 91c0 0 18 -20 62 -59c0 0 -41 -37 -112 -112c0 0 -28 1 -98 -5zM34 -1c0 0 2 253 -1 495c0 0 41 -1 132 1c0 0 -2 -39 -2 -89c31 69 104 112 188 107c0 0 -3 -53 -5 -152
c-112 -8 -149 -54 -152 -174c-2 -75 2 -187 2 -187s-54 0 -162 -1z" />
    <glyph glyph-name="rcommaaccent" unicode="&#x157;" horiz-adv-x="359" 
d="M185 -100c0 -47 -34 -94 -96 -136c-26 27 -40 38 -40 38c23 20 36 39 41 49c-25 7 -41 28 -41 55c0 34 28 61 69 61c42 0 67 -27 67 -67zM34 -1c0 0 2 253 -1 495c0 0 41 -1 132 1c0 0 -2 -39 -2 -89c31 69 104 112 188 107c0 0 -3 -53 -5 -152
c-112 -8 -149 -54 -152 -174c-2 -75 2 -187 2 -187s-54 0 -162 -1z" />
    <glyph glyph-name="sacute" unicode="&#x15b;" horiz-adv-x="460" 
d="M242 547c-50 36 -74 50 -74 50c78 103 109 153 109 153c62 -45 94 -65 94 -65c-99 -102 -129 -138 -129 -138zM240 -21c-138 0 -225 63 -226 199l152 -3c1 -59 26 -86 74 -86c32 0 55 16 55 46c0 29 -18 47 -113 69c-112 26 -162 77 -162 165c0 89 75 153 206 153
c143 0 215 -82 217 -196c0 0 -54 1 -147 -2c-1 52 -24 86 -67 86c-38 0 -55 -21 -55 -44c0 -32 22 -51 106 -72c134 -33 170 -79 170 -155c0 -111 -91 -160 -210 -160z" />
    <glyph glyph-name="scedilla" unicode="&#x15f;" horiz-adv-x="460" 
d="M295 135c0 29 -18 47 -113 69c-112 26 -162 77 -162 165c0 89 75 153 206 153c143 0 215 -82 217 -196c0 0 -54 1 -147 -2c-1 52 -24 86 -67 86c-38 0 -55 -21 -55 -44c0 -32 22 -51 106 -72c134 -33 170 -79 170 -155c0 -102 -76 -151 -181 -159v-34
c70 -1 107 -32 107 -75c0 -54 -53 -89 -142 -89c-30 0 -68 7 -97 20c0 0 6 26 11 62c27 -13 56 -20 81 -20c27 0 46 9 46 26c0 18 -22 30 -87 24c0 0 8 35 16 87c-117 10 -189 73 -190 197l152 -3c1 -59 26 -86 74 -86c32 0 55 16 55 46z" />
    <glyph glyph-name="scircumflex" unicode="&#x15d;" horiz-adv-x="460" 
d="M130 540c0 0 -19 20 -62 60c0 0 41 37 112 111c0 0 28 0 97 6c0 0 35 -38 118 -111c0 0 -20 -18 -62 -65c0 0 -34 35 -104 90c0 0 -33 -26 -99 -91zM240 -21c-138 0 -225 63 -226 199l152 -3c1 -59 26 -86 74 -86c32 0 55 16 55 46c0 29 -18 47 -113 69
c-112 26 -162 77 -162 165c0 89 75 153 206 153c143 0 215 -82 217 -196c0 0 -54 1 -147 -2c-1 52 -24 86 -67 86c-38 0 -55 -21 -55 -44c0 -32 22 -51 106 -72c134 -33 170 -79 170 -155c0 -111 -91 -160 -210 -160z" />
    <glyph glyph-name="scommaaccent" unicode="&#x219;" horiz-adv-x="460" 
d="M299 -113c0 -47 -34 -94 -96 -136c-26 27 -40 38 -40 38c23 20 36 39 41 49c-25 7 -41 28 -41 55c0 34 28 61 69 61c42 0 67 -27 67 -67zM240 -21c-138 0 -225 63 -226 199l152 -3c1 -59 26 -86 74 -86c32 0 55 16 55 46c0 29 -18 47 -113 69c-112 26 -162 77 -162 165
c0 89 75 153 206 153c143 0 215 -82 217 -196c0 0 -54 1 -147 -2c-1 52 -24 86 -67 86c-38 0 -55 -21 -55 -44c0 -32 22 -51 106 -72c134 -33 170 -79 170 -155c0 -111 -91 -160 -210 -160z" />
    <glyph glyph-name="tcaron" unicode="&#x165;" horiz-adv-x="384" 
d="M410 676c0 -47 -34 -94 -96 -136c-26 27 -40 38 -40 38c23 20 36 39 41 49c-25 7 -41 28 -41 55c0 34 28 61 69 61c42 0 67 -27 67 -67zM369 16c-46 -12 -88 -19 -125 -19c-102 0 -169 52 -171 184c-1 67 -1 133 -1 195h-65c1 99 -1 130 -1 130c23 -1 46 -1 67 -1
c1 77 2 129 2 129c96 -1 157 0 157 0s-2 -54 -3 -131h131c-3 -104 -1 -128 -1 -128c-47 1 -87 1 -130 1c0 -54 0 -109 2 -163c1 -48 22 -70 69 -70c16 0 35 3 58 9c6 -84 11 -136 11 -136z" />
    <glyph glyph-name="tcommaaccent" unicode="&#x163;" horiz-adv-x="384" 
d="M298 -100c0 -47 -34 -94 -96 -136c-26 27 -40 38 -40 38c23 20 36 39 41 49c-25 7 -41 28 -41 55c0 34 28 61 69 61c42 0 67 -27 67 -67zM369 16c-46 -12 -88 -19 -125 -19c-102 0 -169 52 -171 184c-1 67 -1 133 -1 195h-65c1 99 -1 130 -1 130c23 -1 46 -1 67 -1
c1 77 2 129 2 129c96 -1 157 0 157 0s-2 -54 -3 -131h131c-3 -104 -1 -128 -1 -128c-47 1 -87 1 -130 1c0 -54 0 -109 2 -163c1 -48 22 -70 69 -70c16 0 35 3 58 9c6 -84 11 -136 11 -136z" />
    <glyph glyph-name="ubreve" unicode="&#x16d;" 
d="M200 -4c-122 0 -172 83 -172 295c0 69 4 140 13 210c0 0 39 -6 151 -11c-6 -55 -8 -115 -8 -161c0 -160 19 -202 63 -202c32 0 60 33 62 104c4 140 -3 286 -3 286s41 -2 161 -2c0 0 -3 -218 1 -528c0 0 -43 2 -133 1c0 0 1 36 2 84c-31 -51 -82 -76 -137 -76zM248 550
c-107 0 -151 61 -147 133c0 0 35 0 98 4c-1 -33 16 -57 50 -57c29 0 52 19 47 67c0 0 31 -1 100 1c8 -105 -62 -148 -148 -148z" />
    <glyph glyph-name="uhungarumlaut" unicode="&#x171;" 
d="M200 -4c-122 0 -172 83 -172 295c0 69 4 140 13 210c0 0 39 -6 151 -11c-6 -55 -8 -115 -8 -161c0 -160 19 -202 63 -202c32 0 60 33 62 104c4 140 -3 286 -3 286s41 -2 161 -2c0 0 -3 -218 1 -528c0 0 -43 2 -133 1c0 0 1 36 2 84c-31 -51 -82 -76 -137 -76zM324 541
c-52 32 -74 42 -74 42c70 107 98 160 98 160c65 -39 92 -52 92 -52c-89 -111 -116 -150 -116 -150zM178 546c-52 31 -74 40 -74 40c68 111 93 161 93 161c63 -39 92 -52 92 -52c-86 -111 -111 -149 -111 -149z" />
    <glyph glyph-name="umacron" unicode="&#x16b;" 
d="M200 -4c-122 0 -172 83 -172 295c0 69 4 140 13 210c0 0 39 -6 151 -11c-6 -55 -8 -115 -8 -161c0 -160 19 -202 63 -202c32 0 60 33 62 104c4 140 -3 286 -3 286s41 -2 161 -2c0 0 -3 -218 1 -528c0 0 -43 2 -133 1c0 0 1 36 2 84c-31 -51 -82 -76 -137 -76zM114 579
c0 0 1 28 -2 93c0 0 72 -1 272 2c0 0 -2 -26 -2 -94c0 0 -79 2 -268 -1z" />
    <glyph glyph-name="uogonek" unicode="&#x173;" 
d="M200 -4c-122 0 -172 83 -172 295c0 69 4 140 13 210c0 0 39 -6 151 -11c-6 -55 -8 -115 -8 -161c0 -160 19 -202 63 -202c32 0 60 33 62 104c4 140 -3 286 -3 286s41 -2 161 -2c0 0 -3 -218 1 -528c0 0 -23 1 -63 2c-26 -20 -38 -42 -38 -61c0 -27 22 -45 72 -42
c0 0 -4 -27 -6 -88c-103 -12 -159 27 -159 93c-1 37 21 74 61 102c0 8 1 38 2 79c-31 -51 -82 -76 -137 -76z" />
    <glyph glyph-name="uring" unicode="&#x16f;" 
d="M243 545c-73 0 -110 45 -110 101c0 61 47 97 111 97c74 0 112 -45 112 -97c0 -73 -53 -101 -113 -101zM246 599c26 0 42 19 42 47c0 23 -13 47 -42 47c-28 0 -44 -20 -44 -47s15 -47 44 -47zM200 -4c-122 0 -172 83 -172 295c0 69 4 140 13 210c0 0 39 -6 151 -11
c-6 -55 -8 -115 -8 -161c0 -160 19 -202 63 -202c32 0 60 33 62 104c4 140 -3 286 -3 286s41 -2 161 -2c0 0 -3 -218 1 -528c0 0 -43 2 -133 1c0 0 1 36 2 84c-31 -51 -82 -76 -137 -76z" />
    <glyph glyph-name="zacute" unicode="&#x17a;" horiz-adv-x="434" 
d="M231 535c-50 36 -74 50 -74 50c78 103 109 153 109 153c62 -45 94 -65 94 -65c-99 -102 -129 -138 -129 -138zM412 -1c-299 10 -391 8 -391 8c3 74 1 106 1 106c152 192 201 260 201 260c-149 -2 -193 -7 -193 -7c0 99 -3 135 -3 135c265 0 381 5 381 5
c-1 -81 2 -112 2 -112c-144 -178 -201 -264 -201 -264c140 -3 205 0 205 0c-4 -100 -2 -131 -2 -131z" />
    <glyph glyph-name="zdotaccent" unicode="&#x17c;" horiz-adv-x="434" 
d="M412 -1c-299 10 -391 8 -391 8c3 74 1 106 1 106c152 192 201 260 201 260c-149 -2 -193 -7 -193 -7c0 99 -3 135 -3 135c265 0 381 5 381 5c-1 -81 2 -112 2 -112c-144 -178 -201 -264 -201 -264c140 -3 205 0 205 0c-4 -100 -2 -131 -2 -131zM218 553
c-57 0 -84 40 -84 82s30 78 84 78c57 0 85 -41 85 -79c0 -53 -36 -81 -85 -81z" />
    <glyph glyph-name="L_A" horiz-adv-x="909" 
d="M43 -3c0 0 -1 310 -6 682c0 0 51 -2 162 0c0 0 -2 -130 4 -542c110 -3 161 -3 188 -3c25 111 67 310 121 568c129 4 241 3 241 3s71 -345 155 -720c0 0 -86 1 -173 -1c0 0 -8 48 -24 138c-36 1 -90 2 -164 2c-5 -30 -10 -61 -14 -92c0 0 -48 1 -110 1v-41
c-190 5 -380 5 -380 5zM628 590c-11 -54 -34 -180 -61 -343h122z" />
    <glyph glyph-name="L_Aacute" horiz-adv-x="909" 
d="M643 742c-50 36 -74 50 -74 50c78 103 109 153 109 153c62 -45 94 -65 94 -65c-99 -102 -129 -138 -129 -138zM43 -3c0 0 -1 310 -6 682c0 0 51 -2 162 0c0 0 -2 -130 4 -542c110 -3 161 -3 188 -3c25 111 67 310 121 568c129 4 241 3 241 3s71 -345 155 -720
c0 0 -86 1 -173 -1c0 0 -8 48 -24 138c-36 1 -90 2 -164 2c-5 -30 -10 -61 -14 -92c0 0 -48 1 -110 1v-41c-190 5 -380 5 -380 5zM628 590c-11 -54 -34 -180 -61 -343h122z" />
    <glyph glyph-name="L_Abreve" horiz-adv-x="909" 
d="M43 -3c0 0 -1 310 -6 682c0 0 51 -2 162 0c0 0 -2 -130 4 -542c110 -3 161 -3 188 -3c25 111 67 310 121 568c129 4 241 3 241 3s71 -345 155 -720c0 0 -86 1 -173 -1c0 0 -8 48 -24 138c-36 1 -90 2 -164 2c-5 -30 -10 -61 -14 -92c0 0 -48 1 -110 1v-41
c-190 5 -380 5 -380 5zM628 590c-11 -54 -34 -180 -61 -343h122zM629 754c-107 0 -151 61 -147 133c0 0 35 0 98 4c-1 -33 16 -57 50 -57c29 0 52 19 47 67c0 0 31 -1 100 1c8 -105 -62 -148 -148 -148z" />
    <glyph glyph-name="L_Acircumflex" horiz-adv-x="909" 
d="M529 734c0 0 -19 20 -62 60c0 0 41 37 112 111c0 0 28 0 97 6c0 0 35 -38 118 -111c0 0 -20 -18 -62 -65c0 0 -34 35 -104 90c0 0 -33 -26 -99 -91zM43 -3c0 0 -1 310 -6 682c0 0 51 -2 162 0c0 0 -2 -130 4 -542c110 -3 161 -3 188 -3c25 111 67 310 121 568
c129 4 241 3 241 3s71 -345 155 -720c0 0 -86 1 -173 -1c0 0 -8 48 -24 138c-36 1 -90 2 -164 2c-5 -30 -10 -61 -14 -92c0 0 -48 1 -110 1v-41c-190 5 -380 5 -380 5zM628 590c-11 -54 -34 -180 -61 -343h122z" />
    <glyph glyph-name="L_Adieresis" horiz-adv-x="909" 
d="M542 761c-48 0 -70 33 -70 70c0 40 30 67 70 67c45 0 70 -29 70 -68c0 -49 -34 -69 -70 -69zM721 764c-40 0 -67 27 -67 70c0 37 24 65 69 65c44 0 65 -31 65 -67c0 -45 -29 -68 -67 -68zM43 -3c0 0 -1 310 -6 682c0 0 51 -2 162 0c0 0 -2 -130 4 -542
c110 -3 161 -3 188 -3c25 111 67 310 121 568c129 4 241 3 241 3s71 -345 155 -720c0 0 -86 1 -173 -1c0 0 -8 48 -24 138c-36 1 -90 2 -164 2c-5 -30 -10 -61 -14 -92c0 0 -48 1 -110 1v-41c-190 5 -380 5 -380 5zM628 590c-11 -54 -34 -180 -61 -343h122z" />
    <glyph glyph-name="L_Agrave" horiz-adv-x="909" 
d="M43 -3c0 0 -1 310 -6 682c0 0 51 -2 162 0c0 0 -2 -130 4 -542c110 -3 161 -3 188 -3c25 111 67 310 121 568c129 4 241 3 241 3s71 -345 155 -720c0 0 -86 1 -173 -1c0 0 -8 48 -24 138c-36 1 -90 2 -164 2c-5 -30 -10 -61 -14 -92c0 0 -48 1 -110 1v-41
c-190 5 -380 5 -380 5zM628 590c-11 -54 -34 -180 -61 -343h122zM627 742c0 0 -29 36 -128 138c0 0 31 20 94 65c0 0 31 -50 109 -153c0 0 -24 -14 -75 -50z" />
    <glyph glyph-name="L_Amacron" horiz-adv-x="909" 
d="M43 -3c0 0 -1 310 -6 682c0 0 51 -2 162 0c0 0 -2 -130 4 -542c110 -3 161 -3 188 -3c25 111 67 310 121 568c129 4 241 3 241 3s71 -345 155 -720c0 0 -86 1 -173 -1c0 0 -8 48 -24 138c-36 1 -90 2 -164 2c-5 -30 -10 -61 -14 -92c0 0 -48 1 -110 1v-41
c-190 5 -380 5 -380 5zM628 590c-11 -54 -34 -180 -61 -343h122zM496 779c0 0 1 28 -2 93c0 0 72 -1 272 2c0 0 -2 -26 -2 -94c0 0 -79 2 -268 -1z" />
    <glyph glyph-name="L_Aogonek" horiz-adv-x="909" 
d="M813 -209c-103 -11 -159 28 -159 94c-1 42 27 84 79 112l-22 125c-36 1 -90 2 -164 2c-5 -30 -10 -61 -14 -92c0 0 -48 1 -110 1v-41c-190 5 -380 5 -380 5s-1 310 -6 682c0 0 51 -2 162 0c0 0 -2 -130 4 -542c110 -3 161 -3 188 -3c25 111 67 310 121 568
c129 4 241 3 241 3s71 -345 155 -720c0 0 -54 1 -118 0c-30 -21 -43 -43 -43 -63c0 -28 22 -45 72 -43c0 0 -4 -27 -6 -88zM628 590c-11 -54 -34 -180 -61 -343h122z" />
    <glyph glyph-name="L_Aring" horiz-adv-x="909" 
d="M629 745c-73 0 -110 45 -110 101c0 61 47 97 111 97c74 0 112 -45 112 -97c0 -73 -53 -101 -113 -101zM632 799c26 0 42 19 42 47c0 23 -13 47 -42 47c-28 0 -44 -20 -44 -47s15 -47 44 -47zM43 -3c0 0 -1 310 -6 682c0 0 51 -2 162 0c0 0 -2 -130 4 -542
c110 -3 161 -3 188 -3c25 111 67 310 121 568c129 4 241 3 241 3s71 -345 155 -720c0 0 -86 1 -173 -1c0 0 -8 48 -24 138c-36 1 -90 2 -164 2c-5 -30 -10 -61 -14 -92c0 0 -48 1 -110 1v-41c-190 5 -380 5 -380 5zM628 590c-11 -54 -34 -180 -61 -343h122z" />
    <glyph glyph-name="L_Atilde" horiz-adv-x="909" 
d="M43 -3c0 0 -1 310 -6 682c0 0 51 -2 162 0c0 0 -2 -130 4 -542c110 -3 161 -3 188 -3c25 111 67 310 121 568c129 4 241 3 241 3s71 -345 155 -720c0 0 -86 1 -173 -1c0 0 -8 48 -24 138c-36 1 -90 2 -164 2c-5 -30 -10 -61 -14 -92c0 0 -48 1 -110 1v-41
c-190 5 -380 5 -380 5zM628 590c-11 -54 -34 -180 -61 -343h122zM552 754c0 0 -28 1 -84 -2c-5 89 30 151 93 151c57 0 93 -53 126 -53c18 0 25 16 21 50c0 0 23 -1 79 5c15 -95 -17 -151 -84 -151c-57 0 -93 48 -126 48c-19 0 -27 -15 -25 -48z" />
    <glyph glyph-name="T_h" horiz-adv-x="923" 
d="M612 698c0 0 -3 -126 -2 -269c29 50 80 87 142 87c90 0 137 -65 140 -169c6 -169 2 -365 2 -365s-62 2 -159 2c0 0 4 165 0 319c-1 48 -14 74 -49 74c-45 0 -69 -45 -70 -105c-2 -120 -1 -254 -1 -254s-62 1 -161 -1c0 0 4 172 0 534c0 0 -61 1 -139 0
c0 -115 2 -303 5 -556c0 0 -67 1 -165 -1c0 0 1 218 -2 556c0 0 -54 0 -144 -3c0 0 0 54 -1 148c0 0 378 0 604 3z" />
    <glyph glyph-name="Pcircle" unicode="&#x24c5;" horiz-adv-x="647" 
d="M331 710c192 0 294 -119 294 -373c0 -221 -97 -358 -307 -358c-197 0 -296 137 -296 362c0 292 137 369 309 369zM326 659c-127 0 -249 -56 -249 -316c0 -196 73 -313 244 -313c174 0 249 119 249 314c0 209 -80 315 -244 315zM175 108c0 0 3 168 1 472c38 5 73 8 105 8
c156 0 229 -65 229 -186c0 -131 -90 -180 -214 -179l3 -115s-65 1 -124 0zM295 495c0 -61 -1 -94 0 -190c63 0 97 23 97 96c0 67 -25 100 -97 94z" />
    <glyph glyph-name="Pcircle" unicode="&#x24df;" horiz-adv-x="647" 
d="M331 710c192 0 294 -119 294 -373c0 -221 -97 -358 -307 -358c-197 0 -296 137 -296 362c0 292 137 369 309 369zM326 659c-127 0 -249 -56 -249 -316c0 -196 73 -313 244 -313c174 0 249 119 249 314c0 209 -80 315 -244 315zM175 108c0 0 3 168 1 472c38 5 73 8 105 8
c156 0 229 -65 229 -186c0 -131 -90 -180 -214 -179l3 -115s-65 1 -124 0zM295 495c0 -61 -1 -94 0 -190c63 0 97 23 97 96c0 67 -25 100 -97 94z" />
    <glyph glyph-name="servicemark" unicode="&#x2120;" horiz-adv-x="619" 
d="M271 393c0 0 7 114 7 283c0 0 55 -2 125 2c0 0 11 -83 31 -179c7 44 17 116 28 200c0 0 61 -4 124 -4c0 0 3 -122 17 -317c0 0 -42 -1 -87 -4c0 0 -2 108 -8 254c-7 -43 -18 -113 -29 -194c0 0 -52 0 -87 2c0 0 -10 71 -37 191c0 -45 0 -140 4 -237c0 0 -34 3 -88 3z
M134 370c-80 0 -125 40 -124 121c0 0 35 -1 87 0c-1 -47 13 -61 36 -61c19 0 31 11 31 33c0 17 -11 34 -56 48c-69 21 -93 53 -93 101c0 59 44 91 115 91c82 0 120 -47 118 -119c0 0 -35 3 -82 3c4 38 -6 57 -30 57c-18 0 -32 -10 -32 -33c0 -20 12 -35 52 -47
c77 -23 98 -50 98 -97c0 -61 -47 -97 -120 -97z" />
    <glyph glyph-name="zero.numerator" horiz-adv-x="377" 
d="M188 290c-114 0 -173 77 -173 217c0 139 64 210 174 210c116 0 173 -70 173 -207c0 -152 -67 -220 -174 -220zM189 372c33 0 53 30 53 140c0 87 -21 125 -53 125c-34 0 -55 -35 -55 -128c0 -97 21 -137 55 -137z" />
    <glyph glyph-name="one.numerator" horiz-adv-x="255" 
d="M100 303c0 150 0 237 -1 279c-35 -18 -63 -33 -63 -33c-18 55 -34 95 -34 95c75 38 133 70 133 70c37 -5 77 -7 77 -7c0 -207 4 -403 4 -403c-63 0 -116 -1 -116 -1z" />
    <glyph glyph-name="two.numerator" horiz-adv-x="338" 
d="M319 304c-177 4 -301 3 -301 3c-3 52 -4 104 -4 104c114 44 197 108 197 181c0 36 -15 52 -39 52c-36 0 -52 -31 -46 -103c0 0 -50 0 -112 -1c-12 119 47 183 161 183c97 0 152 -49 152 -127c0 -89 -78 -161 -183 -204c99 1 175 6 175 6v-94z" />
    <glyph glyph-name="three.numerator" horiz-adv-x="362" 
d="M182 290c-121 0 -178 56 -171 163c0 0 50 -3 118 -6c-2 -51 18 -77 52 -77c29 0 51 15 51 48c0 23 -11 40 -29 48c-20 8 -60 9 -89 7c0 0 0 26 -2 70c34 -3 70 0 89 8c18 7 28 21 28 44c0 32 -18 49 -47 49c-33 0 -53 -26 -50 -74l-117 -2c-8 107 61 156 170 156
c98 0 159 -48 160 -118c0 -53 -31 -85 -74 -94c50 -11 79 -50 79 -99c0 -80 -72 -123 -168 -123z" />
    <glyph glyph-name="four.numerator" horiz-adv-x="365" 
d="M210 304c0 26 0 52 1 77l-204 -3s0 23 -2 86c93 159 146 254 146 254c107 -5 167 -4 167 -4c-1 -109 -1 -186 -1 -252c13 0 37 1 37 1s-1 -29 -1 -82h-35c0 -50 1 -76 1 -76c-70 -1 -109 -1 -109 -1zM113 462h99v178c-50 -86 -84 -149 -99 -178z" />
    <glyph glyph-name="five.numerator" horiz-adv-x="363" 
d="M183 292c-110 0 -166 55 -166 153c62 -2 116 -2 116 -2c0 -52 19 -76 51 -76c28 0 50 20 50 74c0 47 -16 71 -48 71c-28 0 -43 -18 -50 -45c0 0 -52 4 -113 7c0 0 3 105 5 238c0 0 136 0 303 3c0 0 -1 -26 -1 -86c0 0 -90 1 -197 -2c-1 -19 -1 -45 -1 -78
c22 21 53 31 90 31c86 0 129 -58 130 -138c0 -105 -76 -150 -169 -150z" />
    <glyph glyph-name="six.numerator" horiz-adv-x="377" 
d="M193 291c-113 0 -178 72 -178 213c0 140 63 218 179 218c99 0 158 -51 160 -139c-66 1 -118 0 -118 0c-1 37 -15 59 -42 59c-36 0 -59 -33 -61 -116c23 22 59 38 103 38c82 -1 128 -50 128 -125c0 -101 -79 -148 -171 -148zM197 494c-23 0 -47 -15 -62 -37
c8 -63 30 -87 61 -87c27 0 50 17 50 64c0 32 -15 60 -49 60z" />
    <glyph glyph-name="seven.numerator" horiz-adv-x="309" 
d="M71 299c-4 137 35 246 111 317c-91 0 -176 -3 -176 -3c1 56 1 99 1 99c186 1 295 4 295 4c0 -73 1 -101 1 -101c-82 -82 -117 -179 -113 -319c-71 3 -119 3 -119 3z" />
    <glyph glyph-name="eight.numerator" horiz-adv-x="377" 
d="M193 292c-114 0 -181 46 -181 122c0 45 26 82 78 97c-45 21 -68 56 -68 100c0 66 58 112 168 112c109 0 168 -45 168 -112c0 -47 -25 -81 -69 -98c46 -16 76 -52 76 -98c0 -84 -77 -123 -172 -123zM189 367c32 0 55 19 55 50c0 33 -24 53 -59 63c-37 -11 -54 -31 -54 -60
c0 -32 22 -53 58 -53zM194 541c27 10 48 30 48 59c0 30 -20 48 -54 48s-52 -18 -52 -46c0 -29 22 -51 58 -61z" />
    <glyph glyph-name="nine.numerator" horiz-adv-x="373" 
d="M181 293c-98 0 -161 53 -164 151c65 -4 116 -5 116 -5c2 -45 20 -66 51 -66c34 0 55 23 58 113c-24 -19 -59 -27 -93 -27c-88 0 -134 50 -134 127c0 83 61 137 167 137c118 0 176 -68 176 -215c0 -163 -76 -215 -177 -215zM187 522c20 0 40 12 53 30c-5 69 -24 95 -56 95
c-34 0 -52 -26 -52 -65c0 -42 20 -60 55 -60z" />
    <glyph glyph-name="zero.denominator" horiz-adv-x="376" 
d="M188 -18c-114 0 -173 77 -173 217c0 139 64 210 174 210c116 0 173 -70 173 -207c0 -152 -67 -220 -174 -220zM189 64c33 0 53 30 53 140c0 87 -21 125 -53 125c-34 0 -55 -35 -55 -128c0 -97 21 -137 55 -137z" />
    <glyph glyph-name="one.denominator" horiz-adv-x="255" 
d="M100 -5c0 150 0 237 -1 279c-35 -18 -63 -33 -63 -33c-18 55 -34 95 -34 95c75 38 133 70 133 70c37 -5 77 -7 77 -7c0 -207 4 -403 4 -403c-63 0 -116 -1 -116 -1z" />
    <glyph glyph-name="two.denominator" horiz-adv-x="338" 
d="M319 -4c-177 4 -301 3 -301 3c-3 52 -4 104 -4 104c114 44 197 108 197 181c0 36 -15 52 -39 52c-36 0 -52 -31 -46 -103c0 0 -50 0 -112 -1c-12 119 47 183 161 183c97 0 152 -49 152 -127c0 -89 -78 -161 -183 -204c99 1 175 6 175 6v-94z" />
    <glyph glyph-name="three.denominator" horiz-adv-x="362" 
d="M182 -18c-121 0 -178 56 -171 163c0 0 50 -3 118 -6c-2 -51 18 -77 52 -77c29 0 51 15 51 48c0 23 -11 40 -29 48c-20 8 -60 9 -89 7c0 0 0 26 -2 70c34 -3 70 0 89 8c18 7 28 21 28 44c0 32 -18 49 -47 49c-33 0 -53 -26 -50 -74l-117 -2c-8 107 61 156 170 156
c98 0 159 -48 160 -118c0 -53 -31 -85 -74 -94c50 -11 79 -50 79 -99c0 -80 -72 -123 -168 -123z" />
    <glyph glyph-name="four.denominator" horiz-adv-x="365" 
d="M210 -4c0 26 0 52 1 77l-204 -3s0 23 -2 86c93 159 146 254 146 254c107 -5 167 -4 167 -4c-1 -109 -1 -186 -1 -252c13 0 37 1 37 1s-1 -29 -1 -82h-35c0 -50 1 -76 1 -76c-70 -1 -109 -1 -109 -1zM113 154h99v178c-50 -86 -84 -149 -99 -178z" />
    <glyph glyph-name="five.denominator" horiz-adv-x="363" 
d="M183 -16c-110 0 -166 55 -166 153c62 -2 116 -2 116 -2c0 -52 19 -76 51 -76c28 0 50 20 50 74c0 47 -16 71 -48 71c-28 0 -43 -18 -50 -45c0 0 -52 4 -113 7c0 0 3 105 5 238c0 0 136 0 303 3c0 0 -1 -26 -1 -86c0 0 -90 1 -197 -2c-1 -19 -1 -45 -1 -78
c22 21 53 31 90 31c86 0 129 -58 130 -138c0 -105 -76 -150 -169 -150z" />
    <glyph glyph-name="six.denominator" horiz-adv-x="377" 
d="M193 -17c-113 0 -178 72 -178 213c0 140 63 218 179 218c99 0 158 -51 160 -139c-66 1 -118 0 -118 0c-1 37 -15 59 -42 59c-36 0 -59 -33 -61 -116c23 22 59 38 103 38c82 -1 128 -50 128 -125c0 -101 -79 -148 -171 -148zM197 186c-23 0 -47 -15 -62 -37
c8 -63 30 -87 61 -87c27 0 50 17 50 64c0 32 -15 60 -49 60z" />
    <glyph glyph-name="seven.denominator" horiz-adv-x="308" 
d="M70 -9c-4 137 35 246 111 317c-91 0 -176 -3 -176 -3c1 56 1 99 1 99c186 1 295 4 295 4c0 -73 1 -101 1 -101c-82 -82 -117 -179 -113 -319c-71 3 -119 3 -119 3z" />
    <glyph glyph-name="eight.denominator" horiz-adv-x="377" 
d="M193 -16c-114 0 -181 46 -181 122c0 45 26 82 78 97c-45 21 -68 56 -68 100c0 66 58 112 168 112c109 0 168 -45 168 -112c0 -47 -25 -81 -69 -98c46 -16 76 -52 76 -98c0 -84 -77 -123 -172 -123zM189 59c32 0 55 19 55 50c0 33 -24 53 -59 63c-37 -11 -54 -31 -54 -60
c0 -32 22 -53 58 -53zM194 233c27 10 48 30 48 59c0 30 -20 48 -54 48s-52 -18 -52 -46c0 -29 22 -51 58 -61z" />
    <glyph glyph-name="nine.denominator" horiz-adv-x="372" 
d="M181 -15c-98 0 -161 53 -164 151c65 -4 116 -5 116 -5c2 -45 20 -66 51 -66c34 0 55 23 58 113c-24 -19 -59 -27 -93 -27c-88 0 -134 50 -134 127c0 83 61 137 167 137c118 0 176 -68 176 -215c0 -163 -76 -215 -177 -215zM187 214c20 0 40 12 53 30c-5 69 -24 95 -56 95
c-34 0 -52 -26 -52 -65c0 -42 20 -60 55 -60z" />
    <glyph glyph-name="dollar.titling" horiz-adv-x="414" 
d="M270 145c-73 3 -121 2 -121 2l4 76c-83 16 -134 68 -132 158c0 0 58 -3 133 -4c-4 -53 19 -75 56 -75c30 0 51 15 51 43s-19 42 -99 62c-89 23 -137 58 -137 134c0 65 47 110 127 122c-2 50 -4 83 -4 83c81 -1 123 0 123 0l-6 -86c78 -18 122 -72 124 -157
c0 0 -52 2 -130 1c2 48 -16 77 -52 77c-31 0 -47 -17 -47 -43c0 -33 26 -51 95 -66c114 -25 140 -62 140 -122c0 -76 -53 -115 -127 -128c0 -43 2 -77 2 -77z" />
    <glyph glyph-name="cent.titling" horiz-adv-x="420" 
d="M155 144l4 80c-86 20 -140 90 -140 219c0 122 47 198 140 217c-1 45 -5 86 -5 86c68 0 121 1 121 1c-4 -38 -6 -69 -7 -89c85 -19 133 -84 132 -175c-87 1 -140 -3 -140 -3c-1 64 -16 100 -49 100c-37 0 -53 -43 -53 -131c0 -110 19 -140 54 -140c29 0 49 23 50 99
c0 0 54 -3 140 -3c-5 -112 -55 -166 -132 -182c1 -47 4 -79 4 -79c-57 2 -90 1 -119 0z" />
    <glyph glyph-name="Euro.titling" horiz-adv-x="486" 
d="M16 451c0 9 0 27 -1 49c0 0 19 -1 47 0c16 132 89 204 209 204c118 0 184 -73 193 -172c-67 1 -140 -1 -140 -1c-3 51 -21 76 -54 76c-37 0 -61 -30 -68 -105l178 4s-1 -15 -1 -50c0 0 -62 0 -179 -1c0 0 -1 -17 0 -34c51 0 109 1 185 3c0 0 -2 -13 0 -49
c0 0 -62 0 -182 -2c7 -71 29 -98 66 -98c34 0 55 23 60 79c77 -4 141 -4 141 -4c-11 -116 -93 -172 -203 -171c-114 0 -186 62 -204 192c0 0 -30 -1 -46 -1c0 0 1 16 0 50h42s-1 14 0 32c0 0 -26 0 -43 -1z" />
    <glyph glyph-name="sterling.titling" horiz-adv-x="450" 
d="M28 381c2 52 0 75 0 75c14 0 41 -1 41 -1c-12 31 -25 62 -25 100c0 93 65 148 191 148c140 0 202 -86 192 -204c0 0 -52 1 -137 -1c5 68 -12 109 -54 109c-35 0 -53 -20 -53 -63c0 -35 12 -62 22 -90c93 0 146 2 146 2c-1 -55 1 -78 1 -78c-47 1 -92 2 -132 2
c-3 -30 -16 -58 -36 -80c39 -1 117 -2 239 0c0 0 -3 -34 -2 -109c0 0 -148 4 -390 4c0 0 3 46 2 93c30 21 51 53 52 93h-57z" />
    <glyph glyph-name="yen.titling" horiz-adv-x="447" 
d="M47 347c0 0 1 19 -1 67h77c-19 49 -54 136 -111 272c0 0 42 0 142 4c0 0 26 -91 70 -236c0 0 31 103 74 251c0 0 52 -3 137 -2c0 0 -47 -103 -113 -286l76 2s-1 -19 0 -66c0 0 -44 0 -112 -1c-1 -13 0 -33 0 -33c35 0 71 1 113 2c0 0 0 -15 1 -63h-114l3 -67
s-45 1 -128 -1v66l-117 -3s2 19 1 65c0 0 45 -1 116 -1c0 11 0 22 -1 33z" />
    <glyph glyph-name="zero.titling" horiz-adv-x="446" 
d="M223 181c-130 0 -206 93 -206 265c0 171 78 258 206 258c136 0 207 -85 207 -254c0 -181 -78 -269 -207 -269zM224 280c40 0 66 39 66 171c0 106 -25 156 -66 156c-44 0 -68 -45 -68 -158c0 -116 23 -169 68 -169z" />
    <glyph glyph-name="one.titling" horiz-adv-x="297" 
d="M115 197c1 187 1 297 0 346c-43 -22 -75 -39 -75 -39c-22 67 -39 112 -39 112c93 46 158 82 158 82c47 -5 86 -8 86 -8c0 -253 4 -492 4 -492c-76 -1 -134 -1 -134 -1z" />
    <glyph glyph-name="two.titling" horiz-adv-x="399" 
d="M378 196c-220 5 -357 5 -357 5c-4 63 -5 125 -5 125c139 58 235 134 235 223c0 41 -18 63 -49 63c-43 0 -62 -38 -54 -127c0 0 -55 1 -132 -1c-15 145 54 224 191 224c118 0 180 -60 180 -154c0 -107 -88 -195 -211 -249c120 0 202 6 202 6c-1 -76 0 -115 0 -115z" />
    <glyph glyph-name="three.titling" horiz-adv-x="425" 
d="M214 179c-144 0 -213 70 -203 199c0 0 65 -3 140 -7c-5 -65 19 -96 61 -96c35 0 62 18 62 61c0 29 -13 49 -36 59c-24 9 -64 11 -102 8c0 0 0 32 -3 85c43 -3 78 0 102 10c22 8 36 26 36 54c0 41 -23 63 -57 63c-42 0 -65 -34 -60 -94l-137 -2c-10 130 68 191 201 191
c115 0 187 -61 187 -146c0 -61 -37 -100 -87 -114c58 -13 95 -58 95 -120c0 -100 -88 -151 -199 -151z" />
    <glyph glyph-name="four.titling" horiz-adv-x="427" 
d="M245 197c0 32 0 62 1 92c-67 0 -148 -2 -238 -3c0 0 -1 27 -3 105c111 198 173 311 173 311c133 -5 193 -5 193 -5c-1 -134 -1 -228 -1 -308c16 0 47 1 47 1s-1 -35 -1 -100h-45c0 -60 1 -93 1 -93c-86 -2 -127 0 -127 0zM132 389h115v217c-58 -104 -98 -182 -115 -217z
" />
    <glyph glyph-name="five.titling" horiz-adv-x="425" 
d="M214 182c-131 0 -196 67 -196 187c77 -2 136 -3 136 -3c0 -63 22 -93 61 -93c33 0 59 24 59 91c0 59 -19 89 -58 89c-30 0 -50 -23 -58 -58c0 0 -60 5 -134 9c0 0 5 129 6 291c0 0 150 0 358 4c0 0 -2 -31 -2 -104c0 0 -100 1 -232 -3c-1 -24 -1 -58 -1 -99
c26 27 67 40 108 40c103 0 151 -71 152 -167c0 -129 -85 -184 -199 -184z" />
    <glyph glyph-name="six.titling" horiz-adv-x="439" 
d="M226 180c-136 0 -209 89 -209 261c0 167 70 267 212 267c120 0 184 -65 186 -173c-82 2 -138 0 -138 0c-2 49 -19 77 -51 77c-42 0 -67 -45 -69 -150c31 30 76 48 123 48c97 0 146 -58 146 -149c0 -124 -90 -181 -200 -181zM233 424c-29 0 -55 -14 -74 -36
c8 -81 34 -111 72 -111c34 0 57 25 57 77c0 41 -16 70 -55 70z" />
    <glyph glyph-name="seven.titling" horiz-adv-x="362" 
d="M85 190c-7 170 44 305 135 391c-109 0 -214 -3 -214 -3c2 69 1 117 1 117c230 2 349 5 349 5c-1 -91 1 -125 1 -125c-98 -98 -137 -218 -132 -389c-88 4 -140 4 -140 4z" />
    <glyph glyph-name="eight.titling" horiz-adv-x="440" 
d="M225 181c-141 0 -214 58 -214 149c0 56 32 99 95 118c-52 25 -82 68 -82 123c0 80 66 137 198 138c131 0 199 -58 199 -138c0 -58 -33 -98 -88 -120c59 -20 95 -62 95 -120c1 -106 -93 -150 -203 -150zM221 271c38 0 66 22 66 61c0 40 -29 66 -71 78
c-44 -13 -65 -40 -65 -74c0 -40 27 -65 70 -65zM227 486c34 13 57 38 57 72c-1 38 -23 60 -64 60c-42 0 -63 -24 -63 -57c0 -35 27 -62 70 -75z" />
    <glyph glyph-name="nine.titling" horiz-adv-x="434" 
d="M211 183c-122 0 -193 68 -194 187c80 -6 136 -5 136 -5c0 -58 22 -86 61 -86c41 0 64 30 67 146c-25 -26 -66 -39 -109 -39c-103 0 -157 59 -157 153c0 104 75 168 197 168c135 0 206 -81 206 -262c0 -196 -85 -262 -207 -262zM216 460c23 0 47 11 64 30
c-5 93 -28 126 -67 126c-37 0 -60 -32 -60 -80c0 -55 24 -76 63 -76z" />
    <glyph glyph-name="questiondown.cap" horiz-adv-x="517" 
d="M256 -29c-153 0 -245 82 -245 206c0 136 77 199 194 216c1 39 0 76 0 76c104 -2 162 2 162 2c0 -98 3 -168 3 -168c-136 6 -184 -29 -184 -110c0 -63 29 -99 76 -99c62 0 79 58 77 145c0 0 67 -2 167 -1c3 -175 -80 -267 -250 -267zM285 505c-70 0 -108 37 -108 100
c0 59 41 96 105 96c75 0 111 -41 111 -100s-45 -96 -108 -96z" />
    <glyph glyph-name="exclamdown.cap" horiz-adv-x="251" 
d="M36 -10c0 0 9 199 17 476c0 0 60 -2 142 1c0 0 5 -205 22 -478c0 0 -90 3 -181 1zM124 505c-68 0 -103 44 -103 98c0 60 45 96 102 96c68 0 108 -38 108 -99c0 -55 -37 -95 -107 -95z" />
    <glyph glyph-name="parenleft.cap" horiz-adv-x="297" 
d="M149 -74c-82 139 -118 278 -118 410c0 156 42 310 127 425c82 -30 131 -46 131 -46c-60 -113 -94 -236 -94 -375c0 -114 33 -233 95 -370c-83 -23 -141 -44 -141 -44z" />
    <glyph glyph-name="parenright.cap" horiz-adv-x="297" 
d="M149 -82c0 0 -59 22 -142 45c60 136 95 264 95 378c0 139 -34 265 -94 378c0 0 52 17 134 49c82 -115 125 -272 125 -425c0 -132 -38 -280 -118 -425z" />
    <glyph glyph-name="bracketleft.cap" horiz-adv-x="309" 
d="M291 -61c0 0 -114 4 -242 3c0 0 2 212 -4 803c0 0 89 -1 241 2c0 0 -1 -50 2 -123c0 0 -36 0 -80 -2c0 0 -3 -288 1 -550c0 0 38 -2 86 -2c0 0 -3 -48 -4 -131z" />
    <glyph glyph-name="bracketright.cap" horiz-adv-x="309" 
d="M20 -60c-1 80 -4 127 -4 131c43 0 79 1 86 2c3 215 0 511 -1 558c-37 2 -73 1 -81 1c2 68 1 120 1 124c142 -3 231 -2 242 -2c-6 -484 -4 -703 -3 -810c-94 1 -229 -4 -240 -4z" />
    <glyph glyph-name="braceleft.cap" horiz-adv-x="347" 
d="M330 -54c-33 -9 -66 -13 -96 -13c-100 -1 -142 43 -142 149l6 110c0 65 -20 96 -90 92c0 0 2 60 2 139c64 -5 87 15 87 74c0 37 -9 86 -9 128c0 88 44 129 142 130c31 0 64 -5 95 -13c-1 -89 2 -121 2 -121c-62 7 -81 -5 -81 -55c0 -30 8 -74 8 -108
c0 -55 -20 -87 -77 -105c58 -19 74 -58 74 -119l-5 -99c0 -58 18 -72 83 -66c-1 -87 1 -123 1 -123z" />
    <glyph glyph-name="braceright.cap" horiz-adv-x="346" 
d="M16 -59c0 3 3 36 1 120c61 -8 87 4 87 60c0 33 -8 78 -8 117c0 60 21 98 79 114c-55 13 -82 47 -82 110c0 36 8 75 8 105c0 47 -20 60 -82 55c0 3 4 38 3 124c28 6 59 10 88 10c110 0 148 -47 148 -128c0 -43 -10 -90 -10 -128c0 -60 24 -81 89 -77c-1 -75 1 -131 1 -136
c-68 5 -90 -21 -90 -84l9 -136c0 -94 -42 -141 -143 -140c-30 0 -64 5 -98 14z" />
    <glyph glyph-name="slash.cap" horiz-adv-x="366" 
d="M-2 -51c133 449 225 788 225 788c93 -2 145 0 145 0c-181 -615 -225 -788 -225 -788c-86 2 -145 0 -145 0z" />
    <glyph glyph-name="backslash.cap" horiz-adv-x="366" 
d="M368 -50c0 0 -59 2 -146 0c0 0 -44 173 -224 788c0 0 52 -2 145 0c0 0 92 -339 225 -788z" />
    <glyph glyph-name="bar.cap" horiz-adv-x="249" 
d="M54 -51c0 0 2 369 -3 791c0 0 48 -4 146 -3c0 0 -4 -292 -1 -787c0 0 -48 2 -142 -1z" />
    <glyph glyph-name="at.cap" horiz-adv-x="728" 
d="M467 -14c-255 -53 -445 42 -445 355c0 229 122 374 342 374c224 0 342 -131 342 -367c0 -190 -50 -249 -136 -249c-48 0 -85 23 -100 73c-32 -52 -93 -71 -153 -71c-102 0 -154 60 -154 138c0 86 70 145 252 146c0 0 0 19 -1 30c-3 52 -20 76 -54 76
c-33 0 -52 -25 -54 -82c0 0 -53 0 -130 -3c-3 107 63 184 194 184c122 0 179 -73 184 -170c3 -55 1 -133 -1 -170c-1 -45 10 -68 33 -68c27 0 43 28 43 160c0 197 -79 306 -263 306c-178 0 -267 -113 -267 -307c0 -236 107 -340 355 -287c0 0 4 -26 13 -68zM421 286
c0 14 1 29 0 42c-86 -1 -128 -34 -128 -81c0 -35 22 -55 56 -55c38 0 68 21 72 94z" />
    <glyph glyph-name="A.alt" horiz-adv-x="545" 
d="M2 0c0 0 64 272 151 684c129 4 240 3 240 3s62 -305 150 -681c0 0 -84 2 -172 -1c0 0 -6 34 -19 104c-36 1 -92 2 -167 2l-18 -113s-76 3 -165 2zM268 572c-11 -54 -36 -180 -63 -339c27 -1 66 -1 124 -1z" />
    <glyph glyph-name="B.alt" horiz-adv-x="541" 
d="M45 -2c0 0 -2 322 -9 688c70 9 131 13 184 13c209 0 291 -66 291 -185c0 -76 -46 -135 -124 -158c101 -24 145 -91 145 -165c0 -131 -95 -200 -332 -200c-46 0 -98 2 -155 7zM200 100c12 -1 24 -1 35 -1c97 0 132 35 131 99c0 62 -45 104 -169 93c1 -99 3 -191 3 -191z
M196 579c-2 -99 0 -178 0 -178c112 -8 157 26 157 93c0 56 -30 87 -116 87c-13 0 -26 -1 -41 -2z" />
    <glyph glyph-name="C.alt" horiz-adv-x="567" 
d="M294 -12c-154 0 -272 87 -272 356c0 223 82 356 273 356c161 0 246 -105 253 -277c-117 -2 -176 -5 -176 -5c-3 108 -32 149 -83 149c-66 0 -92 -77 -91 -222c0 -156 33 -221 94 -221c50 0 84 32 85 156c105 -1 178 3 178 3c-2 -200 -92 -295 -261 -295z" />
    <glyph glyph-name="D.alt" horiz-adv-x="564" 
d="M203 119c104 -5 165 31 165 221c0 158 -54 223 -171 214c1 -246 6 -435 6 -435zM37 2c3 392 0 672 0 672c54 7 103 10 148 10c253 0 357 -120 357 -348c0 -243 -127 -341 -379 -341c-39 0 -81 3 -126 7z" />
    <glyph glyph-name="E.alt" horiz-adv-x="457" 
d="M44 12c0 0 -1 268 -8 672c0 0 141 1 397 5c0 0 -1 -52 1 -139c0 0 -94 -1 -236 -5c0 0 0 -58 1 -159c15 0 69 -1 197 2c0 0 -1 -44 1 -128c0 0 -86 1 -195 1l3 -118s88 0 233 1c0 0 -1 -47 -1 -137c0 0 -181 4 -393 5z" />
    <glyph glyph-name="F.alt" horiz-adv-x="439" 
d="M44 14c0 0 0 265 -8 668c0 0 184 0 389 4c0 0 0 -56 1 -149c0 0 -103 2 -227 -1c0 0 0 -56 1 -187c26 0 75 -1 191 2c0 0 -1 -51 1 -140c0 0 -70 1 -190 0l4 -196c-90 1 -162 -1 -162 -1z" />
    <glyph glyph-name="G.alt" horiz-adv-x="574" 
d="M294 -18c-162 0 -272 102 -272 359c0 216 89 351 271 351c157 0 243 -102 250 -259c0 0 -88 0 -169 -6c-5 91 -33 134 -84 134c-65 0 -97 -71 -97 -220c0 -170 38 -230 111 -230c49 0 83 31 89 113l-116 -3s1 38 -1 119c0 0 121 -2 281 -1c9 -253 -89 -357 -263 -357z
" />
    <glyph glyph-name="H.alt" horiz-adv-x="543" 
d="M344 3c0 0 1 74 0 203c-19 0 -58 1 -144 -1l3 -212s-76 2 -163 -1c0 0 1 310 -4 708c0 0 59 0 160 1c0 0 1 -151 3 -358c17 0 65 -2 145 -1l-4 350s68 -1 164 1c0 0 0 -282 3 -691c0 0 -70 3 -163 1z" />
    <glyph glyph-name="I.alt" horiz-adv-x="257" 
d="M48 15c0 0 1 270 -4 659c0 0 58 0 164 1c0 0 1 -298 5 -659c0 0 -68 1 -165 -1z" />
    <glyph glyph-name="J.alt" horiz-adv-x="488" 
d="M231 -7c-143 0 -219 81 -221 235c0 35 4 86 13 124c0 0 42 -4 149 -9c-4 -30 -6 -65 -6 -88c0 -92 25 -121 65 -121c50 0 72 50 73 239c0 109 -7 190 -24 318c0 0 52 2 160 10c17 -115 26 -218 26 -335c0 -272 -85 -373 -235 -373z" />
    <glyph glyph-name="K.alt" horiz-adv-x="546" 
d="M366 -15c-39 127 -70 215 -91 269c-34 -61 -61 -110 -77 -137c1 -75 2 -116 2 -116c-104 2 -164 -1 -164 -1c2 396 0 684 0 684c98 -2 162 -1 162 -1c-1 -136 -1 -250 -1 -348c114 245 169 366 169 366c106 -8 172 -10 172 -10c-74 -146 -121 -245 -148 -301
c81 -225 148 -388 148 -388c-111 -8 -172 -17 -172 -17z" />
    <glyph glyph-name="L.alt" horiz-adv-x="424" 
d="M42 17c0 0 0 288 -6 661c0 0 51 -2 163 0c0 0 -2 -110 4 -523c144 -1 216 1 216 1c-2 -88 -1 -141 -1 -141c-229 4 -376 2 -376 2z" />
    <glyph glyph-name="M.alt" horiz-adv-x="744" 
d="M27 1c0 0 15 315 25 698c0 0 107 0 230 6c0 0 38 -214 86 -446c20 97 55 263 90 444c0 0 111 -4 229 -6c0 0 9 -262 30 -693c0 0 -85 -1 -166 -3c0 0 2 218 -7 547c-23 -104 -62 -281 -94 -443c0 0 -81 -1 -165 2c0 0 -38 204 -92 456c-1 -117 -2 -354 1 -565
c0 0 -90 2 -167 3z" />
    <glyph glyph-name="N.alt" horiz-adv-x="560" 
d="M39 -7c0 0 3 292 -3 699c0 0 70 0 159 2c0 0 73 -187 180 -427c-2 83 -7 234 -18 436c0 0 68 -2 154 -2c0 0 2 -243 12 -688c0 0 -57 -2 -158 -10c0 0 -72 167 -182 416c1 -95 4 -256 12 -428c0 0 -71 2 -156 2z" />
    <glyph glyph-name="O.alt" horiz-adv-x="586" 
d="M292 700c176 0 270 -115 271 -352c2 -251 -103 -357 -271 -357c-183 0 -272 119 -271 356c1 243 98 353 271 353zM292 570c-58 0 -95 -52 -95 -228c0 -167 31 -222 95 -222c63 0 96 55 96 222c0 170 -34 228 -96 228z" />
    <glyph glyph-name="P.alt" horiz-adv-x="522" 
d="M38 -11c0 0 3 258 1 679c49 5 95 8 136 8c236 0 339 -81 339 -251c0 -182 -123 -254 -314 -251l4 -184s-84 1 -166 -1zM197 543c0 -78 0 -129 1 -248c97 -2 154 27 154 128c0 76 -31 121 -134 121c-12 0 -21 -1 -21 -1z" />
    <glyph glyph-name="Q.alt" horiz-adv-x="586" 
d="M399 -151l-61 148c-16 -2 -32 -4 -48 -4c-175 0 -268 122 -268 343c0 233 93 360 268 360c174 0 274 -104 274 -366c0 -133 -38 -226 -102 -280c50 -73 90 -124 90 -124c-106 -50 -153 -77 -153 -77zM292 568c-55 0 -94 -50 -94 -237c0 -160 36 -212 95 -212
c64 0 95 60 95 213c0 177 -32 236 -96 236z" />
    <glyph glyph-name="R.alt" horiz-adv-x="534" 
d="M367 -24c0 0 -40 104 -105 260c-20 -2 -42 -3 -65 -3l4 -240s-82 1 -163 -1c0 0 4 263 1 684c65 10 123 15 175 15c206 0 306 -81 306 -228c0 -92 -40 -153 -113 -189l125 -274s-72 -10 -165 -24zM197 347c105 -7 160 32 160 110c0 67 -34 106 -127 106
c-11 0 -23 -1 -36 -2c1 -135 3 -214 3 -214z" />
    <glyph glyph-name="S.alt" horiz-adv-x="531" 
d="M269 -15c-167 0 -256 83 -252 245c0 0 63 -1 170 4c-4 -90 33 -123 88 -123c41 0 67 24 67 70c0 43 -25 71 -127 104c-138 45 -195 102 -195 213c0 129 95 194 238 194c169 0 251 -86 247 -245c0 0 -69 3 -165 1c7 85 -26 120 -82 120c-43 0 -64 -27 -64 -73
c0 -44 34 -73 114 -98c167 -51 210 -115 210 -208c0 -131 -96 -204 -249 -204z" />
    <glyph glyph-name="T.alt" horiz-adv-x="464" 
d="M9 531c0 0 0 55 -1 149c0 0 223 -1 448 3c0 0 -2 -67 -1 -151h-142c0 -101 1 -252 4 -521c0 0 -67 1 -164 -1c0 0 1 192 -2 522z" />
    <glyph glyph-name="U.alt" horiz-adv-x="541" 
d="M272 -14c-176 0 -250 134 -250 399c0 100 7 206 22 307c0 0 54 -6 160 -13c-14 -103 -20 -195 -20 -268c0 -202 32 -273 86 -273c56 0 82 52 82 234c0 98 -6 203 -17 319c0 0 54 0 163 8c16 -120 22 -216 22 -320c0 -263 -72 -393 -248 -393z" />
    <glyph glyph-name="V.alt" horiz-adv-x="528" 
d="M143 5c-80 412 -141 678 -141 678c99 -1 172 0 172 0c34 -243 72 -448 90 -544c61 358 94 555 94 555c102 -3 168 -3 168 -3c-93 -463 -142 -687 -142 -687s-113 1 -241 1z" />
    <glyph glyph-name="W.alt" horiz-adv-x="760" 
d="M445 1c-31 239 -53 391 -66 479c-55 -331 -77 -485 -77 -485c-164 5 -225 3 -225 3c-30 317 -58 593 -67 695c86 1 165 3 165 3c13 -242 27 -446 35 -561c69 392 83 489 83 489c126 -1 174 -2 174 -2c40 -250 68 -403 83 -483c33 447 37 559 37 559c114 -4 163 -4 163 -4
c-55 -518 -70 -692 -70 -692c-154 -3 -235 -1 -235 -1z" />
    <glyph glyph-name="X.alt" horiz-adv-x="571" 
d="M197 -3c-133 5 -194 6 -194 6c76 162 125 275 149 332c-22 60 -68 185 -137 357c58 1 120 3 183 6c0 0 29 -100 87 -274c61 185 84 274 84 274c125 -5 184 -5 184 -5c-68 -175 -111 -288 -133 -348c100 -250 147 -345 147 -345c-146 -6 -193 -10 -193 -10
c-39 124 -70 215 -87 268c-55 -147 -90 -261 -90 -261z" />
    <glyph glyph-name="Y.alt" horiz-adv-x="545" 
d="M192 -26c0 17 1 56 -3 162c0 0 -60 185 -189 552c0 0 44 0 181 5c0 0 30 -140 92 -361c0 0 36 140 97 364c0 0 48 -3 172 -3c0 0 -74 -216 -189 -556c0 0 -2 -24 3 -162c0 0 -41 0 -164 -1z" />
    <glyph glyph-name="Z.alt" horiz-adv-x="469" 
d="M445 8c-254 6 -424 6 -424 6c2 94 1 137 1 137c121 187 203 313 248 384c-149 0 -243 -3 -243 -3c0 109 -1 150 -1 150c274 0 416 4 416 4c3 -88 2 -145 2 -145c-118 -188 -200 -315 -246 -386c138 -3 249 -2 249 -2c-3 -113 -2 -145 -2 -145z" />
    <glyph glyph-name="a.alt" horiz-adv-x="491" 
d="M180 -25c-93 0 -167 49 -167 148c0 102 68 181 286 182v10c0 54 -20 83 -57 83c-40 0 -59 -28 -61 -76c0 0 -59 8 -151 13c10 109 83 172 215 172c150 0 213 -76 216 -212c4 -166 1 -326 1 -326s-48 0 -130 -2c0 0 3 36 4 87c-30 -56 -92 -79 -156 -79zM307 199
c0 9 0 20 -1 30c-97 -3 -133 -36 -133 -92c0 -37 22 -59 55 -59c44 0 79 34 79 121z" />
    <glyph glyph-name="b.alt" horiz-adv-x="533" 
d="M35 8c0 0 1 213 -2 693c0 0 45 -2 163 -1c0 0 -4 -123 -6 -276c29 46 76 77 136 77c119 0 184 -98 184 -254c0 -159 -81 -251 -201 -251c-62 0 -114 25 -143 78l3 -65s-67 0 -134 -1zM266 93c45 0 76 45 76 157c0 88 -25 146 -77 146c-50 0 -76 -55 -76 -146
c0 -113 31 -157 77 -157z" />
    <glyph glyph-name="c.alt" 
d="M263 -16c-147 0 -241 77 -241 262c0 154 76 258 239 258c137 0 221 -75 226 -208c-74 -2 -166 -5 -166 -5c-2 64 -24 100 -63 100c-43 0 -72 -48 -72 -148c0 -95 28 -140 73 -140c33 0 60 28 61 102c0 0 56 -1 170 1c-13 -152 -100 -222 -227 -222z" />
    <glyph glyph-name="d.alt" horiz-adv-x="534" 
d="M498 1c0 0 -78 1 -137 1c0 0 2 22 3 64c-28 -47 -77 -75 -141 -75c-118 0 -201 82 -201 255c0 152 66 254 194 254c54 0 98 -28 125 -65c-1 61 -3 153 -7 264c0 0 32 -1 165 1c0 0 -4 -311 -1 -699zM267 96c47 0 76 42 76 146c-1 95 -26 151 -78 151
c-46 0 -74 -53 -74 -149c0 -104 31 -148 76 -148z" />
    <glyph glyph-name="e.alt" horiz-adv-x="519" 
d="M267 -13c-161 0 -245 90 -245 262c0 147 85 252 238 252c183 0 246 -120 238 -299c0 0 -108 1 -309 -3c7 -76 32 -107 77 -107c35 0 60 24 68 75c0 0 56 -6 163 -12c-28 -102 -108 -168 -230 -168zM263 400c-47 0 -71 -40 -76 -123l146 4c-1 79 -21 119 -70 119z" />
    <glyph glyph-name="f.alt" horiz-adv-x="379" 
d="M362 325c0 0 -44 1 -120 2c-1 -157 2 -318 2 -318s-68 1 -156 -1c0 0 -3 155 -4 319l-69 -1s1 40 0 136l70 -3v12c2 135 50 210 198 210c28 0 60 -3 96 -9c0 0 -5 -41 -8 -127c-14 1 -26 2 -37 2c-73 -1 -90 -29 -90 -83v-9l120 -1s-3 -51 -2 -129z" />
    <glyph glyph-name="g.alt" horiz-adv-x="479" 
d="M234 -262c-132 0 -225 37 -225 119c0 47 41 86 105 101c-40 16 -60 45 -60 79c0 37 24 69 69 90c-68 31 -105 91 -105 180c0 121 83 202 223 202c11 0 22 -1 33 -2c4 34 12 96 19 179c0 0 60 -18 159 -40c0 0 -34 -65 -80 -167c62 -35 93 -97 93 -175
c0 -128 -89 -200 -216 -200c-17 0 -33 0 -48 2c-8 -8 -11 -15 -11 -24c0 -17 15 -28 99 -34c163 -11 205 -64 205 -136c0 -108 -119 -174 -260 -174zM241 199c39 0 65 30 65 102c0 63 -22 99 -65 99s-66 -35 -66 -100c0 -68 25 -101 66 -101zM341 -119c0 30 -28 43 -126 47
c-32 -15 -48 -34 -48 -55c0 -28 31 -41 85 -41c56 0 89 25 89 49z" />
    <glyph glyph-name="h.alt" horiz-adv-x="502" 
d="M34 -6c0 0 4 331 0 702c0 0 54 -1 158 1c0 0 -3 -127 -2 -268c28 48 76 80 142 80c90 0 137 -65 141 -169c5 -169 1 -335 1 -335s-62 2 -159 1c0 0 4 136 1 289c-2 49 -14 75 -50 75c-45 0 -69 -45 -70 -105c-2 -120 0 -270 0 -270s-63 1 -162 -1z" />
    <glyph glyph-name="i.alt" horiz-adv-x="238" 
d="M41 14c0 0 1 105 -3 472c0 0 58 -1 159 1c0 0 0 -200 4 -472c0 0 -68 0 -160 -1zM120 534c-62 0 -99 30 -99 91c0 51 33 87 98 87s96 -39 96 -87c0 -57 -34 -91 -95 -91z" />
    <glyph glyph-name="j.alt" horiz-adv-x="237" 
d="M121 532c-68 0 -98 37 -98 90c0 50 30 89 97 89c64 0 97 -38 97 -87c0 -61 -42 -92 -96 -92zM-72 -208c0 0 3 42 4 132c14 -2 25 -3 36 -3c53 0 74 28 75 86c3 195 -1 474 -1 474c106 -2 155 1 155 1s7 -184 4 -494c-1 -134 -69 -201 -205 -201c-21 0 -44 2 -68 5z" />
    <glyph glyph-name="k.alt" horiz-adv-x="500" 
d="M329 -18c-36 101 -63 172 -80 215c-25 -36 -43 -65 -55 -84c0 -75 1 -112 1 -112c-100 3 -161 2 -161 2c3 474 0 698 0 698c110 -3 161 -1 161 -1c-1 -180 -2 -313 -2 -419c76 153 109 233 109 233c111 -9 182 -14 182 -14c-59 -90 -97 -150 -121 -188
c81 -196 134 -319 134 -319c-122 -5 -168 -11 -168 -11z" />
    <glyph glyph-name="l.alt" horiz-adv-x="235" 
d="M197 -7c-100 3 -160 2 -160 2c4 483 1 705 1 705c110 -2 161 -2 161 -2c-5 -533 -2 -705 -2 -705z" />
    <glyph glyph-name="m.alt" horiz-adv-x="774" 
d="M36 4c0 0 1 194 -3 473c0 0 55 -2 129 -1c0 0 -2 -31 -2 -75c30 62 89 106 160 106c78 0 119 -45 135 -108c30 51 84 84 148 84c105 0 138 -77 141 -169c4 -151 1 -307 1 -307s-60 1 -158 0c0 0 2 129 -2 266c-2 47 -15 75 -47 75c-43 0 -66 -44 -67 -103
c-2 -103 0 -252 0 -252s-73 0 -162 -1c0 0 6 179 2 302c-1 46 -15 74 -47 74c-39 0 -68 -46 -69 -110c-3 -108 1 -254 1 -254s-72 1 -160 0z" />
    <glyph glyph-name="n.alt" horiz-adv-x="501" 
d="M313 5c0 0 3 133 1 286c0 46 -12 74 -48 74c-44 0 -69 -44 -71 -102c-2 -73 -1 -270 -1 -270s-87 1 -161 0c0 0 3 204 1 488c0 0 66 -2 127 1c0 0 -2 -42 -1 -83c27 60 87 105 164 104c95 -1 144 -62 147 -170c3 -72 3 -327 3 -327c-49 0 -161 -1 -161 -1z" />
    <glyph glyph-name="o.alt" horiz-adv-x="529" 
d="M266 503c141 0 241 -84 241 -265c0 -156 -95 -250 -240 -250c-154 0 -245 100 -245 255c0 164 96 260 244 260zM264 394c-47 0 -75 -51 -75 -153c0 -100 29 -146 75 -146s77 42 77 141c0 110 -26 158 -77 158z" />
    <glyph glyph-name="p.alt" horiz-adv-x="537" 
d="M33 -216c3 346 0 724 0 724c46 -1 139 1 139 1c-2 -39 -2 -65 -2 -90c31 51 85 83 151 83c124 0 193 -113 193 -257c1 -165 -77 -252 -194 -252c-54 0 -103 21 -130 59c4 -184 10 -267 10 -267c-74 2 -167 -1 -167 -1zM271 95c47 0 74 43 75 151c0 100 -27 150 -75 150
c-51 0 -77 -51 -77 -151c0 -111 31 -150 77 -150z" />
    <glyph glyph-name="q.alt" horiz-adv-x="538" 
d="M337 -215c5 123 8 211 9 266c-25 -39 -69 -61 -129 -61c-118 0 -195 87 -195 257c0 145 75 258 197 258c64 0 117 -35 146 -81c-1 53 -3 88 -3 88c109 -2 141 0 141 0c-4 -445 0 -726 0 -726c-110 1 -166 -1 -166 -1zM266 93c50 0 78 50 78 155c-1 89 -26 147 -77 147
s-77 -58 -77 -148c0 -100 26 -154 76 -154z" />
    <glyph glyph-name="r.alt" horiz-adv-x="360" 
d="M34 15c0 0 2 226 -1 468c0 0 41 -1 132 1c0 0 -2 -30 -2 -73c30 69 102 120 188 115c0 0 -3 -53 -5 -153c-115 -7 -149 -64 -152 -176c-2 -75 2 -181 2 -181s-54 0 -162 -1z" />
    <glyph glyph-name="s.alt" horiz-adv-x="461" 
d="M240 -15c-132 0 -224 58 -226 183c0 0 54 1 152 5c1 -54 24 -77 74 -77c32 0 55 14 55 43c0 25 -18 41 -111 60c-115 24 -164 72 -164 157c0 88 73 152 206 152c141 0 215 -74 217 -181c0 0 -53 -1 -147 -7c-1 52 -24 75 -67 75c-38 0 -55 -20 -55 -43
c0 -27 20 -46 109 -64c135 -27 167 -79 167 -145c0 -97 -83 -158 -210 -158z" />
    <glyph glyph-name="t.alt" horiz-adv-x="384" 
d="M369 1c-44 -9 -84 -14 -120 -14c-109 0 -174 49 -176 180c-1 68 -1 134 -1 196h-65c1 99 -1 130 -1 130l67 -2c1 76 2 126 2 126c96 -1 157 0 157 0s-2 -53 -3 -127c86 -1 131 0 131 0c-3 -104 -1 -128 -1 -128c-47 1 -87 1 -130 1c0 -54 0 -109 2 -163
c2 -47 21 -68 73 -68c15 0 33 2 54 6c6 -84 11 -137 11 -137z" />
    <glyph glyph-name="u.alt" 
d="M200 8c-120 0 -172 77 -172 283c0 69 3 141 11 212c0 0 40 -6 151 -11c-5 -55 -6 -117 -6 -163c0 -156 21 -191 63 -191c33 0 60 32 62 101c4 140 -2 265 -2 265s41 -3 160 -2c0 0 -3 -191 1 -501c0 0 -43 3 -133 1c0 0 1 34 2 82c-31 -51 -82 -76 -137 -76z" />
    <glyph glyph-name="v.alt" horiz-adv-x="475" 
d="M352 25c-141 -1 -222 -3 -222 -3c-87 328 -130 477 -130 477c102 2 165 6 165 6c47 -266 73 -367 73 -367c62 298 75 377 75 377c112 -5 161 -5 161 -5c-87 -357 -122 -485 -122 -485z" />
    <glyph glyph-name="w.alt" horiz-adv-x="708" 
d="M414 11c-45 236 -62 308 -62 308c-47 -230 -59 -320 -59 -320c-149 5 -204 2 -204 2c-51 309 -86 505 -86 505c93 0 158 4 158 4c25 -260 44 -382 44 -382c47 235 71 352 71 352h152c59 -265 78 -329 78 -329c34 283 41 362 41 362c108 -4 158 -3 158 -3
c-62 -350 -85 -499 -85 -499c-134 2 -206 0 -206 0z" />
    <glyph glyph-name="x.alt" horiz-adv-x="519" 
d="M506 504c-70 -137 -110 -218 -126 -253c87 -178 132 -261 132 -261c-116 1 -173 -3 -173 -3c-36 86 -63 150 -82 191c-49 -114 -71 -181 -71 -181c-127 3 -181 0 -181 0c69 128 111 214 130 253c-78 163 -126 252 -126 252c112 -2 174 1 174 1c33 -89 59 -151 75 -189
c56 137 79 196 79 196c116 -6 169 -6 169 -6z" />
    <glyph glyph-name="y.alt" horiz-adv-x="488" 
d="M288 -252c-123 19 -161 24 -161 24c32 114 47 184 47 184c-102 337 -172 539 -172 539c112 2 173 9 173 9c41 -214 77 -360 77 -360c52 250 67 367 67 367c108 -7 168 -8 168 -8c-159 -588 -199 -755 -199 -755z" />
    <glyph glyph-name="z.alt" horiz-adv-x="432" 
d="M409 9c-298 8 -388 7 -388 7c3 74 1 105 1 105c158 191 198 241 198 241c-143 0 -190 -4 -190 -4c0 100 -3 134 -3 134c265 -1 378 2 378 2c-1 -81 2 -112 2 -112c-150 -173 -201 -245 -201 -245c140 -2 205 2 205 2c-3 -100 -2 -130 -2 -130z" />
    <glyph glyph-name="dotlessi.alt" horiz-adv-x="238" 
d="M41 14c0 0 1 105 -3 472c0 0 58 -1 159 1c0 0 0 -200 4 -472c0 0 -68 0 -160 -1z" />
    <glyph glyph-name="Aacute.alt" horiz-adv-x="545" 
d="M285 726c-50 36 -74 50 -74 50c78 103 109 153 109 153c62 -45 94 -65 94 -65c-99 -102 -129 -138 -129 -138zM2 0c0 0 64 272 151 684c129 4 240 3 240 3s62 -305 150 -681c0 0 -84 2 -172 -1c0 0 -6 34 -19 104c-36 1 -92 2 -167 2l-18 -113s-76 3 -165 2zM268 572
c-11 -54 -36 -180 -63 -339c27 -1 66 -1 124 -1z" />
    <glyph glyph-name="Abreve.alt" horiz-adv-x="545" 
d="M2 0c0 0 64 272 151 684c129 4 240 3 240 3s62 -305 150 -681c0 0 -84 2 -172 -1c0 0 -6 34 -19 104c-36 1 -92 2 -167 2l-18 -113s-76 3 -165 2zM268 572c-11 -54 -36 -180 -63 -339c27 -1 66 -1 124 -1zM271 739c-107 0 -151 61 -147 133c0 0 35 0 98 4
c-1 -33 16 -57 50 -57c29 0 52 19 47 67c0 0 31 -1 100 1c8 -105 -62 -148 -148 -148z" />
    <glyph glyph-name="Acircumflex.alt" horiz-adv-x="545" 
d="M171 723c0 0 -19 20 -62 60c0 0 41 37 112 111c0 0 28 0 97 6c0 0 35 -38 118 -111c0 0 -20 -18 -62 -65c0 0 -34 35 -104 90c0 0 -33 -26 -99 -91zM2 0c0 0 64 272 151 684c129 4 240 3 240 3s62 -305 150 -681c0 0 -84 2 -172 -1c0 0 -6 34 -19 104c-36 1 -92 2 -167 2
l-18 -113s-76 3 -165 2zM268 572c-11 -54 -36 -180 -63 -339c27 -1 66 -1 124 -1z" />
    <glyph glyph-name="Adieresis.alt" horiz-adv-x="545" 
d="M184 745c-48 0 -70 33 -70 70c0 40 30 67 70 67c45 0 70 -29 70 -68c0 -49 -34 -69 -70 -69zM363 748c-40 0 -67 27 -67 70c0 37 24 65 69 65c44 0 65 -31 65 -67c0 -45 -29 -68 -67 -68zM2 0c0 0 64 272 151 684c129 4 240 3 240 3s62 -305 150 -681c0 0 -84 2 -172 -1
c0 0 -6 34 -19 104c-36 1 -92 2 -167 2l-18 -113s-76 3 -165 2zM268 572c-11 -54 -36 -180 -63 -339c27 -1 66 -1 124 -1z" />
    <glyph glyph-name="Agrave.alt" horiz-adv-x="545" 
d="M2 0c0 0 64 272 151 684c129 4 240 3 240 3s62 -305 150 -681c0 0 -84 2 -172 -1c0 0 -6 34 -19 104c-36 1 -92 2 -167 2l-18 -113s-76 3 -165 2zM268 572c-11 -54 -36 -180 -63 -339c27 -1 66 -1 124 -1zM270 727c0 0 -29 36 -128 138c0 0 31 20 94 65
c0 0 31 -50 109 -153c0 0 -24 -14 -75 -50z" />
    <glyph glyph-name="Amacron.alt" horiz-adv-x="545" 
d="M2 0c0 0 64 272 151 684c129 4 240 3 240 3s62 -305 150 -681c0 0 -84 2 -172 -1c0 0 -6 34 -19 104c-36 1 -92 2 -167 2l-18 -113s-76 3 -165 2zM268 572c-11 -54 -36 -180 -63 -339c27 -1 66 -1 124 -1zM138 764c0 0 1 28 -2 93c0 0 72 -1 272 2c0 0 -2 -26 -2 -94
c0 0 -79 2 -268 -1z" />
    <glyph glyph-name="Aogonek.alt" horiz-adv-x="545" 
d="M447 -195c-103 -11 -159 28 -159 94c-1 43 28 86 82 113c-3 13 -9 44 -18 97c-36 1 -92 2 -167 2l-18 -113s-76 3 -165 2c0 0 64 272 151 684c129 4 240 3 240 3s62 -305 150 -681c0 0 -50 1 -108 0c-37 -22 -54 -48 -54 -70c0 -28 22 -45 72 -43c0 0 -4 -27 -6 -88z
M268 572c-11 -54 -36 -180 -63 -339c27 -1 66 -1 124 -1z" />
    <glyph glyph-name="Aring.alt" horiz-adv-x="545" 
d="M266 733c-73 0 -110 45 -110 101c0 61 47 97 111 97c74 0 112 -45 112 -97c0 -73 -53 -101 -113 -101zM269 787c26 0 42 19 42 47c0 23 -13 47 -42 47c-28 0 -44 -20 -44 -47s15 -47 44 -47zM2 0c0 0 64 272 151 684c129 4 240 3 240 3s62 -305 150 -681
c0 0 -84 2 -172 -1c0 0 -6 34 -19 104c-36 1 -92 2 -167 2l-18 -113s-76 3 -165 2zM268 572c-11 -54 -36 -180 -63 -339c27 -1 66 -1 124 -1z" />
    <glyph glyph-name="Atilde.alt" horiz-adv-x="545" 
d="M2 0c0 0 64 272 151 684c129 4 240 3 240 3s62 -305 150 -681c0 0 -84 2 -172 -1c0 0 -6 34 -19 104c-36 1 -92 2 -167 2l-18 -113s-76 3 -165 2zM268 572c-11 -54 -36 -180 -63 -339c27 -1 66 -1 124 -1zM195 741c0 0 -28 1 -84 -2c-5 89 30 151 93 151
c57 0 93 -53 126 -53c18 0 25 16 21 50c0 0 23 -1 79 5c15 -95 -17 -151 -84 -151c-57 0 -93 48 -126 48c-19 0 -27 -15 -25 -48z" />
    <glyph glyph-name="Cacute.alt" horiz-adv-x="567" 
d="M294 -12c-154 0 -272 87 -272 356c0 223 82 356 273 356c161 0 246 -105 253 -277c-117 -2 -176 -5 -176 -5c-3 108 -32 149 -83 149c-66 0 -92 -77 -91 -222c0 -156 33 -221 94 -221c50 0 84 32 85 156c105 -1 178 3 178 3c-2 -200 -92 -295 -261 -295zM301 736
c-50 36 -74 50 -74 50c78 103 109 153 109 153c62 -45 94 -65 94 -65c-99 -102 -129 -138 -129 -138z" />
    <glyph glyph-name="Ccaron.alt" horiz-adv-x="567" 
d="M242 735c0 0 -34 37 -117 111c0 0 20 18 61 65c0 0 35 -35 104 -91c0 0 33 27 100 91c0 0 18 -20 62 -59c0 0 -41 -37 -112 -112c0 0 -28 1 -98 -5zM294 -12c-154 0 -272 87 -272 356c0 223 82 356 273 356c161 0 246 -105 253 -277c-117 -2 -176 -5 -176 -5
c-3 108 -32 149 -83 149c-66 0 -92 -77 -91 -222c0 -156 33 -221 94 -221c50 0 84 32 85 156c105 -1 178 3 178 3c-2 -200 -92 -295 -261 -295z" />
    <glyph glyph-name="Ccedilla.alt" horiz-adv-x="567" 
d="M555 283c-2 -187 -80 -282 -228 -293v-37c70 -1 107 -32 107 -75c0 -54 -53 -89 -142 -89c-30 0 -68 7 -97 20c0 0 6 26 11 62c27 -13 56 -20 81 -20c27 0 46 9 46 26c0 18 -22 30 -87 24c0 0 8 35 17 88c-139 11 -241 104 -241 355c0 223 82 356 273 356
c161 0 246 -105 253 -277c-117 -2 -176 -5 -176 -5c-3 108 -32 149 -83 149c-66 0 -92 -77 -91 -222c0 -156 33 -221 94 -221c50 0 84 32 85 156c105 -1 178 3 178 3z" />
    <glyph glyph-name="Ccircumflex.alt" horiz-adv-x="567" 
d="M187 730c0 0 -19 20 -62 60c0 0 41 37 112 111c0 0 28 0 97 6c0 0 35 -38 118 -111c0 0 -20 -18 -62 -65c0 0 -34 35 -104 90c0 0 -33 -26 -99 -91zM294 -12c-154 0 -272 87 -272 356c0 223 82 356 273 356c161 0 246 -105 253 -277c-117 -2 -176 -5 -176 -5
c-3 108 -32 149 -83 149c-66 0 -92 -77 -91 -222c0 -156 33 -221 94 -221c50 0 84 32 85 156c105 -1 178 3 178 3c-2 -200 -92 -295 -261 -295z" />
    <glyph glyph-name="Dcaron.alt" horiz-adv-x="564" 
d="M201 726c0 0 -34 37 -117 111c0 0 20 18 61 65c0 0 35 -35 104 -91c0 0 33 27 100 91c0 0 18 -20 62 -59c0 0 -41 -37 -112 -112c0 0 -28 1 -98 -5zM203 119c104 -5 165 31 165 221c0 158 -54 223 -171 214c1 -246 6 -435 6 -435zM37 2c3 392 0 672 0 672
c54 7 103 10 148 10c253 0 357 -120 357 -348c0 -243 -127 -341 -379 -341c-39 0 -81 3 -126 7z" />
    <glyph glyph-name="Eacute.alt" horiz-adv-x="458" 
d="M255 730c-50 36 -74 50 -74 50c78 103 109 153 109 153c62 -45 94 -65 94 -65c-99 -102 -129 -138 -129 -138zM44 12c0 0 -1 268 -8 672c0 0 141 1 397 5c0 0 -1 -52 1 -139c0 0 -94 -1 -236 -5c0 0 0 -58 1 -159c15 0 69 -1 197 2c0 0 -1 -44 1 -128c0 0 -86 1 -195 1
l3 -118s88 0 233 1c0 0 -1 -47 -1 -137c0 0 -181 4 -393 5z" />
    <glyph glyph-name="Ecaron.alt" horiz-adv-x="458" 
d="M197 730c0 0 -34 37 -117 111c0 0 20 18 61 65c0 0 35 -35 104 -91c0 0 33 27 100 91c0 0 18 -20 62 -59c0 0 -41 -37 -112 -112c0 0 -28 1 -98 -5zM44 12c0 0 -1 268 -8 672c0 0 141 1 397 5c0 0 -1 -52 1 -139c0 0 -94 -1 -236 -5c0 0 0 -58 1 -159c15 0 69 -1 197 2
c0 0 -1 -44 1 -128c0 0 -86 1 -195 1l3 -118s88 0 233 1c0 0 -1 -47 -1 -137c0 0 -181 4 -393 5z" />
    <glyph glyph-name="Ecircumflex.alt" horiz-adv-x="458" 
d="M142 727c0 0 -19 20 -62 60c0 0 41 37 112 111c0 0 28 0 97 6c0 0 35 -38 118 -111c0 0 -20 -18 -62 -65c0 0 -34 35 -104 90c0 0 -33 -26 -99 -91zM44 12c0 0 -1 268 -8 672c0 0 141 1 397 5c0 0 -1 -52 1 -139c0 0 -94 -1 -236 -5c0 0 0 -58 1 -159c15 0 69 -1 197 2
c0 0 -1 -44 1 -128c0 0 -86 1 -195 1l3 -118s88 0 233 1c0 0 -1 -47 -1 -137c0 0 -181 4 -393 5z" />
    <glyph glyph-name="Edieresis.alt" horiz-adv-x="458" 
d="M155 749c-48 0 -70 33 -70 70c0 40 30 67 70 67c45 0 70 -29 70 -68c0 -49 -34 -69 -70 -69zM334 752c-40 0 -67 27 -67 70c0 37 24 65 69 65c44 0 65 -31 65 -67c0 -45 -29 -68 -67 -68zM44 12c0 0 -1 268 -8 672c0 0 141 1 397 5c0 0 -1 -52 1 -139c0 0 -94 -1 -236 -5
c0 0 0 -58 1 -159c15 0 69 -1 197 2c0 0 -1 -44 1 -128c0 0 -86 1 -195 1l3 -118s88 0 233 1c0 0 -1 -47 -1 -137c0 0 -181 4 -393 5z" />
    <glyph glyph-name="Edotaccent.alt" horiz-adv-x="458" 
d="M243 746c-57 0 -84 40 -84 82s30 78 84 78c57 0 85 -41 85 -79c0 -53 -36 -81 -85 -81zM44 12c0 0 -1 268 -8 672c0 0 141 1 397 5c0 0 -1 -52 1 -139c0 0 -94 -1 -236 -5c0 0 0 -58 1 -159c15 0 69 -1 197 2c0 0 -1 -44 1 -128c0 0 -86 1 -195 1l3 -118s88 0 233 1
c0 0 -1 -47 -1 -137c0 0 -181 4 -393 5z" />
    <glyph glyph-name="Egrave.alt" horiz-adv-x="458" 
d="M240 730c0 0 -29 36 -128 138c0 0 31 20 94 65c0 0 31 -50 109 -153c0 0 -24 -14 -75 -50zM44 12c0 0 -1 268 -8 672c0 0 141 1 397 5c0 0 -1 -52 1 -139c0 0 -94 -1 -236 -5c0 0 0 -58 1 -159c15 0 69 -1 197 2c0 0 -1 -44 1 -128c0 0 -86 1 -195 1l3 -118s88 0 233 1
c0 0 -1 -47 -1 -137c0 0 -181 4 -393 5z" />
    <glyph glyph-name="Emacron.alt" horiz-adv-x="458" 
d="M109 767c0 0 1 28 -2 93c0 0 72 -1 272 2c0 0 -2 -26 -2 -94c0 0 -79 2 -268 -1zM44 12c0 0 -1 268 -8 672c0 0 141 1 397 5c0 0 -1 -52 1 -139c0 0 -94 -1 -236 -5c0 0 0 -58 1 -159c15 0 69 -1 197 2c0 0 -1 -44 1 -128c0 0 -86 1 -195 1l3 -118s88 0 233 1
c0 0 -1 -47 -1 -137c0 0 -181 4 -393 5z" />
    <glyph glyph-name="Eogonek.alt" horiz-adv-x="458" 
d="M436 -198c-100 -11 -158 27 -159 93c0 44 28 86 87 113c-43 1 -224 4 -320 4c0 0 -1 268 -8 672c0 0 141 1 397 5c0 0 0 -52 2 -139c0 0 -95 0 -237 -4c0 0 0 -59 1 -160c13 0 66 -1 198 1c0 0 -1 -42 1 -127c0 0 -89 1 -196 1l3 -119s89 0 234 2c0 0 -2 -47 -2 -137
c-47 -24 -67 -50 -67 -74c0 -28 23 -45 73 -43c0 0 -4 -27 -7 -88z" />
    <glyph glyph-name="Gbreve.alt" horiz-adv-x="575" 
d="M294 -18c-162 0 -272 102 -272 359c0 216 89 351 271 351c157 0 243 -102 250 -259c0 0 -88 0 -169 -6c-5 91 -33 134 -84 134c-65 0 -97 -71 -97 -220c0 -170 38 -230 111 -230c49 0 83 31 89 113l-116 -3s1 38 -1 119c0 0 121 -2 281 -1c9 -253 -89 -357 -263 -357z
M289 736c-107 0 -151 61 -147 133c0 0 35 0 98 4c-1 -33 16 -57 50 -57c29 0 52 19 47 67c0 0 31 -1 100 1c8 -105 -62 -148 -148 -148z" />
    <glyph glyph-name="Gcircumflex.alt" horiz-adv-x="575" 
d="M188 722c0 0 -19 20 -62 60c0 0 41 37 112 111c0 0 28 0 97 6c0 0 35 -38 118 -111c0 0 -20 -18 -62 -65c0 0 -34 35 -104 90c0 0 -33 -26 -99 -91zM294 -18c-162 0 -272 102 -272 359c0 216 89 351 271 351c157 0 243 -102 250 -259c0 0 -88 0 -169 -6
c-5 91 -33 134 -84 134c-65 0 -97 -71 -97 -220c0 -170 38 -230 111 -230c49 0 83 31 89 113l-116 -3s1 38 -1 119c0 0 121 -2 281 -1c9 -253 -89 -357 -263 -357z" />
    <glyph glyph-name="Gcommaaccent.alt" horiz-adv-x="575" 
d="M359 -113c0 -47 -34 -94 -96 -136c-26 27 -40 38 -40 38c23 20 36 39 41 49c-25 7 -41 28 -41 55c0 34 28 61 69 61c42 0 67 -27 67 -67zM294 -18c-162 0 -272 102 -272 359c0 216 89 351 271 351c157 0 243 -102 250 -259c0 0 -88 0 -169 -6c-5 91 -33 134 -84 134
c-65 0 -97 -71 -97 -220c0 -170 38 -230 111 -230c49 0 83 31 89 113l-116 -3s1 38 -1 119c0 0 121 -2 281 -1c9 -253 -89 -357 -263 -357z" />
    <glyph glyph-name="Hcircumflex.alt" horiz-adv-x="543" 
d="M170 736c0 0 -19 20 -62 60c0 0 41 37 112 111c0 0 28 0 97 6c0 0 35 -38 118 -111c0 0 -20 -18 -62 -65c0 0 -34 35 -104 90c0 0 -33 -26 -99 -91zM344 3c0 0 1 74 0 203c-19 0 -58 1 -144 -1l3 -212s-76 2 -163 -1c0 0 1 310 -4 708c0 0 59 0 160 1c0 0 1 -151 3 -358
c17 0 65 -2 145 -1l-4 350s68 -1 164 1c0 0 0 -282 3 -691c0 0 -70 3 -163 1z" />
    <glyph glyph-name="Iacute.alt" horiz-adv-x="257" 
d="M142 717c-50 36 -74 50 -74 50c78 103 109 153 109 153c62 -45 94 -65 94 -65c-99 -102 -129 -138 -129 -138zM48 15c0 0 1 270 -4 659c0 0 58 0 164 1c0 0 1 -298 5 -659c0 0 -68 1 -165 -1z" />
    <glyph glyph-name="Icircumflex.alt" horiz-adv-x="257" 
d="M28 714c0 0 -19 20 -62 60c0 0 41 37 112 111c0 0 28 0 97 6c0 0 35 -38 118 -111c0 0 -20 -18 -62 -65c0 0 -34 35 -104 90c0 0 -33 -26 -99 -91zM48 15c0 0 1 270 -4 659c0 0 58 0 164 1c0 0 1 -298 5 -659c0 0 -68 1 -165 -1z" />
    <glyph glyph-name="Idieresis.alt" horiz-adv-x="257" 
d="M41 738c-48 0 -70 33 -70 70c0 40 30 67 70 67c45 0 70 -29 70 -68c0 -49 -34 -69 -70 -69zM220 741c-40 0 -67 27 -67 70c0 37 24 65 69 65c44 0 65 -31 65 -67c0 -45 -29 -68 -67 -68zM48 15c0 0 1 270 -4 659c0 0 58 0 164 1c0 0 1 -298 5 -659c0 0 -68 1 -165 -1z
" />
    <glyph glyph-name="Idotaccent.alt" horiz-adv-x="257" 
d="M48 15c0 0 1 270 -4 659c0 0 58 0 164 1c0 0 1 -298 5 -659c0 0 -68 1 -165 -1zM129 735c-57 0 -84 40 -84 82s30 78 84 78c57 0 85 -41 85 -79c0 -53 -36 -81 -85 -81z" />
    <glyph glyph-name="Igrave.alt" horiz-adv-x="257" 
d="M48 15c0 0 1 270 -4 659c0 0 58 0 164 1c0 0 1 -298 5 -659c0 0 -68 1 -165 -1zM126 717c0 0 -29 36 -128 138c0 0 31 20 94 65c0 0 31 -50 109 -153c0 0 -24 -14 -75 -50z" />
    <glyph glyph-name="Imacron.alt" horiz-adv-x="257" 
d="M48 15c0 0 1 270 -4 659c0 0 58 0 164 1c0 0 1 -298 5 -659c0 0 -68 1 -165 -1zM-5 756c0 0 1 28 -2 93c0 0 72 -1 272 2c0 0 -2 -26 -2 -94c0 0 -79 2 -268 -1z" />
    <glyph glyph-name="Iogonek.alt" horiz-adv-x="257" 
d="M182 -186c-103 -11 -158 28 -159 94c0 39 25 80 72 108l-47 -1s1 270 -4 659c0 0 58 0 164 1c0 0 1 -298 5 -659h-41c-38 -23 -56 -49 -56 -71c0 -28 23 -45 73 -43c0 0 -4 -27 -7 -88z" />
    <glyph glyph-name="Jcircumflex.alt" horiz-adv-x="488" 
d="M260 719c0 0 -19 20 -62 60c0 0 41 37 112 111c0 0 28 0 97 6c0 0 35 -38 118 -111c0 0 -20 -18 -62 -65c0 0 -34 35 -104 90c0 0 -33 -26 -99 -91zM231 -7c-143 0 -219 81 -221 235c0 35 4 86 13 124c0 0 42 -4 149 -9c-4 -30 -6 -65 -6 -88c0 -92 25 -121 65 -121
c50 0 72 50 73 239c0 109 -7 190 -24 318c0 0 52 2 160 10c17 -115 26 -218 26 -335c0 -272 -85 -373 -235 -373z" />
    <glyph glyph-name="Kcommaaccent.alt" horiz-adv-x="546" 
d="M343 -106c0 -47 -34 -94 -96 -136c-26 27 -40 38 -40 38c23 20 36 39 41 49c-25 7 -41 28 -41 55c0 34 28 61 69 61c42 0 67 -27 67 -67zM366 -15c-39 127 -70 215 -91 269c-34 -61 -61 -110 -77 -137c1 -75 2 -116 2 -116c-104 2 -164 -1 -164 -1c2 396 0 684 0 684
c98 -2 162 -1 162 -1c-1 -136 -1 -250 -1 -348c114 245 169 366 169 366c106 -8 172 -10 172 -10c-74 -146 -121 -245 -148 -301c81 -225 148 -388 148 -388c-111 -8 -172 -17 -172 -17z" />
    <glyph glyph-name="Lacute.alt" horiz-adv-x="424" 
d="M135 711c-50 36 -74 50 -74 50c78 103 109 153 109 153c62 -45 94 -65 94 -65c-99 -102 -129 -138 -129 -138zM42 17c0 0 0 288 -6 661c0 0 51 -2 163 0c0 0 -2 -110 4 -523c144 -1 216 1 216 1c-2 -88 -1 -141 -1 -141c-229 4 -376 2 -376 2z" />
    <glyph glyph-name="Lcaron.alt" horiz-adv-x="424" 
d="M392 660c0 -47 -34 -94 -96 -136c-26 27 -40 38 -40 38c23 20 36 39 41 49c-25 7 -41 28 -41 55c0 34 28 61 69 61c42 0 67 -27 67 -67zM42 17c0 0 0 288 -6 661c0 0 51 -2 163 0c0 0 -2 -110 4 -523c144 -1 216 1 216 1c-2 -88 -1 -141 -1 -141c-229 4 -376 2 -376 2z
" />
    <glyph glyph-name="Lcommaaccent.alt" horiz-adv-x="424" 
d="M297 -93c0 -47 -34 -94 -96 -136c-26 27 -40 38 -40 38c23 20 36 39 41 49c-25 7 -41 28 -41 55c0 34 28 61 69 61c42 0 67 -27 67 -67zM42 17c0 0 0 288 -6 661c0 0 51 -2 163 0c0 0 -2 -110 4 -523c144 -1 216 1 216 1c-2 -88 -1 -141 -1 -141c-229 4 -376 2 -376 2z
" />
    <glyph glyph-name="Nacute.alt" horiz-adv-x="560" 
d="M39 -7c0 0 3 292 -3 699c0 0 70 0 159 2c0 0 73 -187 180 -427c-2 83 -7 234 -18 436c0 0 68 -2 154 -2c0 0 2 -243 12 -688c0 0 -57 -2 -158 -10c0 0 -72 167 -182 416c1 -95 4 -256 12 -428c0 0 -71 2 -156 2zM292 728c-50 36 -74 50 -74 50c78 103 109 153 109 153
c62 -45 94 -65 94 -65c-99 -102 -129 -138 -129 -138z" />
    <glyph glyph-name="Ncaron.alt" horiz-adv-x="560" 
d="M39 -7c0 0 3 292 -3 699c0 0 70 0 159 2c0 0 73 -187 180 -427c-2 83 -7 234 -18 436c0 0 68 -2 154 -2c0 0 2 -243 12 -688c0 0 -57 -2 -158 -10c0 0 -72 167 -182 416c1 -95 4 -256 12 -428c0 0 -71 2 -156 2zM233 736c0 0 -34 37 -117 111c0 0 20 18 61 65
c0 0 35 -35 104 -91c0 0 33 27 100 91c0 0 18 -20 62 -59c0 0 -41 -37 -112 -112c0 0 -28 1 -98 -5z" />
    <glyph glyph-name="Ncommaaccent.alt" horiz-adv-x="560" 
d="M39 -7c0 0 3 292 -3 699c0 0 70 0 159 2c0 0 73 -187 180 -427c-2 83 -7 234 -18 436c0 0 68 -2 154 -2c0 0 2 -243 12 -688c0 0 -57 -2 -158 -10c0 0 -72 167 -182 416c1 -95 4 -256 12 -428c0 0 -71 2 -156 2zM347 -100c0 -47 -34 -94 -96 -136c-26 27 -40 38 -40 38
c23 20 36 39 41 49c-25 7 -41 28 -41 55c0 34 28 61 69 61c42 0 67 -27 67 -67z" />
    <glyph glyph-name="Ntilde.alt" horiz-adv-x="560" 
d="M39 -7c0 0 3 292 -3 699c0 0 70 0 159 2c0 0 73 -187 180 -427c-2 83 -7 234 -18 436c0 0 68 -2 154 -2c0 0 2 -243 12 -688c0 0 -57 -2 -158 -10c0 0 -72 167 -182 416c1 -95 4 -256 12 -428c0 0 -71 2 -156 2zM202 752c0 0 -28 1 -84 -2c-5 89 30 151 93 151
c57 0 93 -53 126 -53c18 0 25 16 21 50c0 0 23 -1 79 5c15 -95 -17 -151 -84 -151c-57 0 -93 48 -126 48c-19 0 -27 -15 -25 -48z" />
    <glyph glyph-name="Oacute.alt" horiz-adv-x="586" 
d="M306 730c-50 36 -74 50 -74 50c78 103 109 153 109 153c62 -45 94 -65 94 -65c-99 -102 -129 -138 -129 -138zM292 700c176 0 270 -115 271 -352c2 -251 -103 -357 -271 -357c-183 0 -272 119 -271 356c1 243 98 353 271 353zM292 570c-58 0 -95 -52 -95 -228
c0 -167 31 -222 95 -222c63 0 96 55 96 222c0 170 -34 228 -96 228z" />
    <glyph glyph-name="Ocircumflex.alt" horiz-adv-x="586" 
d="M191 724c0 0 -19 20 -62 60c0 0 41 37 112 111c0 0 28 0 97 6c0 0 35 -38 118 -111c0 0 -20 -18 -62 -65c0 0 -34 35 -104 90c0 0 -33 -26 -99 -91zM292 700c176 0 270 -115 271 -352c2 -251 -103 -357 -271 -357c-183 0 -272 119 -271 356c1 243 98 353 271 353z
M292 570c-58 0 -95 -52 -95 -228c0 -167 31 -222 95 -222c63 0 96 55 96 222c0 170 -34 228 -96 228z" />
    <glyph glyph-name="Odieresis.alt" horiz-adv-x="586" 
d="M205 748c-48 0 -70 33 -70 70c0 40 30 67 70 67c45 0 70 -29 70 -68c0 -49 -34 -69 -70 -69zM384 751c-40 0 -67 27 -67 70c0 37 24 65 69 65c44 0 65 -31 65 -67c0 -45 -29 -68 -67 -68zM292 700c176 0 270 -115 271 -352c2 -251 -103 -357 -271 -357
c-183 0 -272 119 -271 356c1 243 98 353 271 353zM292 570c-58 0 -95 -52 -95 -228c0 -167 31 -222 95 -222c63 0 96 55 96 222c0 170 -34 228 -96 228z" />
    <glyph glyph-name="Ograve.alt" horiz-adv-x="586" 
d="M292 700c176 0 270 -115 271 -352c2 -251 -103 -357 -271 -357c-183 0 -272 119 -271 356c1 243 98 353 271 353zM292 570c-58 0 -95 -52 -95 -228c0 -167 31 -222 95 -222c63 0 96 55 96 222c0 170 -34 228 -96 228zM290 730c0 0 -29 36 -128 138c0 0 31 20 94 65
c0 0 31 -50 109 -153c0 0 -24 -14 -75 -50z" />
    <glyph glyph-name="Ohungarumlaut.alt" horiz-adv-x="586" 
d="M292 700c176 0 270 -115 271 -352c2 -251 -103 -357 -271 -357c-183 0 -272 119 -271 356c1 243 98 353 271 353zM292 570c-58 0 -95 -52 -95 -228c0 -167 31 -222 95 -222c63 0 96 55 96 222c0 170 -34 228 -96 228zM370 727c-52 32 -74 42 -74 42c70 107 98 160 98 160
c65 -39 92 -52 92 -52c-89 -111 -116 -150 -116 -150zM224 732c-52 31 -74 40 -74 40c68 111 93 161 93 161c63 -39 92 -52 92 -52c-86 -111 -111 -149 -111 -149z" />
    <glyph glyph-name="Omacron.alt" horiz-adv-x="586" 
d="M158 766c0 0 1 28 -2 93c0 0 72 -1 272 2c0 0 -2 -26 -2 -94c0 0 -79 2 -268 -1zM292 700c176 0 270 -115 271 -352c2 -251 -103 -357 -271 -357c-183 0 -272 119 -271 356c1 243 98 353 271 353zM292 570c-58 0 -95 -52 -95 -228c0 -167 31 -222 95 -222
c63 0 96 55 96 222c0 170 -34 228 -96 228z" />
    <glyph glyph-name="Otilde.alt" horiz-adv-x="586" 
d="M292 700c176 0 270 -115 271 -352c2 -251 -103 -357 -271 -357c-183 0 -272 119 -271 356c1 243 98 353 271 353zM292 570c-58 0 -95 -52 -95 -228c0 -167 31 -222 95 -222c63 0 96 55 96 222c0 170 -34 228 -96 228zM215 741c0 0 -28 1 -84 -2c-5 89 30 151 93 151
c57 0 93 -53 126 -53c18 0 25 16 21 50c0 0 23 -1 79 5c15 -95 -17 -151 -84 -151c-57 0 -93 48 -126 48c-19 0 -27 -15 -25 -48z" />
    <glyph glyph-name="Racute.alt" horiz-adv-x="536" 
d="M265 724c-50 36 -74 50 -74 50c78 103 109 153 109 153c62 -45 94 -65 94 -65c-99 -102 -129 -138 -129 -138zM367 -24c0 0 -40 104 -105 260c-20 -2 -42 -3 -65 -3l4 -240s-82 1 -163 -1c0 0 4 263 1 684c65 10 123 15 175 15c206 0 306 -81 306 -228
c0 -92 -40 -153 -113 -189l125 -274s-72 -10 -165 -24zM197 347c105 -7 160 32 160 110c0 67 -34 106 -127 106c-11 0 -23 -1 -36 -2c1 -135 3 -214 3 -214z" />
    <glyph glyph-name="Rcaron.alt" horiz-adv-x="536" 
d="M207 729c0 0 -34 37 -117 111c0 0 20 18 61 65c0 0 35 -35 104 -91c0 0 33 27 100 91c0 0 18 -20 62 -59c0 0 -41 -37 -112 -112c0 0 -28 1 -98 -5zM367 -24c0 0 -40 104 -105 260c-20 -2 -42 -3 -65 -3l4 -240s-82 1 -163 -1c0 0 4 263 1 684c65 10 123 15 175 15
c206 0 306 -81 306 -228c0 -92 -40 -153 -113 -189l125 -274s-72 -10 -165 -24zM197 347c105 -7 160 32 160 110c0 67 -34 106 -127 106c-11 0 -23 -1 -36 -2c1 -135 3 -214 3 -214z" />
    <glyph glyph-name="Rcommaaccent.alt" horiz-adv-x="536" 
d="M331 -103c0 -47 -34 -94 -96 -136c-26 27 -40 38 -40 38c23 20 36 39 41 49c-25 7 -41 28 -41 55c0 34 28 61 69 61c42 0 67 -27 67 -67zM367 -24c0 0 -40 104 -105 260c-20 -2 -42 -3 -65 -3l4 -240s-82 1 -163 -1c0 0 4 263 1 684c65 10 123 15 175 15
c206 0 306 -81 306 -228c0 -92 -40 -153 -113 -189l125 -274s-72 -10 -165 -24zM197 347c105 -7 160 32 160 110c0 67 -34 106 -127 106c-11 0 -23 -1 -36 -2c1 -135 3 -214 3 -214z" />
    <glyph glyph-name="Sacute.alt" horiz-adv-x="529" 
d="M269 -15c-167 0 -256 83 -252 245c0 0 63 -1 170 4c-4 -90 33 -123 88 -123c41 0 67 24 67 70c0 43 -25 71 -127 104c-138 45 -195 102 -195 213c0 129 95 194 238 194c169 0 251 -86 247 -245c0 0 -69 3 -165 1c7 85 -26 120 -82 120c-43 0 -64 -27 -64 -73
c0 -44 34 -73 114 -98c167 -51 210 -115 210 -208c0 -131 -96 -204 -249 -204zM277 734c-50 36 -74 50 -74 50c78 103 109 153 109 153c62 -45 94 -65 94 -65c-99 -102 -129 -138 -129 -138z" />
    <glyph glyph-name="Scaron.alt" horiz-adv-x="529" 
d="M218 736c0 0 -34 37 -117 111c0 0 20 18 61 65c0 0 35 -35 104 -91c0 0 33 27 100 91c0 0 18 -20 62 -59c0 0 -41 -37 -112 -112c0 0 -28 1 -98 -5zM269 -15c-167 0 -256 83 -252 245c0 0 63 -1 170 4c-4 -90 33 -123 88 -123c41 0 67 24 67 70c0 43 -25 71 -127 104
c-138 45 -195 102 -195 213c0 129 95 194 238 194c169 0 251 -86 247 -245c0 0 -69 3 -165 1c7 85 -26 120 -82 120c-43 0 -64 -27 -64 -73c0 -44 34 -73 114 -98c167 -51 210 -115 210 -208c0 -131 -96 -204 -249 -204z" />
    <glyph glyph-name="Scedilla.alt" horiz-adv-x="529" 
d="M342 181c0 43 -25 71 -127 104c-138 45 -195 102 -195 213c0 129 95 194 238 194c169 0 251 -86 247 -245c0 0 -69 3 -165 1c7 85 -26 120 -82 120c-43 0 -64 -27 -64 -73c0 -44 34 -73 114 -98c167 -51 210 -115 210 -208c0 -121 -82 -192 -215 -203v-36
c70 -1 107 -32 107 -75c0 -54 -53 -89 -142 -89c-30 0 -68 7 -97 20c0 0 6 26 11 62c27 -13 56 -20 81 -20c27 0 46 9 46 26c0 18 -22 30 -87 24c0 0 8 35 17 88c-148 10 -226 92 -222 244c0 0 63 -1 170 4c-4 -90 33 -123 88 -123c41 0 67 24 67 70z" />
    <glyph glyph-name="Scircumflex.alt" horiz-adv-x="529" 
d="M163 723c0 0 -19 20 -62 60c0 0 41 37 112 111c0 0 28 0 97 6c0 0 35 -38 118 -111c0 0 -20 -18 -62 -65c0 0 -34 35 -104 90c0 0 -33 -26 -99 -91zM269 -15c-167 0 -256 83 -252 245c0 0 63 -1 170 4c-4 -90 33 -123 88 -123c41 0 67 24 67 70c0 43 -25 71 -127 104
c-138 45 -195 102 -195 213c0 129 95 194 238 194c169 0 251 -86 247 -245c0 0 -69 3 -165 1c7 85 -26 120 -82 120c-43 0 -64 -27 -64 -73c0 -44 34 -73 114 -98c167 -51 210 -115 210 -208c0 -131 -96 -204 -249 -204z" />
    <glyph glyph-name="Scommaaccent.alt" horiz-adv-x="529" 
d="M334 -100c0 -47 -34 -94 -96 -136c-26 27 -40 38 -40 38c23 20 36 39 41 49c-25 7 -41 28 -41 55c0 34 28 61 69 61c42 0 67 -27 67 -67zM269 -15c-167 0 -256 83 -252 245c0 0 63 -1 170 4c-4 -90 33 -123 88 -123c41 0 67 24 67 70c0 43 -25 71 -127 104
c-138 45 -195 102 -195 213c0 129 95 194 238 194c169 0 251 -86 247 -245c0 0 -69 3 -165 1c7 85 -26 120 -82 120c-43 0 -64 -27 -64 -73c0 -44 34 -73 114 -98c167 -51 210 -115 210 -208c0 -131 -96 -204 -249 -204z" />
    <glyph glyph-name="Tcaron.alt" horiz-adv-x="464" 
d="M186 722c0 0 -34 37 -117 111c0 0 20 18 61 65c0 0 35 -35 104 -91c0 0 33 27 100 91c0 0 18 -20 62 -59c0 0 -41 -37 -112 -112c0 0 -28 1 -98 -5zM9 531c0 0 0 55 -1 149c0 0 223 -1 448 3c0 0 -2 -67 -1 -151h-142c0 -101 1 -252 4 -521c0 0 -67 1 -164 -1
c0 0 1 192 -2 522z" />
    <glyph glyph-name="Tcommaaccent.alt" horiz-adv-x="464" 
d="M301 -90c0 -47 -34 -94 -96 -136c-26 27 -40 38 -40 38c23 20 36 39 41 49c-25 7 -41 28 -41 55c0 34 28 61 69 61c42 0 67 -27 67 -67zM9 531c0 0 0 55 -1 149c0 0 223 -1 448 3c0 0 -2 -67 -1 -151h-142c0 -101 1 -252 4 -521c0 0 -67 1 -164 -1c0 0 1 192 -2 522z" />
    <glyph glyph-name="Uacute.alt" horiz-adv-x="541" 
d="M290 718c-50 36 -74 50 -74 50c78 103 109 153 109 153c62 -45 94 -65 94 -65c-99 -102 -129 -138 -129 -138zM272 -14c-176 0 -250 134 -250 399c0 100 7 206 22 307c0 0 54 -6 160 -13c-14 -103 -20 -195 -20 -268c0 -202 32 -273 86 -273c56 0 82 52 82 234
c0 98 -6 203 -17 319c0 0 54 0 163 8c16 -120 22 -216 22 -320c0 -263 -72 -393 -248 -393z" />
    <glyph glyph-name="Ubreve.alt" horiz-adv-x="541" 
d="M272 -14c-176 0 -250 134 -250 399c0 100 7 206 22 307c0 0 54 -6 160 -13c-14 -103 -20 -195 -20 -268c0 -202 32 -273 86 -273c56 0 82 52 82 234c0 98 -6 203 -17 319c0 0 54 0 163 8c16 -120 22 -216 22 -320c0 -263 -72 -393 -248 -393zM276 739
c-107 0 -151 61 -147 133c0 0 35 0 98 4c-1 -33 16 -57 50 -57c29 0 52 19 47 67c0 0 31 -1 100 1c8 -105 -62 -148 -148 -148z" />
    <glyph glyph-name="Ucircumflex.alt" horiz-adv-x="541" 
d="M175 726c0 0 -19 20 -62 60c0 0 41 37 112 111c0 0 28 0 97 6c0 0 35 -38 118 -111c0 0 -20 -18 -62 -65c0 0 -34 35 -104 90c0 0 -33 -26 -99 -91zM272 -14c-176 0 -250 134 -250 399c0 100 7 206 22 307c0 0 54 -6 160 -13c-14 -103 -20 -195 -20 -268
c0 -202 32 -273 86 -273c56 0 82 52 82 234c0 98 -6 203 -17 319c0 0 54 0 163 8c16 -120 22 -216 22 -320c0 -263 -72 -393 -248 -393z" />
    <glyph glyph-name="Udieresis.alt" horiz-adv-x="541" 
d="M189 749c-48 0 -70 33 -70 70c0 40 30 67 70 67c45 0 70 -29 70 -68c0 -49 -34 -69 -70 -69zM368 752c-40 0 -67 27 -67 70c0 37 24 65 69 65c44 0 65 -31 65 -67c0 -45 -29 -68 -67 -68zM272 -14c-176 0 -250 134 -250 399c0 100 7 206 22 307c0 0 54 -6 160 -13
c-14 -103 -20 -195 -20 -268c0 -202 32 -273 86 -273c56 0 82 52 82 234c0 98 -6 203 -17 319c0 0 54 0 163 8c16 -120 22 -216 22 -320c0 -263 -72 -393 -248 -393z" />
    <glyph glyph-name="Ugrave.alt" horiz-adv-x="541" 
d="M275 722c0 0 -29 36 -128 138c0 0 31 20 94 65c0 0 31 -50 109 -153c0 0 -24 -14 -75 -50zM272 -14c-176 0 -250 134 -250 399c0 100 7 206 22 307c0 0 54 -6 160 -13c-14 -103 -20 -195 -20 -268c0 -202 32 -273 86 -273c56 0 82 52 82 234c0 98 -6 203 -17 319
c0 0 54 0 163 8c16 -120 22 -216 22 -320c0 -263 -72 -393 -248 -393z" />
    <glyph glyph-name="Uhungarumlaut.alt" horiz-adv-x="541" 
d="M354 734c-52 32 -74 42 -74 42c70 107 98 160 98 160c65 -39 92 -52 92 -52c-89 -111 -116 -150 -116 -150zM208 739c-52 31 -74 40 -74 40c68 111 93 161 93 161c63 -39 92 -52 92 -52c-86 -111 -111 -149 -111 -149zM272 -14c-176 0 -250 134 -250 399
c0 100 7 206 22 307c0 0 54 -6 160 -13c-14 -103 -20 -195 -20 -268c0 -202 32 -273 86 -273c56 0 82 52 82 234c0 98 -6 203 -17 319c0 0 54 0 163 8c16 -120 22 -216 22 -320c0 -263 -72 -393 -248 -393z" />
    <glyph glyph-name="Umacron.alt" horiz-adv-x="541" 
d="M142 767c0 0 1 28 -2 93c0 0 72 -1 272 2c0 0 -2 -26 -2 -94c0 0 -79 2 -268 -1zM272 -14c-176 0 -250 134 -250 399c0 100 7 206 22 307c0 0 54 -6 160 -13c-14 -103 -20 -195 -20 -268c0 -202 32 -273 86 -273c56 0 82 52 82 234c0 98 -6 203 -17 319c0 0 54 0 163 8
c16 -120 22 -216 22 -320c0 -263 -72 -393 -248 -393z" />
    <glyph glyph-name="Uogonek.alt" horiz-adv-x="541" 
d="M334 -195c-103 -11 -159 28 -159 94c-1 33 16 65 48 91c-141 23 -201 156 -201 395c0 100 7 206 22 307c0 0 54 -6 160 -13c-14 -103 -20 -195 -20 -268c0 -202 32 -273 86 -273c56 0 82 52 82 234c0 98 -6 203 -17 319c0 0 54 0 163 8c16 -120 22 -216 22 -320
c0 -251 -66 -380 -224 -392c-19 -17 -28 -35 -28 -51c0 -28 22 -45 72 -43c0 0 -4 -27 -6 -88z" />
    <glyph glyph-name="Uring.alt" horiz-adv-x="541" 
d="M273 728c-73 0 -110 45 -110 101c0 61 47 97 111 97c74 0 112 -45 112 -97c0 -73 -53 -101 -113 -101zM276 782c26 0 42 19 42 47c0 23 -13 47 -42 47c-28 0 -44 -20 -44 -47s15 -47 44 -47zM272 -14c-176 0 -250 134 -250 399c0 100 7 206 22 307c0 0 54 -6 160 -13
c-14 -103 -20 -195 -20 -268c0 -202 32 -273 86 -273c56 0 82 52 82 234c0 98 -6 203 -17 319c0 0 54 0 163 8c16 -120 22 -216 22 -320c0 -263 -72 -393 -248 -393z" />
    <glyph glyph-name="Yacute.alt" horiz-adv-x="545" 
d="M285 722c-50 36 -74 50 -74 50c78 103 109 153 109 153c62 -45 94 -65 94 -65c-99 -102 -129 -138 -129 -138zM192 -26c0 17 1 56 -3 162c0 0 -60 185 -189 552c0 0 44 0 181 5c0 0 30 -140 92 -361c0 0 36 140 97 364c0 0 48 -3 172 -3c0 0 -74 -216 -189 -556
c0 0 -2 -24 3 -162c0 0 -41 0 -164 -1z" />
    <glyph glyph-name="Ydieresis.alt" horiz-adv-x="545" 
d="M184 746c-48 0 -70 33 -70 70c0 40 30 67 70 67c45 0 70 -29 70 -68c0 -49 -34 -69 -70 -69zM363 749c-40 0 -67 27 -67 70c0 37 24 65 69 65c44 0 65 -31 65 -67c0 -45 -29 -68 -67 -68zM192 -26c0 17 1 56 -3 162c0 0 -60 185 -189 552c0 0 44 0 181 5
c0 0 30 -140 92 -361c0 0 36 140 97 364c0 0 48 -3 172 -3c0 0 -74 -216 -189 -556c0 0 -2 -24 3 -162c0 0 -41 0 -164 -1z" />
    <glyph glyph-name="Zacute.alt" horiz-adv-x="469" 
d="M247 725c-50 36 -74 50 -74 50c78 103 109 153 109 153c62 -45 94 -65 94 -65c-99 -102 -129 -138 -129 -138zM445 8c-254 6 -424 6 -424 6c2 94 1 137 1 137c121 187 203 313 248 384c-149 0 -243 -3 -243 -3c0 109 -1 150 -1 150c274 0 416 4 416 4
c3 -88 2 -145 2 -145c-118 -188 -200 -315 -246 -386c138 -3 249 -2 249 -2c-3 -113 -2 -145 -2 -145z" />
    <glyph glyph-name="Zcaron.alt" horiz-adv-x="469" 
d="M189 727c0 0 -34 37 -117 111c0 0 20 18 61 65c0 0 35 -35 104 -91c0 0 33 27 100 91c0 0 18 -20 62 -59c0 0 -41 -37 -112 -112c0 0 -28 1 -98 -5zM445 8c-254 6 -424 6 -424 6c2 94 1 137 1 137c121 187 203 313 248 384c-149 0 -243 -3 -243 -3c0 109 -1 150 -1 150
c274 0 416 4 416 4c3 -88 2 -145 2 -145c-118 -188 -200 -315 -246 -386c138 -3 249 -2 249 -2c-3 -113 -2 -145 -2 -145z" />
    <glyph glyph-name="Zdotaccent.alt" horiz-adv-x="469" 
d="M445 8c-254 6 -424 6 -424 6c2 94 1 137 1 137c121 187 203 313 248 384c-149 0 -243 -3 -243 -3c0 109 -1 150 -1 150c274 0 416 4 416 4c3 -88 2 -145 2 -145c-118 -188 -200 -315 -246 -386c138 -3 249 -2 249 -2c-3 -113 -2 -145 -2 -145zM236 742
c-57 0 -84 40 -84 82s30 78 84 78c57 0 85 -41 85 -79c0 -53 -36 -81 -85 -81z" />
    <glyph glyph-name="aacute.alt" horiz-adv-x="491" 
d="M251 534c-50 36 -74 50 -74 50c78 103 109 153 109 153c62 -45 94 -65 94 -65c-99 -102 -129 -138 -129 -138zM180 -25c-93 0 -167 49 -167 148c0 102 68 181 286 182v10c0 54 -20 83 -57 83c-40 0 -59 -28 -61 -76c0 0 -59 8 -151 13c10 109 83 172 215 172
c150 0 213 -76 216 -212c4 -166 1 -326 1 -326s-48 0 -130 -2c0 0 3 36 4 87c-30 -56 -92 -79 -156 -79zM307 199c0 9 0 20 -1 30c-97 -3 -133 -36 -133 -92c0 -37 22 -59 55 -59c44 0 79 34 79 121z" />
    <glyph glyph-name="abreve.alt" horiz-adv-x="491" 
d="M180 -25c-93 0 -167 49 -167 148c0 102 68 181 286 182v10c0 54 -20 83 -57 83c-40 0 -59 -28 -61 -76c0 0 -59 8 -151 13c10 109 83 172 215 172c150 0 213 -76 216 -212c4 -166 1 -326 1 -326s-48 0 -130 -2c0 0 3 36 4 87c-30 -56 -92 -79 -156 -79zM307 199
c0 9 0 20 -1 30c-97 -3 -133 -36 -133 -92c0 -37 22 -59 55 -59c44 0 79 34 79 121zM239 548c-107 0 -151 61 -147 133c0 0 35 0 98 4c-1 -33 16 -57 50 -57c29 0 52 19 47 67c0 0 31 -1 100 1c8 -105 -62 -148 -148 -148z" />
    <glyph glyph-name="acircumflex.alt" horiz-adv-x="491" 
d="M138 531c0 0 -19 20 -62 60c0 0 41 37 112 111c0 0 28 0 97 6c0 0 35 -38 118 -111c0 0 -20 -18 -62 -65c0 0 -34 35 -104 90c0 0 -33 -26 -99 -91zM180 -25c-93 0 -167 49 -167 148c0 102 68 181 286 182v10c0 54 -20 83 -57 83c-40 0 -59 -28 -61 -76
c0 0 -59 8 -151 13c10 109 83 172 215 172c150 0 213 -76 216 -212c4 -166 1 -326 1 -326s-48 0 -130 -2c0 0 3 36 4 87c-30 -56 -92 -79 -156 -79zM307 199c0 9 0 20 -1 30c-97 -3 -133 -36 -133 -92c0 -37 22 -59 55 -59c44 0 79 34 79 121z" />
    <glyph glyph-name="adieresis.alt" horiz-adv-x="491" 
d="M151 552c-48 0 -70 33 -70 70c0 40 30 67 70 67c45 0 70 -29 70 -68c0 -49 -34 -69 -70 -69zM330 555c-40 0 -67 27 -67 70c0 37 24 65 69 65c44 0 65 -31 65 -67c0 -45 -29 -68 -67 -68zM180 -25c-93 0 -167 49 -167 148c0 102 68 181 286 182v10c0 54 -20 83 -57 83
c-40 0 -59 -28 -61 -76c0 0 -59 8 -151 13c10 109 83 172 215 172c150 0 213 -76 216 -212c4 -166 1 -326 1 -326s-48 0 -130 -2c0 0 3 36 4 87c-30 -56 -92 -79 -156 -79zM307 199c0 9 0 20 -1 30c-97 -3 -133 -36 -133 -92c0 -37 22 -59 55 -59c44 0 79 34 79 121z" />
    <glyph glyph-name="agrave.alt" horiz-adv-x="491" 
d="M180 -25c-93 0 -167 49 -167 148c0 102 68 181 286 182v10c0 54 -20 83 -57 83c-40 0 -59 -28 -61 -76c0 0 -59 8 -151 13c10 109 83 172 215 172c150 0 213 -76 216 -212c4 -166 1 -326 1 -326s-48 0 -130 -2c0 0 3 36 4 87c-30 -56 -92 -79 -156 -79zM307 199
c0 9 0 20 -1 30c-97 -3 -133 -36 -133 -92c0 -37 22 -59 55 -59c44 0 79 34 79 121zM236 534c0 0 -29 36 -128 138c0 0 31 20 94 65c0 0 31 -50 109 -153c0 0 -24 -14 -75 -50z" />
    <glyph glyph-name="amacron.alt" horiz-adv-x="491" 
d="M180 -25c-93 0 -167 49 -167 148c0 102 68 181 286 182v10c0 54 -20 83 -57 83c-40 0 -59 -28 -61 -76c0 0 -59 8 -151 13c10 109 83 172 215 172c150 0 213 -76 216 -212c4 -166 1 -326 1 -326s-48 0 -130 -2c0 0 3 36 4 87c-30 -56 -92 -79 -156 -79zM307 199
c0 9 0 20 -1 30c-97 -3 -133 -36 -133 -92c0 -37 22 -59 55 -59c44 0 79 34 79 121zM105 568c0 0 1 28 -2 93c0 0 72 -1 272 2c0 0 -2 -26 -2 -94c0 0 -79 2 -268 -1z" />
    <glyph glyph-name="aogonek.alt" horiz-adv-x="491" 
d="M180 -25c-93 0 -167 49 -167 148c0 102 68 181 286 182v10c0 54 -20 83 -57 83c-40 0 -59 -28 -61 -76c0 0 -59 8 -151 13c10 109 83 172 215 172c150 0 213 -76 216 -212c4 -166 1 -326 1 -326h-71c-27 -20 -40 -41 -40 -60c0 -28 23 -46 73 -43c0 0 -4 -27 -7 -88
c-103 -12 -158 27 -159 93c0 41 26 82 75 110l3 73c-30 -56 -92 -79 -156 -79zM307 199c0 9 0 20 -1 30c-97 -3 -133 -36 -133 -92c0 -37 22 -59 55 -59c44 0 79 34 79 121z" />
    <glyph glyph-name="aring.alt" horiz-adv-x="491" 
d="M238 541c-73 0 -110 45 -110 101c0 61 47 97 111 97c74 0 112 -45 112 -97c0 -73 -53 -101 -113 -101zM241 595c26 0 42 19 42 47c0 23 -13 47 -42 47c-28 0 -44 -20 -44 -47s15 -47 44 -47zM180 -25c-93 0 -167 49 -167 148c0 102 68 181 286 182v10c0 54 -20 83 -57 83
c-40 0 -59 -28 -61 -76c0 0 -59 8 -151 13c10 109 83 172 215 172c150 0 213 -76 216 -212c4 -166 1 -326 1 -326s-48 0 -130 -2c0 0 3 36 4 87c-30 -56 -92 -79 -156 -79zM307 199c0 9 0 20 -1 30c-97 -3 -133 -36 -133 -92c0 -37 22 -59 55 -59c44 0 79 34 79 121z" />
    <glyph glyph-name="atilde.alt" horiz-adv-x="491" 
d="M180 -25c-93 0 -167 49 -167 148c0 102 68 181 286 182v10c0 54 -20 83 -57 83c-40 0 -59 -28 -61 -76c0 0 -59 8 -151 13c10 109 83 172 215 172c150 0 213 -76 216 -212c4 -166 1 -326 1 -326s-48 0 -130 -2c0 0 3 36 4 87c-30 -56 -92 -79 -156 -79zM307 199
c0 9 0 20 -1 30c-97 -3 -133 -36 -133 -92c0 -37 22 -59 55 -59c44 0 79 34 79 121zM162 549c0 0 -28 1 -84 -2c-5 89 30 151 93 151c57 0 93 -53 126 -53c18 0 25 16 21 50c0 0 23 -1 79 5c15 -95 -17 -151 -84 -151c-57 0 -93 48 -126 48c-19 0 -27 -15 -25 -48z" />
    <glyph glyph-name="cacute.alt" 
d="M263 -16c-147 0 -241 77 -241 262c0 154 76 258 239 258c137 0 221 -75 226 -208c-74 -2 -166 -5 -166 -5c-2 64 -24 100 -63 100c-43 0 -72 -48 -72 -148c0 -95 28 -140 73 -140c33 0 60 28 61 102c0 0 56 -1 170 1c-13 -152 -100 -222 -227 -222zM268 535
c-50 36 -74 50 -74 50c78 103 109 153 109 153c62 -45 94 -65 94 -65c-99 -102 -129 -138 -129 -138z" />
    <glyph glyph-name="ccaron.alt" 
d="M211 535c0 0 -34 37 -117 111c0 0 20 18 61 65c0 0 35 -35 104 -91c0 0 33 27 100 91c0 0 18 -20 62 -59c0 0 -41 -37 -112 -112c0 0 -28 1 -98 -5zM263 -16c-147 0 -241 77 -241 262c0 154 76 258 239 258c137 0 221 -75 226 -208c-74 -2 -166 -5 -166 -5
c-2 64 -24 100 -63 100c-43 0 -72 -48 -72 -148c0 -95 28 -140 73 -140c33 0 60 28 61 102c0 0 56 -1 170 1c-13 -152 -100 -222 -227 -222z" />
    <glyph glyph-name="ccedilla.alt" 
d="M490 206c-12 -141 -88 -211 -201 -221v-33c70 -1 107 -32 107 -75c0 -54 -53 -89 -142 -89c-30 0 -68 7 -97 20c0 0 6 26 11 62c27 -13 56 -20 81 -20c27 0 46 9 46 26c0 18 -22 30 -87 24c0 0 8 34 16 86c-124 13 -202 91 -202 260c0 154 76 258 239 258
c137 0 221 -75 226 -208c-74 -2 -166 -5 -166 -5c-2 64 -24 100 -63 100c-43 0 -72 -48 -72 -148c0 -95 28 -140 73 -140c33 0 60 28 61 102c0 0 56 -1 170 1z" />
    <glyph glyph-name="ccircumflex.alt" 
d="M156 529c0 0 -19 20 -62 60c0 0 41 37 112 111c0 0 28 0 97 6c0 0 35 -38 118 -111c0 0 -20 -18 -62 -65c0 0 -34 35 -104 90c0 0 -33 -26 -99 -91zM263 -16c-147 0 -241 77 -241 262c0 154 76 258 239 258c137 0 221 -75 226 -208c-74 -2 -166 -5 -166 -5
c-2 64 -24 100 -63 100c-43 0 -72 -48 -72 -148c0 -95 28 -140 73 -140c33 0 60 28 61 102c0 0 56 -1 170 1c-13 -152 -100 -222 -227 -222z" />
    <glyph glyph-name="dcaron.alt" horiz-adv-x="534" 
d="M675 640c0 -47 -34 -94 -96 -136c-26 27 -40 38 -40 38c23 20 36 39 41 49c-25 7 -41 28 -41 55c0 34 28 61 69 61c42 0 67 -27 67 -67zM498 1c0 0 -78 1 -137 1c0 0 2 22 3 64c-28 -47 -77 -75 -141 -75c-118 0 -201 82 -201 255c0 152 66 254 194 254
c54 0 98 -28 125 -65c-1 61 -3 153 -7 264c0 0 32 -1 165 1c0 0 -4 -311 -1 -699zM267 96c47 0 76 42 76 146c-1 95 -26 151 -78 151c-46 0 -74 -53 -74 -149c0 -104 31 -148 76 -148z" />
    <glyph glyph-name="eacute.alt" horiz-adv-x="519" 
d="M273 531c-50 36 -74 50 -74 50c78 103 109 153 109 153c62 -45 94 -65 94 -65c-99 -102 -129 -138 -129 -138zM267 -13c-161 0 -245 90 -245 262c0 147 85 252 238 252c183 0 246 -120 238 -299c0 0 -108 1 -309 -3c7 -76 32 -107 77 -107c35 0 60 24 68 75
c0 0 56 -6 163 -12c-28 -102 -108 -168 -230 -168zM263 400c-47 0 -71 -40 -76 -123l146 4c-1 79 -21 119 -70 119z" />
    <glyph glyph-name="ecaron.alt" horiz-adv-x="519" 
d="M215 531c0 0 -34 37 -117 111c0 0 20 18 61 65c0 0 35 -35 104 -91c0 0 33 27 100 91c0 0 18 -20 62 -59c0 0 -41 -37 -112 -112c0 0 -28 1 -98 -5zM267 -13c-161 0 -245 90 -245 262c0 147 85 252 238 252c183 0 246 -120 238 -299c0 0 -108 1 -309 -3
c7 -76 32 -107 77 -107c35 0 60 24 68 75c0 0 56 -6 163 -12c-28 -102 -108 -168 -230 -168zM263 400c-47 0 -71 -40 -76 -123l146 4c-1 79 -21 119 -70 119z" />
    <glyph glyph-name="ecircumflex.alt" horiz-adv-x="519" 
d="M160 525c0 0 -19 20 -62 60c0 0 41 37 112 111c0 0 28 0 97 6c0 0 35 -38 118 -111c0 0 -20 -18 -62 -65c0 0 -34 35 -104 90c0 0 -33 -26 -99 -91zM267 -13c-161 0 -245 90 -245 262c0 147 85 252 238 252c183 0 246 -120 238 -299c0 0 -108 1 -309 -3
c7 -76 32 -107 77 -107c35 0 60 24 68 75c0 0 56 -6 163 -12c-28 -102 -108 -168 -230 -168zM263 400c-47 0 -71 -40 -76 -123l146 4c-1 79 -21 119 -70 119z" />
    <glyph glyph-name="edieresis.alt" horiz-adv-x="519" 
d="M173 543c-48 0 -70 33 -70 70c0 40 30 67 70 67c45 0 70 -29 70 -68c0 -49 -34 -69 -70 -69zM352 546c-40 0 -67 27 -67 70c0 37 24 65 69 65c44 0 65 -31 65 -67c0 -45 -29 -68 -67 -68zM267 -13c-161 0 -245 90 -245 262c0 147 85 252 238 252c183 0 246 -120 238 -299
c0 0 -108 1 -309 -3c7 -76 32 -107 77 -107c35 0 60 24 68 75c0 0 56 -6 163 -12c-28 -102 -108 -168 -230 -168zM263 400c-47 0 -71 -40 -76 -123l146 4c-1 79 -21 119 -70 119z" />
    <glyph glyph-name="edotaccent.alt" horiz-adv-x="519" 
d="M261 548c-57 0 -84 40 -84 82s30 78 84 78c57 0 85 -41 85 -79c0 -53 -36 -81 -85 -81zM267 -13c-161 0 -245 90 -245 262c0 147 85 252 238 252c183 0 246 -120 238 -299c0 0 -108 1 -309 -3c7 -76 32 -107 77 -107c35 0 60 24 68 75c0 0 56 -6 163 -12
c-28 -102 -108 -168 -230 -168zM263 400c-47 0 -71 -40 -76 -123l146 4c-1 79 -21 119 -70 119z" />
    <glyph glyph-name="egrave.alt" horiz-adv-x="519" 
d="M258 531c0 0 -29 36 -128 138c0 0 31 20 94 65c0 0 31 -50 109 -153c0 0 -24 -14 -75 -50zM267 -13c-161 0 -245 90 -245 262c0 147 85 252 238 252c183 0 246 -120 238 -299c0 0 -108 1 -309 -3c7 -76 32 -107 77 -107c35 0 60 24 68 75c0 0 56 -6 163 -12
c-28 -102 -108 -168 -230 -168zM263 400c-47 0 -71 -40 -76 -123l146 4c-1 79 -21 119 -70 119z" />
    <glyph glyph-name="emacron.alt" horiz-adv-x="519" 
d="M127 564c0 0 1 28 -2 93c0 0 72 -1 272 2c0 0 -2 -26 -2 -94c0 0 -79 2 -268 -1zM267 -13c-161 0 -245 90 -245 262c0 147 85 252 238 252c183 0 246 -120 238 -299c0 0 -108 1 -309 -3c7 -76 32 -107 77 -107c35 0 60 24 68 75c0 0 56 -6 163 -12
c-28 -102 -108 -168 -230 -168zM263 400c-47 0 -71 -40 -76 -123l146 4c-1 79 -21 119 -70 119z" />
    <glyph glyph-name="eogonek.alt" horiz-adv-x="519" 
d="M337 -200c-103 -11 -159 28 -159 94c-1 34 18 68 52 95c-137 12 -208 101 -208 260c0 147 85 252 238 252c183 0 246 -120 238 -299c0 0 -108 1 -309 -3c7 -76 32 -107 77 -107c35 0 60 24 68 75c0 0 56 -6 163 -12c-25 -90 -90 -153 -189 -165c-26 -20 -37 -41 -37 -59
c0 -28 22 -45 72 -43c0 0 -4 -27 -6 -88zM263 400c-47 0 -71 -40 -76 -123l146 4c-1 79 -21 119 -70 119z" />
    <glyph glyph-name="gbreve.alt" horiz-adv-x="476" 
d="M241 199c39 0 65 30 65 102c0 63 -22 99 -65 99s-66 -35 -66 -100c0 -68 25 -101 66 -101zM341 -119c0 30 -28 43 -126 47c-32 -15 -48 -34 -48 -55c0 -28 31 -41 85 -41c56 0 89 25 89 49zM494 -88c0 -108 -119 -174 -260 -174c-132 0 -225 37 -225 119
c0 47 41 86 105 101c-40 16 -60 45 -60 79c0 37 24 69 69 90c-68 31 -105 91 -105 180c0 121 83 202 223 202c149 0 224 -84 224 -205c0 -128 -89 -200 -216 -200c-17 0 -33 0 -48 2c-8 -8 -11 -15 -11 -24c0 -17 15 -28 99 -34c163 -11 205 -64 205 -136zM244 549
c-107 0 -151 61 -147 133c0 0 35 0 98 4c-1 -33 16 -57 50 -57c29 0 52 19 47 67c0 0 31 -1 100 1c8 -105 -62 -148 -148 -148z" />
    <glyph glyph-name="gcircumflex.alt" horiz-adv-x="476" 
d="M241 199c39 0 65 30 65 102c0 63 -22 99 -65 99s-66 -35 -66 -100c0 -68 25 -101 66 -101zM341 -119c0 30 -28 43 -126 47c-32 -15 -48 -34 -48 -55c0 -28 31 -41 85 -41c56 0 89 25 89 49zM494 -88c0 -108 -119 -174 -260 -174c-132 0 -225 37 -225 119
c0 47 41 86 105 101c-40 16 -60 45 -60 79c0 37 24 69 69 90c-68 31 -105 91 -105 180c0 121 83 202 223 202c149 0 224 -84 224 -205c0 -128 -89 -200 -216 -200c-17 0 -33 0 -48 2c-8 -8 -11 -15 -11 -24c0 -17 15 -28 99 -34c163 -11 205 -64 205 -136zM144 533
c0 0 -19 20 -62 60c0 0 41 37 112 111c0 0 28 0 97 6c0 0 35 -38 118 -111c0 0 -20 -18 -62 -65c0 0 -34 35 -104 90c0 0 -33 -26 -99 -91z" />
    <glyph glyph-name="gcommaaccent.alt" horiz-adv-x="476" 
d="M241 199c39 0 65 30 65 102c0 63 -22 99 -65 99s-66 -35 -66 -100c0 -68 25 -101 66 -101zM341 -119c0 30 -28 43 -126 47c-32 -15 -48 -34 -48 -55c0 -28 31 -41 85 -41c56 0 89 25 89 49zM494 -88c0 -108 -119 -174 -260 -174c-132 0 -225 37 -225 119
c0 47 41 86 105 101c-40 16 -60 45 -60 79c0 37 24 69 69 90c-68 31 -105 91 -105 180c0 121 83 202 223 202c149 0 224 -84 224 -205c0 -128 -89 -200 -216 -200c-17 0 -33 0 -48 2c-8 -8 -11 -15 -11 -24c0 -17 15 -28 99 -34c163 -11 205 -64 205 -136zM169 610
c0 47 34 94 96 136c26 -27 40 -38 40 -38c-23 -20 -36 -39 -41 -49c25 -7 41 -28 41 -55c0 -34 -28 -61 -69 -61c-42 0 -67 27 -67 67z" />
    <glyph glyph-name="hcircumflex.alt" horiz-adv-x="502" 
d="M13 711c0 0 -19 20 -62 60c0 0 41 37 112 111c0 0 28 0 97 6c0 0 35 -38 118 -111c0 0 -20 -18 -62 -65c0 0 -34 35 -104 90c0 0 -33 -26 -99 -91zM34 -6c0 0 4 331 0 702c0 0 54 -1 158 1c0 0 -3 -127 -2 -268c28 48 76 80 142 80c90 0 137 -65 141 -169
c5 -169 1 -335 1 -335s-62 2 -159 1c0 0 4 136 1 289c-2 49 -14 75 -50 75c-45 0 -69 -45 -70 -105c-2 -120 0 -270 0 -270s-63 1 -162 -1z" />
    <glyph glyph-name="iacute.alt" horiz-adv-x="238" 
d="M41 14c0 0 1 105 -3 472c0 0 58 -1 159 1c0 0 0 -200 4 -472c0 0 -68 0 -160 -1zM121 535c-50 36 -74 50 -74 50c78 103 109 153 109 153c62 -45 94 -65 94 -65c-99 -102 -129 -138 -129 -138z" />
    <glyph glyph-name="icircumflex.alt" horiz-adv-x="238" 
d="M41 14c0 0 1 105 -3 472c0 0 58 -1 159 1c0 0 0 -200 4 -472c0 0 -68 0 -160 -1zM17 532c0 0 -19 20 -62 60c0 0 41 37 112 111c0 0 28 0 97 6c0 0 35 -38 118 -111c0 0 -20 -18 -62 -65c0 0 -34 35 -104 90c0 0 -33 -26 -99 -91z" />
    <glyph glyph-name="idieresis.alt" horiz-adv-x="238" 
d="M41 14c0 0 1 105 -3 472c0 0 58 -1 159 1c0 0 0 -200 4 -472c0 0 -68 0 -160 -1zM30 556c-48 0 -70 33 -70 70c0 40 30 67 70 67c45 0 70 -29 70 -68c0 -49 -34 -69 -70 -69zM209 559c-40 0 -67 27 -67 70c0 37 24 65 69 65c44 0 65 -31 65 -67c0 -45 -29 -68 -67 -68z
" />
    <glyph glyph-name="igrave.alt" horiz-adv-x="238" 
d="M41 14c0 0 1 105 -3 472c0 0 58 -1 159 1c0 0 0 -200 4 -472c0 0 -68 0 -160 -1zM123 535c0 0 -29 36 -128 138c0 0 31 20 94 65c0 0 31 -50 109 -153c0 0 -24 -14 -75 -50z" />
    <glyph glyph-name="imacron.alt" horiz-adv-x="238" 
d="M41 14c0 0 1 105 -3 472c0 0 58 -1 159 1c0 0 0 -200 4 -472c0 0 -68 0 -160 -1zM-17 574c0 0 1 28 -2 93c0 0 72 -1 272 2c0 0 -2 -26 -2 -94c0 0 -79 2 -268 -1z" />
    <glyph glyph-name="iogonek.alt" horiz-adv-x="238" 
d="M41 14c0 0 1 105 -3 472c0 0 58 -1 159 1c0 0 0 -200 4 -472h-42c-38 -23 -56 -50 -56 -72c0 -27 23 -45 73 -43c0 0 -4 -27 -7 -88c-103 -11 -159 28 -159 94c0 41 25 81 73 108h-42zM120 534c-62 0 -99 30 -99 91c0 51 33 87 98 87s96 -39 96 -87
c0 -57 -34 -91 -95 -91z" />
    <glyph glyph-name="jcircumflex.alt" horiz-adv-x="237" 
d="M-72 -208c0 0 3 42 4 132c14 -2 25 -3 36 -3c53 0 74 28 75 86c3 195 -1 474 -1 474c106 -2 155 1 155 1s7 -184 4 -494c-1 -134 -69 -201 -205 -201c-21 0 -44 2 -68 5zM22 532c0 0 -19 20 -62 60c0 0 41 37 112 111c0 0 28 0 97 6c0 0 35 -38 118 -111
c0 0 -20 -18 -62 -65c0 0 -34 35 -104 90c0 0 -33 -26 -99 -91z" />
    <glyph glyph-name="kcommaaccent.alt" horiz-adv-x="499" 
d="M331 -104c0 -47 -34 -94 -96 -136c-26 27 -40 38 -40 38c23 20 36 39 41 49c-25 7 -41 28 -41 55c0 34 28 61 69 61c42 0 67 -27 67 -67zM329 -18c-36 101 -63 172 -80 215c-25 -36 -43 -65 -55 -84c0 -75 1 -112 1 -112c-100 3 -161 2 -161 2c3 474 0 698 0 698
c110 -3 161 -1 161 -1c-1 -180 -2 -313 -2 -419c76 153 109 233 109 233c111 -9 182 -14 182 -14c-59 -90 -97 -150 -121 -188c81 -196 134 -319 134 -319c-122 -5 -168 -11 -168 -11z" />
    <glyph glyph-name="lacute.alt" horiz-adv-x="235" 
d="M138 729c-50 36 -74 50 -74 50c78 103 109 153 109 153c62 -45 94 -65 94 -65c-99 -102 -129 -138 -129 -138zM197 -7c-100 3 -160 2 -160 2c4 483 1 705 1 705c110 -2 161 -2 161 -2c-5 -533 -2 -705 -2 -705z" />
    <glyph glyph-name="lcaron.alt" horiz-adv-x="235" 
d="M374 634c0 -47 -34 -94 -96 -136c-26 27 -40 38 -40 38c23 20 36 39 41 49c-25 7 -41 28 -41 55c0 34 28 61 69 61c42 0 67 -27 67 -67zM197 -7c-100 3 -160 2 -160 2c4 483 1 705 1 705c110 -2 161 -2 161 -2c-5 -533 -2 -705 -2 -705z" />
    <glyph glyph-name="lcommaaccent.alt" horiz-adv-x="235" 
d="M186 -100c0 -47 -34 -94 -96 -136c-26 27 -40 38 -40 38c23 20 36 39 41 49c-25 7 -41 28 -41 55c0 34 28 61 69 61c42 0 67 -27 67 -67zM197 -7c-100 3 -160 2 -160 2c4 483 1 705 1 705c110 -2 161 -2 161 -2c-5 -533 -2 -705 -2 -705z" />
    <glyph glyph-name="nacute.alt" horiz-adv-x="501" 
d="M313 5c0 0 3 133 1 286c0 46 -12 74 -48 74c-44 0 -69 -44 -71 -102c-2 -73 -1 -270 -1 -270s-87 1 -161 0c0 0 3 204 1 488c0 0 66 -2 127 1c0 0 -2 -42 -1 -83c27 60 87 105 164 104c95 -1 144 -62 147 -170c3 -72 3 -327 3 -327c-49 0 -161 -1 -161 -1zM271 531
c-50 36 -74 50 -74 50c78 103 109 153 109 153c62 -45 94 -65 94 -65c-99 -102 -129 -138 -129 -138z" />
    <glyph glyph-name="ncaron.alt" horiz-adv-x="501" 
d="M313 5c0 0 3 133 1 286c0 46 -12 74 -48 74c-44 0 -69 -44 -71 -102c-2 -73 -1 -270 -1 -270s-87 1 -161 0c0 0 3 204 1 488c0 0 66 -2 127 1c0 0 -2 -42 -1 -83c27 60 87 105 164 104c95 -1 144 -62 147 -170c3 -72 3 -327 3 -327c-49 0 -161 -1 -161 -1zM213 534
c0 0 -34 37 -117 111c0 0 20 18 61 65c0 0 35 -35 104 -91c0 0 33 27 100 91c0 0 18 -20 62 -59c0 0 -41 -37 -112 -112c0 0 -28 1 -98 -5z" />
    </font>
</defs>
</svg>
